<svg width="56" height="56" viewBox="0 0 56 56" fill="none" xmlns="http://www.w3.org/2000/svg">
<g filter="url(#filter0_d_2225_10671)">
<path d="M35.5846 4.66699H20.418C16.2427 4.67316 12.2402 6.33452 9.28785 9.28688C6.33549 12.2392 4.67414 16.2417 4.66797 20.417V35.5837C4.66797 39.7608 6.32734 43.7669 9.28104 46.7206C12.2347 49.6743 16.2408 51.3337 20.418 51.3337H35.5846C39.7618 51.3337 43.7679 49.6743 46.7216 46.7206C49.6753 43.7669 51.3346 39.7608 51.3346 35.5837V20.417C51.3285 16.2417 49.6671 12.2392 46.7148 9.28688C43.7624 6.33452 39.7599 4.67316 35.5846 4.66699ZM18.7613 40.787C18.1291 40.787 17.511 40.5995 16.9853 40.2483C16.4596 39.897 16.0499 39.3978 15.808 38.8136C15.566 38.2295 15.5027 37.5868 15.6261 36.9667C15.7494 36.3466 16.0539 35.777 16.5009 35.3299C16.948 34.8829 17.5176 34.5784 18.1377 34.4551C18.7578 34.3317 19.4005 34.395 19.9846 34.637C20.5687 34.8789 21.068 35.2887 21.4192 35.8144C21.7705 36.34 21.958 36.9581 21.958 37.5903C21.9611 38.011 21.8805 38.4281 21.721 38.8173C21.5614 39.2065 21.3261 39.5602 21.0286 39.8576C20.7311 40.1551 20.3775 40.3904 19.9883 40.55C19.599 40.7095 19.182 40.7901 18.7613 40.787ZM18.7613 31.197C18.1291 31.197 17.511 31.0095 16.9853 30.6583C16.4596 30.307 16.0499 29.8078 15.808 29.2236C15.566 28.6395 15.5027 27.9968 15.6261 27.3767C15.7494 26.7566 16.0539 26.187 16.5009 25.7399C16.948 25.2929 17.5176 24.9884 18.1377 24.8651C18.7578 24.7417 19.4005 24.805 19.9846 25.047C20.5687 25.2889 21.068 25.6987 21.4192 26.2244C21.7705 26.75 21.958 27.3681 21.958 28.0003C21.977 28.4307 21.9082 28.8603 21.7558 29.2632C21.6034 29.6661 21.3705 30.0338 21.0715 30.3438C20.7724 30.6537 20.4133 30.8996 20.0162 31.0664C19.619 31.2331 19.192 31.3172 18.7613 31.3137V31.197ZM18.7613 21.607C18.1291 21.607 17.511 21.4195 16.9853 21.0683C16.4596 20.717 16.0499 20.2178 15.808 19.6336C15.566 19.0495 15.5027 18.4068 15.6261 17.7867C15.7494 17.1666 16.0539 16.597 16.5009 16.1499C16.948 15.7029 17.5176 15.3984 18.1377 15.2751C18.7578 15.1517 19.4005 15.215 19.9846 15.457C20.5687 15.6989 21.068 16.1087 21.4192 16.6344C21.7705 17.16 21.958 17.7781 21.958 18.4103C21.9611 18.831 21.8805 19.2481 21.721 19.6373C21.5614 20.0265 21.3261 20.3802 21.0286 20.6776C20.7311 20.9751 20.3775 21.2104 19.9883 21.37C19.599 21.5295 19.182 21.6101 18.7613 21.607ZM37.778 39.3403H27.2313C26.7672 39.3403 26.3221 39.1559 25.9939 38.8278C25.6657 38.4996 25.4813 38.0545 25.4813 37.5903C25.4813 37.1262 25.6657 36.6811 25.9939 36.3529C26.3221 36.0247 26.7672 35.8403 27.2313 35.8403H37.778C38.2421 35.8403 38.6872 36.0247 39.0154 36.3529C39.3436 36.6811 39.528 37.1262 39.528 37.5903C39.528 38.0545 39.3436 38.4996 39.0154 38.8278C38.6872 39.1559 38.2421 39.3403 37.778 39.3403ZM37.778 29.7503H27.2313C26.7672 29.7503 26.3221 29.566 25.9939 29.2378C25.6657 28.9096 25.4813 28.4645 25.4813 28.0003C25.4813 27.5362 25.6657 27.0911 25.9939 26.7629C26.3221 26.4347 26.7672 26.2503 27.2313 26.2503H37.778C38.2421 26.2503 38.6872 26.4347 39.0154 26.7629C39.3436 27.0911 39.528 27.5362 39.528 28.0003C39.528 28.4645 39.3436 28.9096 39.0154 29.2378C38.6872 29.566 38.2421 29.7503 37.778 29.7503ZM37.778 20.1603H27.2313C26.7672 20.1603 26.3221 19.976 25.9939 19.6478C25.6657 19.3196 25.4813 18.8745 25.4813 18.4103C25.4813 17.9462 25.6657 17.5011 25.9939 17.1729C26.3221 16.8447 26.7672 16.6603 27.2313 16.6603H37.778C38.2421 16.6603 38.6872 16.8447 39.0154 17.1729C39.3436 17.5011 39.528 17.9462 39.528 18.4103C39.528 18.8745 39.3436 19.3196 39.0154 19.6478C38.6872 19.976 38.2421 20.1603 37.778 20.1603Z" fill="#7958FF"/>
</g>
<defs>
<filter id="filter0_d_2225_10671" x="4.66797" y="4.66699" width="48.668" height="48.667" filterUnits="userSpaceOnUse" color-interpolation-filters="sRGB">
<feFlood flood-opacity="0" result="BackgroundImageFix"/>
<feColorMatrix in="SourceAlpha" type="matrix" values="0 0 0 0 0 0 0 0 0 0 0 0 0 0 0 0 0 0 127 0" result="hardAlpha"/>
<feOffset dx="2" dy="2"/>
<feComposite in2="hardAlpha" operator="out"/>
<feColorMatrix type="matrix" values="0 0 0 0 1 0 0 0 0 1 0 0 0 0 1 0 0 0 1 0"/>
<feBlend mode="normal" in2="BackgroundImageFix" result="effect1_dropShadow_2225_10671"/>
<feBlend mode="normal" in="SourceGraphic" in2="effect1_dropShadow_2225_10671" result="shape"/>
</filter>
</defs>
</svg>
