<svg width="56" height="56" viewBox="0 0 56 56" fill="none" xmlns="http://www.w3.org/2000/svg">
<path d="M15.2428 29.244H40.7539V34.0351H43.2428V26.7551H29.2428V21.7773H26.7539V26.7551H12.7539V34.0351H15.2428V29.244Z" fill="white"/>
<path d="M21.776 35.7773H6.22049C4.50227 35.7773 3.10938 37.1702 3.10938 38.8885V48.2218C3.10938 49.94 4.50227 51.3329 6.22049 51.3329H21.776C23.4943 51.3329 24.8872 49.94 24.8872 48.2218V38.8885C24.8872 37.1702 23.4943 35.7773 21.776 35.7773Z" fill="#7958FF"/>
<path d="M49.776 35.7773H34.2205C32.5023 35.7773 31.1094 37.1702 31.1094 38.8885V48.2218C31.1094 49.94 32.5023 51.3329 34.2205 51.3329H49.776C51.4943 51.3329 52.8872 49.94 52.8872 48.2218V38.8885C52.8872 37.1702 51.4943 35.7773 49.776 35.7773Z" fill="#7958FF"/>
<path d="M35.776 4.66699H20.2205C18.5023 4.66699 17.1094 6.05988 17.1094 7.7781V17.1114C17.1094 18.8297 18.5023 20.2225 20.2205 20.2225H35.776C37.4943 20.2225 38.8872 18.8297 38.8872 17.1114V7.7781C38.8872 6.05988 37.4943 4.66699 35.776 4.66699Z" fill="#7958FF"/>
</svg>
