<svg width="57" height="57" viewBox="0 0 57 57" fill="none" xmlns="http://www.w3.org/2000/svg">
<g filter="url(#filter0_d_2225_10688)">
<path d="M9.87 12.25H4.66667C3.89312 12.25 3.15125 11.9428 2.60427 11.3958C2.05729 10.8488 1.75 10.1069 1.75 9.33338C1.75 8.55983 2.05729 7.81796 2.60427 7.27098C3.15125 6.724 3.89312 6.41671 4.66667 6.41671H9.87C10.4613 4.87249 11.5072 3.54402 12.8695 2.60686C14.2318 1.6697 15.8465 1.16797 17.5 1.16797C19.1535 1.16797 20.7682 1.6697 22.1305 2.60686C23.4928 3.54402 24.5387 4.87249 25.13 6.41671H40.8333C47.5988 6.41671 53.0833 11.9012 53.0833 18.6667C53.0833 24.8034 48.5707 29.8865 42.6825 30.7779C42.1152 32.3447 41.0823 33.7006 39.7225 34.6637C38.3626 35.6268 36.7408 36.1511 35.0745 36.1662C33.4082 36.1813 31.7771 35.6865 30.4 34.7482C29.0229 33.8099 27.9656 32.473 27.37 30.9167H15.1667C13.6125 30.9148 12.1105 31.477 10.9396 32.4988C9.76867 33.5207 9.0084 34.9328 8.79999 36.4729C8.59159 38.013 8.94921 39.5764 9.80645 40.8727C10.6637 42.169 11.9623 43.1102 13.461 43.5214C14.0899 42.0144 15.156 40.7305 16.5218 39.8354C17.8875 38.9403 19.4902 38.475 21.1229 38.4996C22.7557 38.5242 24.3436 39.0376 25.6817 39.9735C27.0198 40.9094 28.0468 42.2248 28.63 43.75H41.5333C41.6558 42.8692 41.8343 42.0094 42.07 41.1915C42.1937 40.7624 42.4142 40.3674 42.7147 40.0369C43.0152 39.7065 43.3875 39.4495 43.803 39.2857C44.2185 39.1219 44.6661 39.0557 45.1112 39.0922C45.5563 39.1288 45.9871 39.267 46.3703 39.4964L46.3878 39.508L46.431 39.5337L46.4917 39.571L46.5873 39.6294C47.393 40.1228 48.1885 40.6327 48.9732 41.1589C50.344 42.0794 52.1675 43.3802 53.3937 44.6005C53.6656 44.8715 53.8814 45.1935 54.0287 45.5481C54.1759 45.9026 54.2517 46.2828 54.2517 46.6667C54.2517 47.0506 54.1759 47.4308 54.0287 47.7853C53.8814 48.1399 53.6656 48.4619 53.3937 48.7329C52.1675 49.9532 50.344 51.254 48.9732 52.1745C48.1378 52.7348 47.2902 53.2766 46.431 53.7997L46.3878 53.8254L46.3703 53.837C45.987 54.0657 45.5564 54.2034 45.1116 54.2395C44.6667 54.2757 44.2195 54.2094 43.8043 54.0457C43.3891 53.8819 43.017 53.6252 42.7165 53.2952C42.416 52.9651 42.1953 52.5706 42.0712 52.1419C41.8308 51.303 41.651 50.448 41.5333 49.5834H28.63C28.0344 51.1397 26.9771 52.4766 25.6 53.4149C24.2229 54.3532 22.5918 54.8479 20.9255 54.8328C19.2592 54.8177 17.6374 54.2935 16.2775 53.3304C14.9177 52.3673 13.8848 51.0114 13.3175 49.4445C7.42933 48.5532 2.91667 43.4712 2.91667 37.3334C2.91667 30.5679 8.40117 25.0834 15.1667 25.0834H27.37C27.9537 23.5586 28.9808 22.2437 30.3189 21.3082C31.6569 20.3727 33.2446 19.8595 34.8771 19.8349C36.5096 19.8103 38.112 20.2754 39.4777 21.1701C40.8434 22.0648 41.9096 23.3482 42.539 24.8547C44.0377 24.4435 45.3363 23.5024 46.1936 22.206C47.0508 20.9097 47.4084 19.3463 47.2 17.8062C46.9916 16.2662 46.2313 14.854 45.0604 13.8322C43.8895 12.8103 42.3875 12.2481 40.8333 12.25H25.13C24.5387 13.7943 23.4928 15.1227 22.1305 16.0599C20.7682 16.9971 19.1535 17.4988 17.5 17.4988C15.8465 17.4988 14.2318 16.9971 12.8695 16.0599C11.5072 15.1227 10.4613 13.7943 9.87 12.25Z" fill="#7958FF"/>
</g>
<defs>
<filter id="filter0_d_2225_10688" x="0" y="0" width="57.9961" height="58" filterUnits="userSpaceOnUse" color-interpolation-filters="sRGB">
<feFlood flood-opacity="0" result="BackgroundImageFix"/>
<feColorMatrix in="SourceAlpha" type="matrix" values="0 0 0 0 0 0 0 0 0 0 0 0 0 0 0 0 0 0 127 0" result="hardAlpha"/>
<feOffset dx="2" dy="2"/>
<feComposite in2="hardAlpha" operator="out"/>
<feColorMatrix type="matrix" values="0 0 0 0 1 0 0 0 0 1 0 0 0 0 1 0 0 0 1 0"/>
<feBlend mode="normal" in2="BackgroundImageFix" result="effect1_dropShadow_2225_10688"/>
<feBlend mode="normal" in="SourceGraphic" in2="effect1_dropShadow_2225_10688" result="shape"/>
</filter>
</defs>
</svg>
