<svg width="56" height="56" viewBox="0 0 56 56" fill="none" xmlns="http://www.w3.org/2000/svg">
<path fill-rule="evenodd" clip-rule="evenodd" d="M7.5941 8.55666C7.30098 8.21442 7.11213 7.79532 7.04991 7.34902C6.9877 6.90273 7.05474 6.44796 7.24309 6.0386C7.43144 5.62925 7.7332 5.28247 8.1126 5.03937C8.49201 4.79627 8.93316 4.66704 9.38377 4.66699H38.4991C46.5818 4.66699 51.6334 13.417 47.5921 20.417C46.6706 22.0132 45.3451 23.3386 43.7489 24.2602C42.1528 25.1818 40.3422 25.6669 38.4991 25.667H9.38377C8.93316 25.6669 8.49201 25.5377 8.1126 25.2946C7.7332 25.0515 7.43144 24.7047 7.24309 24.2954C7.05474 23.886 6.9877 23.4313 7.04991 22.985C7.11213 22.5387 7.30098 22.1196 7.5941 21.7773L9.35343 19.724C10.441 18.4552 11.0389 16.8393 11.0389 15.1682C11.0389 13.497 10.441 11.8811 9.35343 10.6123L7.5941 8.55666Z" fill="white"/>
<path fill-rule="evenodd" clip-rule="evenodd" d="M7 38.5C7 35.7152 8.10625 33.0445 10.0754 31.0754C12.0445 29.1062 14.7152 28 17.5 28H46.6153C47.0659 28 47.5071 28.1293 47.8865 28.3724C48.2659 28.6155 48.5677 28.9623 48.756 29.3716C48.9444 29.781 49.0114 30.2357 48.9492 30.682C48.887 31.1283 48.6981 31.5474 48.405 31.8897L46.6433 33.943C45.5557 35.2117 44.9579 36.8277 44.9579 38.4988C44.9579 40.1699 45.5557 41.7859 46.6433 43.0547L48.405 45.108C48.6988 45.4502 48.8883 45.8695 48.9509 46.3162C49.0135 46.7629 48.9467 47.2181 48.7582 47.6279C48.5698 48.0377 48.2677 48.3848 47.8879 48.628C47.508 48.8712 47.0664 49.0003 46.6153 49H17.5C14.7152 49 12.0445 47.8938 10.0754 45.9246C8.10625 43.9555 7 41.2848 7 38.5Z" fill="#7958FF"/>
</svg>
