<svg width="48" height="48" viewBox="0 0 48 48" fill="none" xmlns="http://www.w3.org/2000/svg">
<rect width="48" height="48" rx="24" fill="url(#paint0_linear_897_1424)"/>
<path d="M15.2344 29.9364L23.2664 34.5736C23.4946 34.7049 23.7532 34.774 24.0164 34.774C24.2796 34.774 24.5383 34.7049 24.7664 34.5736L32.7985 29.9363C33.0263 29.8043 33.2154 29.6149 33.347 29.387C33.4786 29.159 33.5481 28.9005 33.5485 28.6373V19.3627C33.5481 19.0995 33.4786 18.841 33.347 18.613C33.2154 18.3851 33.0263 18.1957 32.7985 18.0637L24.7665 13.4264C24.5383 13.2951 24.2797 13.2261 24.0165 13.2261C23.7532 13.2261 23.4946 13.2951 23.2665 13.4264L15.2344 18.0637C15.0066 18.1957 14.8175 18.3851 14.6859 18.613C14.5543 18.841 14.4848 19.0995 14.4844 19.3627V28.6373C14.4848 28.9005 14.5543 29.159 14.6859 29.387C14.8175 29.615 15.0066 29.8044 15.2344 29.9364ZM24.7664 15.1585L32.0485 19.3627V27.6773L24.7664 23.5614V15.1585ZM24.014 24.8591L31.3807 29.0229L24.0166 33.2745L16.6498 29.0215L24.014 24.8591ZM15.9844 19.3627L23.2664 15.1585V23.5585L15.9844 27.6746V19.3627Z" fill="white"/>
<defs>
<linearGradient id="paint0_linear_897_1424" x1="17.6014" y1="-1.92043" x2="23.3416" y2="50.6904" gradientUnits="userSpaceOnUse">
<stop offset="0.033" stop-color="#3F49D8"/>
<stop offset="0.3352" stop-color="#1F1B48"/>
<stop offset="0.5573" stop-color="#00041E"/>
</linearGradient>
</defs>
</svg>
