<svg width="24" height="24" viewBox="0 0 24 24" fill="none" xmlns="http://www.w3.org/2000/svg">
<path d="M9.54627 15.15L18.0213 6.675C18.2213 6.475 18.4546 6.375 18.7213 6.375C18.9879 6.375 19.2213 6.475 19.4213 6.675C19.6213 6.875 19.7213 7.11267 19.7213 7.388C19.7213 7.66333 19.6213 7.90067 19.4213 8.1L10.2463 17.3C10.0463 17.5 9.81294 17.6 9.54627 17.6C9.27961 17.6 9.04627 17.5 8.84627 17.3L4.54627 13C4.34627 12.8 4.25027 12.5627 4.25827 12.288C4.26627 12.0133 4.37061 11.7757 4.57127 11.575C4.77194 11.3743 5.00961 11.2743 5.28427 11.275C5.55894 11.2757 5.79627 11.3757 5.99627 11.575L9.54627 15.15Z" fill="white"/>
</svg>
