<svg width="121" height="32" viewBox="0 0 121 32" fill="none" xmlns="http://www.w3.org/2000/svg">
<path d="M6.0002 18.0506L4.1852 19.1466C4.13186 19.173 4.08236 19.1836 4.0367 19.1786C3.99136 19.1733 3.9472 19.1576 3.9042 19.1316C3.86086 19.105 3.8282 19.0673 3.8062 19.0186C3.7842 18.97 3.7822 18.9168 3.8002 18.8591L4.2832 16.8041L2.6857 15.4191C2.6407 15.3825 2.61103 15.3386 2.5967 15.2876C2.58236 15.2366 2.58553 15.1878 2.6062 15.1411C2.62686 15.0945 2.65436 15.0561 2.6887 15.0261C2.72336 14.9971 2.77003 14.9775 2.8287 14.9671L4.9367 14.7831L5.7587 12.8371C5.78136 12.7821 5.81403 12.7425 5.8567 12.7181C5.89936 12.6938 5.9472 12.6816 6.0002 12.6816C6.0532 12.6816 6.1012 12.6938 6.1442 12.7181C6.1872 12.7425 6.2197 12.7821 6.2417 12.8371L7.0637 14.7831L9.1712 14.9671C9.2302 14.9771 9.27703 14.997 9.3117 15.0266C9.34636 15.056 9.37403 15.0941 9.3947 15.1411C9.41503 15.1878 9.41803 15.2366 9.4037 15.2876C9.38936 15.3386 9.3597 15.3825 9.3147 15.4191L7.7172 16.8041L8.2002 18.8591C8.21886 18.9161 8.21703 18.9691 8.1947 19.0181C8.17236 19.0671 8.13953 19.1048 8.0962 19.1311C8.05353 19.1578 8.00936 19.1736 7.9637 19.1786C7.91836 19.1836 7.86903 19.173 7.8157 19.1466L6.0002 18.0506Z" fill="#FFCD05"/>
<path d="M18.9997 19.4181L15.9747 21.2447C15.8858 21.2886 15.8033 21.3064 15.7272 21.2981C15.6516 21.2892 15.578 21.2631 15.5063 21.2197C15.4341 21.1753 15.3797 21.1125 15.343 21.0314C15.3063 20.9503 15.303 20.8617 15.333 20.7656L16.138 17.3406L13.4755 15.0322C13.4005 14.9711 13.3511 14.8981 13.3272 14.8131C13.3033 14.7281 13.3086 14.6467 13.343 14.5689C13.3775 14.4911 13.4233 14.4272 13.4805 14.3772C13.5383 14.3289 13.6161 14.2961 13.7138 14.2789L17.2272 13.9722L18.5972 10.7289C18.635 10.6372 18.6894 10.5711 18.7605 10.5306C18.8316 10.49 18.9113 10.4697 18.9997 10.4697C19.088 10.4697 19.168 10.49 19.2397 10.5306C19.3113 10.5711 19.3655 10.6372 19.4022 10.7289L20.7722 13.9722L24.2847 14.2789C24.383 14.2956 24.4611 14.3286 24.5188 14.3781C24.5766 14.4269 24.6227 14.4906 24.6572 14.5689C24.6911 14.6467 24.6961 14.7281 24.6722 14.8131C24.6483 14.8981 24.5988 14.9711 24.5238 15.0322L21.8613 17.3406L22.6663 20.7656C22.6975 20.8606 22.6944 20.9489 22.6572 21.0306C22.62 21.1122 22.5652 21.175 22.493 21.2189C22.4219 21.2633 22.3483 21.2897 22.2722 21.2981C22.1966 21.3064 22.1144 21.2886 22.0255 21.2447L18.9997 19.4181Z" fill="#FFCD05"/>
<path d="M32.08 9V6.504H37.072V24H34.312V9H32.08ZM40.8306 15.024C40.8306 12.256 41.2946 10.096 42.2226 8.544C43.1666 6.976 44.7826 6.192 47.0706 6.192C49.3586 6.192 50.9666 6.976 51.8946 8.544C52.8386 10.096 53.3106 12.256 53.3106 15.024C53.3106 17.824 52.8386 20.016 51.8946 21.6C50.9666 23.168 49.3586 23.952 47.0706 23.952C44.7826 23.952 43.1666 23.168 42.2226 21.6C41.2946 20.016 40.8306 17.824 40.8306 15.024ZM50.6226 15.024C50.6226 13.728 50.5346 12.632 50.3586 11.736C50.1986 10.84 49.8626 10.112 49.3506 9.552C48.8386 8.976 48.0786 8.688 47.0706 8.688C46.0626 8.688 45.3026 8.976 44.7906 9.552C44.2786 10.112 43.9346 10.84 43.7586 11.736C43.5986 12.632 43.5186 13.728 43.5186 15.024C43.5186 16.368 43.5986 17.496 43.7586 18.408C43.9186 19.32 44.2546 20.056 44.7666 20.616C45.2946 21.176 46.0626 21.456 47.0706 21.456C48.0786 21.456 48.8386 21.176 49.3506 20.616C49.8786 20.056 50.2226 19.32 50.3826 18.408C50.5426 17.496 50.6226 16.368 50.6226 15.024ZM56.2056 15.024C56.2056 12.256 56.6696 10.096 57.5976 8.544C58.5416 6.976 60.1576 6.192 62.4456 6.192C64.7336 6.192 66.3416 6.976 67.2696 8.544C68.2136 10.096 68.6856 12.256 68.6856 15.024C68.6856 17.824 68.2136 20.016 67.2696 21.6C66.3416 23.168 64.7336 23.952 62.4456 23.952C60.1576 23.952 58.5416 23.168 57.5976 21.6C56.6696 20.016 56.2056 17.824 56.2056 15.024ZM65.9976 15.024C65.9976 13.728 65.9096 12.632 65.7336 11.736C65.5736 10.84 65.2376 10.112 64.7256 9.552C64.2136 8.976 63.4536 8.688 62.4456 8.688C61.4376 8.688 60.6776 8.976 60.1656 9.552C59.6536 10.112 59.3096 10.84 59.1336 11.736C58.9736 12.632 58.8936 13.728 58.8936 15.024C58.8936 16.368 58.9736 17.496 59.1336 18.408C59.2936 19.32 59.6296 20.056 60.1416 20.616C60.6696 21.176 61.4376 21.456 62.4456 21.456C63.4536 21.456 64.2136 21.176 64.7256 20.616C65.2536 20.056 65.5976 19.32 65.7576 18.408C65.9176 17.496 65.9976 16.368 65.9976 15.024ZM71.1486 10.728C71.1486 9.56 71.4846 8.648 72.1566 7.992C72.8446 7.32 73.7246 6.984 74.7966 6.984C75.8686 6.984 76.7406 7.32 77.4126 7.992C78.1006 8.648 78.4446 9.56 78.4446 10.728C78.4446 11.896 78.1006 12.816 77.4126 13.488C76.7406 14.16 75.8686 14.496 74.7966 14.496C73.7246 14.496 72.8446 14.16 72.1566 13.488C71.4846 12.816 71.1486 11.896 71.1486 10.728ZM85.7886 7.296L76.2126 24H73.5246L83.1006 7.296H85.7886ZM74.7966 8.64C73.7886 8.64 73.2846 9.336 73.2846 10.728C73.2846 12.136 73.7886 12.84 74.7966 12.84C75.2766 12.84 75.6446 12.672 75.9006 12.336C76.1726 11.984 76.3086 11.448 76.3086 10.728C76.3086 9.336 75.8046 8.64 74.7966 8.64ZM80.9166 20.544C80.9166 19.376 81.2526 18.464 81.9246 17.808C82.6126 17.136 83.4926 16.8 84.5646 16.8C85.6206 16.8 86.4846 17.136 87.1566 17.808C87.8446 18.464 88.1886 19.376 88.1886 20.544C88.1886 21.712 87.8446 22.632 87.1566 23.304C86.4846 23.976 85.6206 24.312 84.5646 24.312C83.4926 24.312 82.6126 23.976 81.9246 23.304C81.2526 22.632 80.9166 21.712 80.9166 20.544ZM84.5406 18.456C83.5326 18.456 83.0286 19.152 83.0286 20.544C83.0286 21.936 83.5326 22.632 84.5406 22.632C85.5486 22.632 86.0526 21.936 86.0526 20.544C86.0526 19.152 85.5486 18.456 84.5406 18.456Z" fill="white"/>
<path d="M102 19.4181L98.9747 21.2447C98.8858 21.2886 98.8033 21.3064 98.7272 21.2981C98.6516 21.2892 98.578 21.2631 98.5063 21.2197C98.4341 21.1753 98.3797 21.1125 98.343 21.0314C98.3063 20.9503 98.303 20.8617 98.333 20.7656L99.138 17.3406L96.4755 15.0322C96.4005 14.9711 96.3511 14.8981 96.3272 14.8131C96.3033 14.7281 96.3086 14.6467 96.343 14.5689C96.3775 14.4911 96.4233 14.4272 96.4805 14.3772C96.5383 14.3289 96.6161 14.2961 96.7138 14.2789L100.227 13.9722L101.597 10.7289C101.635 10.6372 101.689 10.5711 101.761 10.5306C101.832 10.49 101.911 10.4697 102 10.4697C102.088 10.4697 102.168 10.49 102.24 10.5306C102.311 10.5711 102.366 10.6372 102.402 10.7289L103.772 13.9722L107.285 14.2789C107.383 14.2956 107.461 14.3286 107.519 14.3781C107.577 14.4269 107.623 14.4906 107.657 14.5689C107.691 14.6467 107.696 14.7281 107.672 14.8131C107.648 14.8981 107.599 14.9711 107.524 15.0322L104.861 17.3406L105.666 20.7656C105.697 20.8606 105.694 20.9489 105.657 21.0306C105.62 21.1122 105.565 21.175 105.493 21.2189C105.422 21.2633 105.348 21.2897 105.272 21.2981C105.197 21.3064 105.114 21.2886 105.026 21.2447L102 19.4181Z" fill="#FFCD05"/>
<path d="M115 18.0506L113.185 19.1466C113.132 19.173 113.082 19.1836 113.037 19.1786C112.991 19.1733 112.947 19.1576 112.904 19.1316C112.861 19.105 112.828 19.0673 112.806 19.0186C112.784 18.97 112.782 18.9168 112.8 18.8591L113.283 16.8041L111.686 15.4191C111.641 15.3825 111.611 15.3386 111.597 15.2876C111.582 15.2366 111.586 15.1878 111.606 15.1411C111.627 15.0945 111.654 15.0561 111.689 15.0261C111.723 14.9971 111.77 14.9775 111.829 14.9671L113.937 14.7831L114.759 12.8371C114.781 12.7821 114.814 12.7425 114.857 12.7181C114.899 12.6938 114.947 12.6816 115 12.6816C115.053 12.6816 115.101 12.6938 115.144 12.7181C115.187 12.7425 115.22 12.7821 115.242 12.8371L116.064 14.7831L118.171 14.9671C118.23 14.9771 118.277 14.997 118.312 15.0266C118.346 15.056 118.374 15.0941 118.395 15.1411C118.415 15.1878 118.418 15.2366 118.404 15.2876C118.389 15.3386 118.36 15.3825 118.315 15.4191L116.717 16.8041L117.2 18.8591C117.219 18.9161 117.217 18.9691 117.195 19.0181C117.172 19.0671 117.14 19.1048 117.096 19.1311C117.054 19.1578 117.009 19.1736 116.964 19.1786C116.918 19.1836 116.869 19.173 116.816 19.1466L115 18.0506Z" fill="#FFCD05"/>
</svg>
