<svg width="28" height="28" viewBox="0 0 28 28" fill="none" xmlns="http://www.w3.org/2000/svg">
<path fill-rule="evenodd" clip-rule="evenodd" d="M6.3809 6.38187C6.54496 6.21801 6.76735 6.12598 6.99923 6.12598C7.23111 6.12598 7.4535 6.21801 7.61756 6.38187L21.6176 20.3819C21.7035 20.462 21.7725 20.5586 21.8203 20.6659C21.8681 20.7732 21.8938 20.8891 21.8959 21.0066C21.898 21.1241 21.8764 21.2408 21.8324 21.3497C21.7884 21.4587 21.7229 21.5577 21.6398 21.6407C21.5567 21.7238 21.4577 21.7893 21.3488 21.8333C21.2398 21.8774 21.1231 21.899 21.0056 21.8969C20.8881 21.8948 20.7723 21.8691 20.6649 21.8213C20.5576 21.7735 20.461 21.7045 20.3809 21.6185L6.3809 7.61854C6.21704 7.45448 6.125 7.23208 6.125 7.00021C6.125 6.76833 6.21704 6.54594 6.3809 6.38187Z" fill="white"/>
<path fill-rule="evenodd" clip-rule="evenodd" d="M21.618 6.38187C21.7819 6.54594 21.8739 6.76833 21.8739 7.00021C21.8739 7.23208 21.7819 7.45448 21.618 7.61854L7.61799 21.6185C7.45212 21.7731 7.23273 21.8572 7.00605 21.8532C6.77936 21.8492 6.56308 21.7574 6.40277 21.5971C6.24245 21.4368 6.15062 21.2205 6.14662 20.9938C6.14262 20.7671 6.22676 20.5477 6.38132 20.3819L20.3813 6.38187C20.5454 6.21801 20.7678 6.12598 20.9997 6.12598C21.2315 6.12598 21.4539 6.21801 21.618 6.38187Z" fill="white"/>
</svg>
