<svg width="72" height="72" viewBox="0 0 72 72" fill="none" xmlns="http://www.w3.org/2000/svg">
<rect x="0.5" y="0.5" width="71" height="71" rx="35.5" stroke="#9A9DC1"/>
<g filter="url(#filter0_d_4034_8589)">
<path d="M35.9987 52.6663C45.2037 52.6663 52.6654 45.2047 52.6654 35.9997C52.6654 26.7947 45.2037 19.333 35.9987 19.333C26.7937 19.333 19.332 26.7947 19.332 35.9997C19.332 45.2047 26.7937 52.6663 35.9987 52.6663ZM42.4654 27.1113C42.649 26.9554 42.8809 26.868 43.1218 26.8638C43.3626 26.8597 43.5975 26.9392 43.7863 27.0887C43.9751 27.2383 44.1063 27.4486 44.1575 27.684C44.2087 27.9194 44.1767 28.1652 44.067 28.3797L43.8504 28.7963C43.0708 30.3069 42.2846 31.8142 41.492 33.318C40.8593 34.5214 40.217 35.7198 39.5654 36.913C39.2804 37.4297 39.022 37.8897 38.812 38.2513C38.6509 38.5394 38.4728 38.8177 38.2787 39.0847C37.7592 39.7188 37.0114 40.1234 36.1965 40.2113C35.3815 40.2992 34.5646 40.0634 33.9218 39.5547C33.2791 39.0459 32.862 38.305 32.7604 37.4917C32.6588 36.6783 32.8808 35.8575 33.3787 35.2063C33.522 35.0247 33.7854 34.7647 34.067 34.498C34.3704 34.2097 34.757 33.853 35.197 33.4563C36.2076 32.5483 37.2255 31.6482 38.2504 30.7563C39.5314 29.6383 40.8169 28.5255 42.107 27.418L42.4654 27.1113ZM29.222 44.5447C28.9877 44.7788 28.6699 44.9102 28.3387 44.9102C28.0074 44.9102 27.6897 44.7788 27.4554 44.5447C25.5952 42.6852 24.3925 40.2696 24.0299 37.6646C23.6673 35.0595 24.1646 32.4073 25.4463 30.1106C26.7279 27.8138 28.724 25.998 31.1314 24.9387C33.5388 23.8794 36.2261 23.6346 38.7854 24.2413C38.9459 24.2783 39.0975 24.3465 39.2316 24.4423C39.3656 24.538 39.4794 24.6592 39.5665 24.7991C39.6535 24.9389 39.712 25.0946 39.7387 25.2571C39.7654 25.4197 39.7596 25.5859 39.7219 25.7462C39.6841 25.9065 39.615 26.0578 39.5186 26.1913C39.4221 26.3249 39.3003 26.438 39.16 26.5243C39.0197 26.6106 38.8637 26.6683 38.701 26.6941C38.5383 26.7199 38.3722 26.7133 38.212 26.6747C36.1823 26.193 34.0508 26.3868 32.1412 27.2266C30.2317 28.0664 28.6483 29.5064 27.6314 31.3279C26.6146 33.1494 26.22 35.253 26.5073 37.3192C26.7947 39.3854 27.7484 41.3014 29.2237 42.7763C29.4578 43.0107 29.5893 43.3284 29.5893 43.6597C29.5893 43.9909 29.4578 44.3086 29.2237 44.543M45.8137 31.2347C46.1264 31.1255 46.4697 31.1449 46.7682 31.2886C47.0666 31.4324 47.2958 31.6887 47.4054 32.0013C48.1581 34.149 48.289 36.4656 47.783 38.6844C47.277 40.9032 46.1547 42.934 44.5454 44.543C44.4293 44.6591 44.2914 44.7512 44.1397 44.8141C43.988 44.8769 43.8254 44.9092 43.6612 44.9092C43.497 44.9092 43.3344 44.8769 43.1827 44.8141C43.031 44.7512 42.8931 44.6591 42.777 44.543C42.6609 44.4269 42.5688 44.2891 42.506 44.1373C42.4431 43.9856 42.4108 43.823 42.4108 43.6588C42.4108 43.4946 42.4431 43.332 42.506 43.1803C42.5688 43.0286 42.6609 42.8908 42.777 42.7747C44.054 41.4986 44.9446 39.8878 45.3462 38.1278C45.7478 36.3677 45.6441 34.53 45.047 32.8263C44.9378 32.5136 44.9573 32.1703 45.101 31.8719C45.2448 31.5734 45.5011 31.3442 45.8137 31.2347Z" fill="#7958FF"/>
</g>
<defs>
<filter id="filter0_d_4034_8589" x="19.332" y="19.333" width="34.332" height="35.333" filterUnits="userSpaceOnUse" color-interpolation-filters="sRGB">
<feFlood flood-opacity="0" result="BackgroundImageFix"/>
<feColorMatrix in="SourceAlpha" type="matrix" values="0 0 0 0 0 0 0 0 0 0 0 0 0 0 0 0 0 0 127 0" result="hardAlpha"/>
<feOffset dx="1" dy="2"/>
<feComposite in2="hardAlpha" operator="out"/>
<feColorMatrix type="matrix" values="0 0 0 0 1 0 0 0 0 1 0 0 0 0 1 0 0 0 1 0"/>
<feBlend mode="normal" in2="BackgroundImageFix" result="effect1_dropShadow_4034_8589"/>
<feBlend mode="normal" in="SourceGraphic" in2="effect1_dropShadow_4034_8589" result="shape"/>
</filter>
</defs>
</svg>
