<svg width="72" height="72" viewBox="0 0 72 72" fill="none" xmlns="http://www.w3.org/2000/svg">
<rect x="0.5" y="0.5" width="71" height="71" rx="35.5" stroke="#9A9DC1"/>
<path d="M52.6466 47.2168C52.5698 47.7265 52.3759 48.2114 52.08 48.6335C51.7855 49.0482 51.3955 49.3859 50.943 49.618C50.4904 49.85 49.9886 49.9697 49.48 49.9668H46.7283C46.5326 49.9662 46.3398 49.9191 46.1659 49.8292C45.992 49.7394 45.842 49.6094 45.7283 49.4502C45.6133 49.291 45.5368 49.1072 45.505 48.9134C45.4732 48.7196 45.4869 48.5211 45.545 48.3335C46.1616 46.3668 46.0283 44.1502 40.4433 40.6002C40.2157 40.451 40.0414 40.2335 39.9455 39.9788C39.8497 39.7242 39.8372 39.4457 39.91 39.1835C39.9881 38.9252 40.1466 38.6986 40.3624 38.5368C40.5783 38.3749 40.8402 38.2861 41.11 38.2835C43.4938 38.3159 45.8202 39.0195 47.8223 40.3137C49.8245 41.6078 51.4215 43.44 52.43 45.6002C52.635 46.1128 52.7094 46.6683 52.6466 47.2168ZM48.4783 28.8335C48.4739 30.7862 47.6961 32.6576 46.3152 34.0382C44.9343 35.4188 43.0627 36.1962 41.11 36.2002C40.8912 36.1962 40.6772 36.1356 40.4888 36.0244C40.3004 35.9131 40.1441 35.7549 40.035 35.5653C39.9259 35.3756 39.8678 35.1609 39.8663 34.9421C39.8649 34.7234 39.9201 34.5079 40.0266 34.3168C41.0466 32.685 41.5874 30.7995 41.5874 28.8752C41.5874 26.9508 41.0466 25.0653 40.0266 23.4335C39.8959 23.2467 39.8188 23.0277 39.8036 22.8002C39.7884 22.5727 39.8357 22.3453 39.9404 22.1428C40.0451 21.9402 40.2032 21.7702 40.3976 21.651C40.592 21.5319 40.8153 21.4682 41.0433 21.4668C42.0191 21.4643 42.9851 21.6611 43.8821 22.0452C44.7791 22.4292 45.5883 22.9924 46.26 23.7002C47.631 25.0845 48.4036 26.9518 48.4116 28.9002L48.4783 28.8335Z" fill="white"/>
<path d="M43.7919 47.1663C43.8593 47.9822 43.6987 48.8008 43.3278 49.5307C42.957 50.2606 42.3906 50.873 41.6919 51.2997C40.9952 51.728 40.1919 51.953 39.3752 51.9497H23.7536C22.9358 51.9534 22.1334 51.7282 21.4369 51.2997C20.7366 50.8756 20.1696 50.2632 19.8006 49.5324C19.4316 48.8015 19.2756 47.9816 19.3502 47.1663C19.4107 46.3529 19.6995 45.573 20.1836 44.9163C21.5124 43.1483 23.2239 41.7037 25.19 40.6906C27.1561 39.6776 29.3258 39.1223 31.5369 39.0663C33.7555 39.1104 35.9351 39.6585 37.9107 40.6691C39.8863 41.6797 41.6062 43.1264 42.9402 44.8997C43.4253 45.5634 43.7209 46.3473 43.7919 47.1663ZM39.7419 28.1997C39.7375 30.3664 38.8757 32.4433 37.3449 33.9766C35.8141 35.51 33.7386 36.3751 31.5719 36.383C30.3655 36.38 29.1748 36.11 28.0851 35.5923C26.9955 35.0745 26.034 34.322 25.2697 33.3886C24.5054 32.4553 23.9572 31.3642 23.6645 30.1939C23.3718 29.0236 23.3419 27.803 23.5769 26.6197C23.8129 25.4361 24.3082 24.3196 25.0273 23.3503C25.7464 22.3811 26.6714 21.5833 27.7357 21.0144C28.8001 20.4454 29.9772 20.1194 31.1826 20.0598C32.388 20.0002 33.5916 20.2085 34.7069 20.6697C36.1984 21.2855 37.474 22.3294 38.3728 23.6695C39.2716 25.0097 39.7532 26.5861 39.7569 28.1997H39.7419Z" fill="#7958FF"/>
</svg>
