<svg width="266" height="57" viewBox="0 0 266 57" fill="none" xmlns="http://www.w3.org/2000/svg">
<path fill-rule="evenodd" clip-rule="evenodd" d="M28.9454 0.804566C24.4168 -1.24712 19.0822 0.760343 17.0303 5.28894L0.801819 41.1083C-1.25002 45.6369 0.75753 50.9714 5.28619 53.0233C9.81478 55.0751 15.1493 53.0674 17.2012 48.5389L31.3721 17.2635C32.0741 15.7145 34.1244 15.375 35.2882 16.6151C35.9493 17.3199 36.1205 18.354 35.7217 19.2343L25.1231 42.6278C23.0713 47.1564 25.079 52.4909 29.6075 54.5428C34.1361 56.5946 39.4706 54.587 41.5225 50.0585L54.2286 22.0169C55.0473 20.21 57.25 19.5092 58.9623 20.5107C60.4406 21.3753 61.0266 23.2171 60.3198 24.7769L51.9356 43.2802C49.884 47.8088 51.8924 53.1434 56.421 55.1952C60.9495 57.2469 66.2841 55.2393 68.336 50.7108L78.3673 28.5692C80.4191 24.0406 78.4115 18.706 73.8829 16.6542C71.1877 15.4331 68.2077 15.6504 65.8038 16.9809C64.0801 17.935 61.9385 18.4285 60.238 17.4337L59.844 17.2033C58.301 16.3007 57.6892 14.3783 58.4268 12.7499C60.4786 8.22136 58.4708 2.88685 53.9424 0.834839C49.4138 -1.21704 44.0783 0.79054 42.0264 5.31921L39.8048 10.2225C38.959 12.0886 36.4889 12.4979 35.087 11.0038C34.5084 10.3871 34.2568 9.54517 34.2276 8.70007C34.1133 5.38812 32.1685 2.26496 28.9454 0.804566Z" fill="#7958FF"/>
<path d="M121.808 35.7967H116.675V11.8725C116.675 10.0429 115.998 8.47187 114.646 7.15932C113.332 5.80701 111.741 5.13084 109.87 5.13084C108.04 5.13084 106.448 5.80701 105.095 7.15932C103.782 8.47187 103.125 10.0429 103.125 11.8725V35.7967H97.9922V11.8725C97.9922 8.61108 99.1462 5.8269 101.454 3.52C103.802 1.17333 106.607 0 109.87 0C111.741 0 113.492 0.417625 115.123 1.25288C116.755 2.04836 118.127 3.14215 119.242 4.53424C120.356 3.14215 121.729 2.04836 123.36 1.25288C124.992 0.417625 126.723 0 128.553 0C131.816 0 134.621 1.17333 136.969 3.52C139.317 5.8269 140.491 8.61108 140.491 11.8725V35.7967H135.358V11.8725C135.358 10.0429 134.681 8.47187 133.328 7.15932C132.015 5.80701 130.423 5.13084 128.553 5.13084C126.683 5.13084 125.091 5.80701 123.778 7.15932C122.465 8.47187 121.808 10.0429 121.808 11.8725V35.7967ZM147.364 0H152.497V35.7967H147.364V0ZM159.372 20.4637H161.938H164.505H172.683C174.792 20.4637 176.582 19.708 178.055 18.1966C179.567 16.6852 180.323 14.8755 180.323 12.7675C180.323 10.6594 179.567 8.86961 178.055 7.39796C176.582 5.88655 174.792 5.13084 172.683 5.13084H164.505V10.202H159.372V5.13084V0H161.938H164.505H172.683C176.184 0 179.189 1.25288 181.696 3.75864C184.203 6.2644 185.456 9.26735 185.456 12.7675C185.456 15.1937 184.819 17.4409 183.546 19.5091C182.273 21.5376 180.581 23.0888 178.472 24.1627C178.512 24.1627 178.532 24.1627 178.532 24.1627L180.979 28.339L185.456 35.7967H179.487L174.115 26.7878C173.598 25.9525 172.862 25.5349 171.907 25.5349H167.37H164.505H159.372V20.4637ZM192.306 4.71321V0H197.439V4.71321C197.439 7.65649 198.474 10.1622 200.543 12.2305C202.612 14.2988 205.099 15.3329 208.004 15.3329C210.949 15.3329 213.456 14.2988 215.525 12.2305C217.594 10.1622 218.629 7.65649 218.629 4.71321V0H223.762V4.71321C223.762 8.5713 222.509 11.972 220.002 14.9152C217.495 17.8585 214.351 19.6285 210.571 20.2251V35.7967H205.497V20.2251C201.717 19.6285 198.573 17.8585 196.066 14.9152C193.559 11.972 192.306 8.5713 192.306 4.71321Z" fill="white"/>
<path d="M244.214 20.4637C245.289 20.4637 246.204 20.8416 246.96 21.5973C247.716 22.353 248.094 23.2678 248.094 24.3417C248.094 25.3758 247.716 26.2707 246.96 27.0264C246.204 27.7821 245.289 28.16 244.214 28.16C243.18 28.16 242.284 27.7821 241.528 27.0264C240.772 26.2707 240.394 25.3758 240.394 24.3417C240.394 23.2678 240.772 22.353 241.528 21.5973C242.284 20.8416 243.18 20.4637 244.214 20.4637Z" fill="white"/>
<path d="M223.383 35.7967H228.874L239.678 8.23323C240.076 7.23888 240.673 6.48315 241.468 5.96611C242.265 5.40927 243.18 5.13084 244.214 5.13084C245.289 5.13084 246.224 5.40927 247.02 5.96611C247.815 6.48315 248.393 7.23888 248.751 8.23323L259.554 35.7967H265.046L253.526 6.32407C252.77 4.37514 251.556 2.84384 249.885 1.73017C248.213 0.576723 246.323 0 244.214 0C242.145 0 240.275 0.576723 238.603 1.73017C236.932 2.84384 235.699 4.37514 234.903 6.32407L223.383 35.7967Z" fill="white"/>
<path d="M107.238 47.3994V52.0467H106.123V48.738H99.1072V52.0467H97.9922V47.3994C97.9922 45.7661 98.3472 44.638 99.0571 44.0149C99.6083 43.5603 100.786 43.333 102.59 43.333C104.436 43.333 105.63 43.5603 106.173 44.0149C106.883 44.638 107.238 45.7661 107.238 47.3994ZM106.11 47.3741C106.052 45.9934 105.831 45.1094 105.446 44.7221C104.954 44.2086 104.002 43.9518 102.59 43.9518C101.22 43.9518 100.281 44.2086 99.7712 44.7221C99.387 45.1431 99.1657 46.0355 99.1072 47.3994V48.0561H106.123C106.123 48.014 106.119 47.9003 106.11 47.7151C106.11 47.5215 106.11 47.4078 106.11 47.3741ZM110.312 50.7712C110.646 51.1921 111.415 51.4026 112.617 51.4026C113.803 51.4026 114.564 51.1921 114.898 50.7712C115.198 50.4092 115.349 49.9125 115.349 49.281V46.5785H116.464V49.4705C116.464 50.3713 116.201 51.049 115.674 51.5036C115.474 51.6804 115.161 51.8151 114.735 51.9078C114.317 51.9919 113.975 52.0383 113.707 52.0467C113.44 52.0551 113.073 52.0593 112.605 52.0593C112.137 52.0593 111.77 52.0551 111.502 52.0467C111.235 52.0383 110.889 51.9919 110.463 51.9078C110.045 51.8151 109.736 51.6804 109.536 51.5036C109.018 51.049 108.759 50.3713 108.759 49.4705V46.5785H109.861V49.281C109.861 49.9125 110.012 50.4092 110.312 50.7712ZM122.21 46.4775V47.1847H119.115V48.5359V49.2179C119.115 49.7735 119.141 50.1566 119.191 50.3671C119.241 50.5776 119.341 50.7501 119.491 50.8848C119.809 51.1711 120.356 51.3142 121.132 51.3142H122.586V52.0467H121.245C119.967 52.0467 119.111 51.8825 118.677 51.5542C118.226 51.209 118.001 50.687 118.001 49.9882V44.8737L119.115 44.8863V46.4775H122.21ZM131.567 49.2684C131.567 49.8746 131.492 50.3629 131.342 50.7333C131.2 51.0953 130.974 51.3816 130.665 51.592C130.231 51.8951 129.195 52.0467 127.558 52.0467C125.913 52.0467 124.869 51.8951 124.426 51.592C124.117 51.3816 123.887 51.0995 123.737 50.7459C123.595 50.3923 123.524 49.8998 123.524 49.2684C123.524 48.6286 123.595 48.1318 123.737 47.7782C123.879 47.4246 124.109 47.1342 124.426 46.9069C124.685 46.7301 125.115 46.5912 125.717 46.4901C126.326 46.3807 126.94 46.326 127.558 46.326C128.185 46.326 128.794 46.3807 129.387 46.4901C129.98 46.5912 130.406 46.7301 130.665 46.9069C130.983 47.1342 131.212 47.4204 131.354 47.7656C131.496 48.1024 131.567 48.6033 131.567 49.2684ZM130.465 49.2684C130.465 48.3339 130.268 47.7446 129.876 47.5004C129.333 47.1721 128.56 47.0079 127.558 47.0079C126.539 47.0079 125.762 47.1721 125.228 47.5004C124.844 47.7361 124.652 48.3255 124.652 49.2684C124.652 50.1861 124.844 50.767 125.228 51.0111C125.646 51.2637 126.422 51.39 127.558 51.39C128.686 51.39 129.458 51.2637 129.876 51.0111C130.268 50.7754 130.465 50.1945 130.465 49.2684ZM146.228 49.1674V52.0467H145.15V49.0411C145.15 48.1992 144.929 47.6435 144.486 47.3741C144.069 47.1384 143.396 47.0205 142.469 47.0205C142.093 47.0205 141.709 47.0752 141.317 47.1847C140.924 47.2941 140.624 47.4625 140.415 47.6898C140.206 47.9003 140.102 48.5191 140.102 49.5462V52.0467H139.012V49.5462C139.012 49.5378 139.012 49.5041 139.012 49.4452C139.02 49.3863 139.024 49.3189 139.024 49.2431C139.024 49.1674 139.024 49.079 139.024 48.9779C139.024 48.8769 139.016 48.7717 138.999 48.6622C138.991 48.5528 138.978 48.4475 138.961 48.3465C138.945 48.2371 138.916 48.1318 138.874 48.0308C138.84 47.9214 138.799 47.8287 138.748 47.753C138.414 47.2647 137.721 47.0205 136.669 47.0205C135.683 47.0205 135.028 47.1173 134.702 47.311C134.209 47.572 133.963 48.1487 133.963 49.0411V52.0467H132.898V49.1674C132.898 48.4433 132.94 47.9171 133.023 47.5888C133.107 47.252 133.299 46.9742 133.599 46.7553C134.075 46.4101 135.028 46.2376 136.456 46.2376C137.642 46.2376 138.519 46.3975 139.087 46.7174C139.287 46.8353 139.45 46.9868 139.575 47.1721C139.776 46.9027 140.01 46.709 140.277 46.5912C140.786 46.3638 141.617 46.2502 142.77 46.2502C144.073 46.2502 144.967 46.4101 145.451 46.7301C145.727 46.9069 145.923 47.1889 146.04 47.5762C146.165 47.9635 146.228 48.4939 146.228 49.1674ZM155.347 52.0467H154.27V48.9653C154.27 48.7212 154.266 48.5275 154.257 48.3844C154.249 48.2413 154.216 48.0855 154.157 47.9171C154.107 47.7488 154.028 47.6099 153.919 47.5004C153.752 47.332 153.41 47.2057 152.892 47.1216C152.382 47.0374 151.931 46.9953 151.539 46.9953C150.411 46.9953 149.597 47.1384 149.096 47.4246C148.962 47.5004 148.849 47.6056 148.758 47.7403C148.674 47.8751 148.611 47.9929 148.57 48.0939C148.528 48.195 148.495 48.3507 148.469 48.5612C148.453 48.7717 148.444 48.9064 148.444 48.9653C148.444 49.0242 148.444 49.159 148.444 49.3694C148.444 50.1608 148.603 50.6828 148.92 50.9354C149.255 51.2216 149.91 51.3647 150.887 51.3647C151.33 51.3647 151.944 51.3563 152.729 51.3395L153.756 51.3016V51.9835L152.679 52.0214C151.894 52.0383 151.363 52.0467 151.088 52.0467C149.618 52.0467 148.653 51.8909 148.194 51.5794C147.609 51.1921 147.317 50.4471 147.317 49.3442C147.317 47.9803 147.659 47.1384 148.344 46.8185C149.121 46.4565 150.232 46.2754 151.677 46.2754C152.178 46.2754 152.737 46.3175 153.355 46.4017C153.973 46.4859 154.408 46.6206 154.658 46.8058C155.118 47.1426 155.347 47.7277 155.347 48.5612V52.0467ZM161.213 46.4775V47.1847H158.119V48.5359V49.2179C158.119 49.7735 158.144 50.1566 158.194 50.3671C158.244 50.5776 158.345 50.7501 158.495 50.8848C158.812 51.1711 159.359 51.3142 160.136 51.3142H161.589V52.0467H160.249C158.971 52.0467 158.115 51.8825 157.681 51.5542C157.23 51.209 157.004 50.687 157.004 49.9882V44.8737L158.119 44.8863V46.4775H161.213ZM163.868 46.326V52.0467H162.803V46.326H163.868ZM163.956 44.4317H162.766V43.3583H163.956V44.4317ZM173.348 49.2684C173.348 49.8746 173.273 50.3629 173.122 50.7333C172.981 51.0953 172.755 51.3816 172.446 51.592C172.012 51.8951 170.976 52.0467 169.339 52.0467C167.694 52.0467 166.65 51.8951 166.207 51.592C165.898 51.3816 165.668 51.0995 165.518 50.7459C165.376 50.3923 165.305 49.8998 165.305 49.2684C165.305 48.6286 165.376 48.1318 165.518 47.7782C165.66 47.4246 165.89 47.1342 166.207 46.9069C166.466 46.7301 166.896 46.5912 167.497 46.4901C168.107 46.3807 168.721 46.326 169.339 46.326C169.965 46.326 170.575 46.3807 171.168 46.4901C171.761 46.5912 172.187 46.7301 172.446 46.9069C172.763 47.1342 172.993 47.4204 173.135 47.7656C173.277 48.1024 173.348 48.6033 173.348 49.2684ZM172.246 49.2684C172.246 48.3339 172.049 47.7446 171.657 47.5004C171.114 47.1721 170.341 47.0079 169.339 47.0079C168.32 47.0079 167.543 47.1721 167.009 47.5004C166.625 47.7361 166.432 48.3255 166.432 49.2684C166.432 50.1861 166.625 50.767 167.009 51.0111C167.426 51.2637 168.203 51.39 169.339 51.39C170.467 51.39 171.239 51.2637 171.657 51.0111C172.049 50.7754 172.246 50.1945 172.246 49.2684ZM176.169 47.7151C175.969 48.0182 175.869 48.5317 175.869 49.2558V52.0467H174.791V49.1547C174.791 48.7338 174.795 48.4349 174.804 48.2581C174.82 48.0813 174.875 47.8624 174.967 47.6014C175.059 47.3404 175.209 47.1131 175.418 46.9195C175.877 46.4733 176.967 46.2502 178.687 46.2502C180.4 46.2502 181.49 46.4733 181.957 46.9195C182.166 47.1131 182.316 47.3404 182.408 47.6014C182.5 47.8624 182.55 48.0813 182.559 48.2581C182.575 48.4349 182.584 48.7338 182.584 49.1547V52.0467H181.506V49.2558C181.506 48.5317 181.406 48.0182 181.206 47.7151C180.897 47.252 180.066 47.0205 178.713 47.0205C177.318 47.0205 176.47 47.252 176.169 47.7151ZM185.579 52.034H184.238V50.7459H185.579V52.034ZM201.312 51.6678C200.635 51.912 199.386 52.034 197.566 52.034C195.92 52.034 194.784 51.8699 194.158 51.5415C193.832 51.3732 193.598 51.1921 193.456 50.9985C193.323 50.7964 193.239 50.5691 193.206 50.3166H194.521C194.58 50.5776 194.734 50.8007 194.985 50.9859C195.377 51.289 196.238 51.4405 197.566 51.4405C198.401 51.4405 198.99 51.4237 199.332 51.39C200.092 51.3142 200.66 51.15 201.036 50.8975C201.362 50.6702 201.525 50.2534 201.525 49.6473V49.2684C201.525 49.1421 201.512 49.0158 201.487 48.8895C201.429 48.6286 201.307 48.4518 201.124 48.3591C200.831 48.216 200.309 48.1234 199.558 48.0813C199.274 48.0645 198.697 48.0561 197.829 48.0561C196.668 48.0224 196.046 48.0013 195.962 47.9929C195.077 47.9508 194.429 47.833 194.02 47.6393C193.327 47.3278 192.98 46.7301 192.98 45.8461C192.98 45.282 193.06 44.8526 193.218 44.558C193.385 44.2633 193.64 44.036 193.983 43.876C194.308 43.7077 194.839 43.5814 195.574 43.4972C196.317 43.4046 197.044 43.3583 197.754 43.3583C198.856 43.3583 199.733 43.4046 200.385 43.4972C201.036 43.5814 201.558 43.7624 201.951 44.0402C202.368 44.3265 202.602 44.6843 202.652 45.1136H201.387C201.337 44.8779 201.203 44.6758 200.986 44.5075C200.694 44.2886 200.167 44.1497 199.407 44.0907C198.981 44.0486 198.405 44.0276 197.678 44.0276C196.108 44.0276 195.127 44.196 194.734 44.5327C194.425 44.8021 194.271 45.2273 194.271 45.8082C194.271 46.1029 194.292 46.3344 194.333 46.5028C194.384 46.6711 194.488 46.8269 194.647 46.97C194.814 47.13 195.231 47.2436 195.899 47.311C196.576 47.3783 197.215 47.412 197.816 47.412C198.443 47.412 199.107 47.4288 199.808 47.4625C200.744 47.513 201.37 47.5804 201.687 47.6646C202.147 47.7909 202.439 47.9845 202.564 48.2455C202.698 48.4981 202.765 48.9274 202.765 49.5336C202.765 50.6196 202.28 51.3311 201.312 51.6678ZM205.306 46.326V52.0467H204.241V46.326H205.306ZM205.394 44.4317H204.204V43.3583H205.394V44.4317ZM220.161 49.1674V52.0467H219.083V49.0411C219.083 48.1992 218.862 47.6435 218.419 47.3741C218.002 47.1384 217.329 47.0205 216.402 47.0205C216.026 47.0205 215.642 47.0752 215.25 47.1847C214.857 47.2941 214.557 47.4625 214.348 47.6898C214.139 47.9003 214.035 48.5191 214.035 49.5462V52.0467H212.945V49.5462C212.945 49.5378 212.945 49.5041 212.945 49.4452C212.953 49.3863 212.957 49.3189 212.957 49.2431C212.957 49.1674 212.957 49.079 212.957 48.9779C212.957 48.8769 212.949 48.7717 212.932 48.6622C212.924 48.5528 212.911 48.4475 212.894 48.3465C212.878 48.2371 212.849 48.1318 212.807 48.0308C212.773 47.9214 212.732 47.8287 212.681 47.753C212.347 47.2647 211.654 47.0205 210.602 47.0205C209.616 47.0205 208.961 47.1173 208.635 47.311C208.142 47.572 207.896 48.1487 207.896 49.0411V52.0467H206.831V49.1674C206.831 48.4433 206.873 47.9171 206.956 47.5888C207.04 47.252 207.232 46.9742 207.532 46.7553C208.008 46.4101 208.961 46.2376 210.389 46.2376C211.575 46.2376 212.452 46.3975 213.02 46.7174C213.22 46.8353 213.383 46.9868 213.508 47.1721C213.709 46.9027 213.943 46.709 214.21 46.5912C214.719 46.3638 215.55 46.2502 216.703 46.2502C218.006 46.2502 218.9 46.4101 219.384 46.7301C219.66 46.9069 219.856 47.1889 219.973 47.5762C220.098 47.9635 220.161 48.4939 220.161 49.1674ZM222.59 55.9994L221.513 55.9868V48.5612C221.513 47.7277 221.743 47.1426 222.202 46.8058C222.636 46.4775 223.605 46.3133 225.109 46.3133C226.604 46.3133 227.71 46.4817 228.428 46.8185C229.113 47.1384 229.456 47.9803 229.456 49.3442C229.456 49.8241 229.376 50.2661 229.218 50.6702C229.067 51.0659 228.846 51.3563 228.554 51.5415C228.061 51.8783 227.134 52.0467 225.773 52.0467C225.313 52.0467 224.724 52.0383 224.006 52.0214L223.079 51.9835V51.3016L224.081 51.3395C224.866 51.3563 225.497 51.3647 225.973 51.3647C226.85 51.3647 227.468 51.2132 227.827 50.9101C228.153 50.6491 228.316 50.1356 228.316 49.3694C228.316 49.3526 228.316 49.2937 228.316 49.1926C228.316 49.0832 228.316 49.0116 228.316 48.9779C228.316 48.9443 228.312 48.8769 228.303 48.7759C228.303 48.6749 228.299 48.6033 228.291 48.5612C228.282 48.5107 228.27 48.4433 228.253 48.3591C228.245 48.2665 228.228 48.195 228.203 48.1445C228.186 48.0855 228.161 48.0182 228.128 47.9424C228.094 47.8666 228.057 47.8035 228.015 47.753C227.973 47.7025 227.923 47.652 227.865 47.6014C227.806 47.5509 227.744 47.5046 227.677 47.4625C227.184 47.1763 226.399 47.0332 225.322 47.0332C224.01 47.0332 223.217 47.2015 222.941 47.5383C222.899 47.5888 222.862 47.6477 222.828 47.7151C222.795 47.7824 222.766 47.8624 222.741 47.955C222.716 48.0392 222.695 48.1192 222.678 48.195C222.661 48.2623 222.645 48.3549 222.628 48.4728C222.62 48.5823 222.611 48.6707 222.603 48.738C222.603 48.8054 222.599 48.9064 222.59 49.0411C222.59 49.1674 222.59 49.2516 222.59 49.2937C222.59 49.3358 222.59 49.4242 222.59 49.5589C222.59 49.6851 222.59 49.7525 222.59 49.7609V55.9994ZM231.047 50.708V43.3583H232.175V50.6449C232.175 50.847 232.217 51.0069 232.3 51.1248C232.392 51.2511 232.547 51.3142 232.764 51.3142H233.14V52.0467H232.325C231.874 52.0467 231.561 51.9499 231.386 51.7562C231.16 51.5289 231.047 51.1795 231.047 50.708ZM235.391 46.326V52.0467H234.326V46.326H235.391ZM235.479 44.4317H234.289V43.3583H235.479V44.4317ZM241.175 44.1791L240.123 44.1917C239.697 44.1917 239.375 44.2212 239.158 44.2801C238.941 44.3307 238.749 44.4401 238.582 44.6085C238.456 44.7348 238.36 44.8737 238.294 45.0252C238.235 45.1684 238.202 45.2946 238.193 45.4041C238.185 45.5051 238.181 45.6609 238.181 45.8713V46.3512H240.787V47.1216H238.181L238.168 52.0467H237.116V46.3512V45.9724C237.116 44.9958 237.333 44.2801 237.767 43.8255C237.901 43.6824 238.11 43.5729 238.394 43.4972C238.686 43.4214 238.916 43.3835 239.083 43.3835C239.25 43.3751 239.513 43.3709 239.872 43.3709H240.724C240.924 43.3709 241.075 43.3667 241.175 43.3583V44.1791ZM243.637 46.326V52.0467H242.572V46.326H243.637ZM243.725 44.4317H242.535V43.3583H243.725V44.4317ZM246.74 49.3947V48.8011H251.463C251.722 48.8011 251.881 48.7759 251.939 48.7254C252.006 48.6749 252.023 48.5654 251.989 48.397C251.914 47.8414 251.613 47.4752 251.087 47.2984C250.536 47.1131 249.905 47.0205 249.195 47.0205C248.001 47.0205 247.187 47.1973 246.753 47.5509C246.418 47.8203 246.251 48.4391 246.251 49.4073C246.251 50.4092 246.577 51.0111 247.229 51.2132C247.646 51.3395 248.268 51.4026 249.095 51.4026C250.181 51.4026 250.903 51.3226 251.263 51.1627C251.505 51.0532 251.655 50.8638 251.714 50.5944H253.017C252.975 50.8975 252.883 51.1374 252.741 51.3142C252.599 51.4826 252.365 51.6383 252.039 51.7815C251.613 51.9583 250.636 52.0467 249.108 52.0467C247.771 52.0467 246.857 51.9541 246.364 51.7688C245.537 51.4489 245.124 50.6617 245.124 49.4073C245.124 48.6496 245.195 48.0982 245.337 47.753C245.487 47.4078 245.688 47.1384 245.938 46.9448C246.514 46.5238 247.617 46.3133 249.246 46.3133C249.872 46.3133 250.457 46.3638 251 46.4649C251.551 46.5659 251.952 46.7006 252.202 46.869C252.52 47.0795 252.741 47.3152 252.866 47.5762C252.992 47.8287 253.071 48.1276 253.104 48.4728C253.146 48.8011 253.146 49.0411 253.104 49.1926C253.071 49.3358 252.962 49.4073 252.779 49.4073L246.74 49.3947ZM261.201 43.3709H262.278V49.8367C262.278 50.6617 262.049 51.2469 261.589 51.592C261.163 51.8951 260.19 52.0467 258.67 52.0467C258.119 52.0467 257.693 52.0425 257.392 52.034C257.092 52.0256 256.733 51.9919 256.315 51.933C255.897 51.8657 255.551 51.7688 255.275 51.6426C254.59 51.3226 254.248 50.4723 254.248 49.0916C254.248 48.0224 254.54 47.2941 255.125 46.9069C255.751 46.4943 256.85 46.2881 258.42 46.2881C258.921 46.2881 259.389 46.3049 259.823 46.3386L260.712 46.3765V47.1216L259.873 47.071C259.355 47.0289 258.896 47.0079 258.495 47.0079C257.175 47.0079 256.298 47.1889 255.864 47.5509C255.538 47.8119 255.375 48.3171 255.375 49.0663C255.375 49.7904 255.446 50.2955 255.588 50.5818C255.697 50.7922 255.843 50.9522 256.027 51.0616C256.386 51.2721 257.15 51.3774 258.32 51.3774C258.378 51.3774 258.424 51.3774 258.457 51.3774C259.802 51.3774 260.6 51.2174 260.85 50.8975C260.892 50.847 260.93 50.788 260.963 50.7207C260.996 50.6533 261.026 50.5776 261.051 50.4934C261.076 50.4008 261.097 50.3166 261.113 50.2408C261.13 50.165 261.143 50.0682 261.151 49.9503C261.168 49.8325 261.176 49.7399 261.176 49.6725C261.184 49.6052 261.188 49.5041 261.188 49.3694C261.197 49.2347 261.201 49.1463 261.201 49.1042C261.201 49.0621 261.201 48.9779 261.201 48.8517C261.201 48.717 261.201 48.6454 261.201 48.637V43.3709ZM265.188 52.034H263.848V50.7459H265.188V52.034Z" fill="white" stroke="white" stroke-width="0.434276"/>
</svg>
