<svg width="24" height="24" viewBox="0 0 24 24" fill="none" xmlns="http://www.w3.org/2000/svg">
<path d="M1.5 12C1.5 14.7848 2.60625 17.4555 4.57538 19.4246C6.54451 21.3938 9.21523 22.5 12 22.5C14.7848 22.5 17.4555 21.3938 19.4246 19.4246C21.3938 17.4555 22.5 14.7848 22.5 12C22.5 9.21523 21.3938 6.54451 19.4246 4.57538C17.4555 2.60625 14.7848 1.5 12 1.5C9.21523 1.5 6.54451 2.60625 4.57538 4.57538C2.60625 6.54451 1.5 9.21523 1.5 12Z" stroke="white" stroke-width="1.5" stroke-linejoin="round"/>
<path d="M7.5 12C7.5 9.21523 7.97411 6.54451 8.81802 4.57538C9.66193 2.60625 10.8065 1.5 12 1.5C13.1935 1.5 14.3381 2.60625 15.182 4.57538C16.0259 6.54451 16.5 9.21523 16.5 12C16.5 14.7848 16.0259 17.4555 15.182 19.4246C14.3381 21.3938 13.1935 22.5 12 22.5C10.8065 22.5 9.66193 21.3938 8.81802 19.4246C7.97411 17.4555 7.5 14.7848 7.5 12Z" stroke="white" stroke-width="1.5" stroke-linejoin="round"/>
<path d="M2.25 15.5H21.75M2.25 8.5H21.75" stroke="white" stroke-width="1.5" stroke-linecap="round"/>
</svg>
