<svg width="28" height="28" viewBox="0 0 28 28" fill="none" xmlns="http://www.w3.org/2000/svg">
<path d="M12.4197 0.756935C12.6097 0.520646 12.8503 0.329989 13.1236 0.198994C13.397 0.0679994 13.6963 0 13.9994 0C14.3025 0 14.6017 0.0679994 14.8751 0.198994C15.1485 0.329989 15.389 0.520646 15.579 0.756935L17.4597 3.09779C17.6727 3.36327 17.9492 3.57082 18.2635 3.70131C18.5778 3.83181 18.9199 3.88104 19.2582 3.84447L22.2434 3.51967C22.5455 3.48608 22.8514 3.52092 23.1383 3.62162C23.4252 3.72232 23.6858 3.88629 23.9008 4.1014C24.1158 4.3165 24.2797 4.57723 24.3803 4.86429C24.481 5.15134 24.5158 5.45737 24.4822 5.75972L24.1576 8.74646C24.121 9.08497 24.1702 9.42724 24.3007 9.74172C24.4311 10.0562 24.6385 10.3328 24.9039 10.546L27.2435 12.4276C27.4796 12.6177 27.6702 12.8584 27.8011 13.1319C27.932 13.4054 28 13.7048 28 14.0081C28 14.3114 27.932 14.6108 27.8011 14.8843C27.6702 15.1578 27.4796 15.3985 27.2435 15.5886L24.8964 17.4615C24.6309 17.6748 24.4233 17.9516 24.2929 18.2663C24.1625 18.581 24.1134 18.9235 24.1501 19.2623L24.4747 22.249C24.5083 22.5513 24.4735 22.8574 24.3728 23.1444C24.2722 23.4315 24.1083 23.6922 23.8933 23.9073C23.6783 24.1224 23.4177 24.2864 23.1308 24.3871C22.8439 24.4878 22.5381 24.5226 22.2359 24.489L19.2507 24.1642C18.9124 24.1277 18.5703 24.1769 18.256 24.3074C17.9417 24.4379 17.6653 24.6454 17.4522 24.9109L15.579 27.2431C15.389 27.4794 15.1485 27.67 14.8751 27.801C14.6017 27.932 14.3025 28 13.9994 28C13.6963 28 13.397 27.932 13.1236 27.801C12.8503 27.67 12.6097 27.4794 12.4197 27.2431L10.5403 24.9035C10.3272 24.6378 10.0505 24.4301 9.73597 24.2996C9.42142 24.1691 9.07908 24.12 8.74055 24.1568L5.7554 24.4816C5.45307 24.5159 5.1469 24.4815 4.85966 24.3811C4.57243 24.2807 4.31153 24.1167 4.09637 23.9014C3.88122 23.6862 3.71736 23.4251 3.61697 23.1377C3.51658 22.8504 3.48225 22.544 3.51655 22.2415L3.84118 19.2548C3.87794 18.9161 3.82884 18.5736 3.69841 18.2588C3.56798 17.9441 3.36043 17.6673 3.09489 17.454L0.756531 15.5736C0.520368 15.3835 0.329813 15.1429 0.198888 14.8694C0.0679631 14.5958 0 14.2964 0 13.9932C0 13.6899 0.0679631 13.3905 0.198888 13.117C0.329813 12.8434 0.520368 12.6028 0.756531 12.4127L3.09489 10.531C3.36024 10.3178 3.56768 10.0413 3.6981 9.72679C3.82852 9.4123 3.87772 9.07003 3.84118 8.73152L3.51655 5.74478C3.48298 5.44244 3.5178 5.13641 3.61845 4.84936C3.71909 4.5623 3.88297 4.30157 4.09797 4.08646C4.31296 3.87136 4.57355 3.70739 4.86045 3.60669C5.14735 3.50599 5.45322 3.47115 5.7554 3.50473L8.74055 3.82954C9.07908 3.86632 9.42142 3.81719 9.73597 3.68669C10.0505 3.5562 10.3272 3.34853 10.5403 3.08286L12.4197 0.756935Z" fill="#08CD05"/>
<path d="M17.5 11L13.519 16.308C13.4545 16.3939 13.3723 16.4649 13.278 16.5163C13.1836 16.5677 13.0794 16.5982 12.9722 16.6058C12.8651 16.6133 12.7576 16.5978 12.657 16.5603C12.5563 16.5227 12.465 16.4639 12.389 16.388L10 14" fill="#08CD05"/>
<path d="M17.5 11L13.519 16.308C13.4545 16.3939 13.3723 16.4649 13.278 16.5163C13.1836 16.5677 13.0794 16.5982 12.9722 16.6058C12.8651 16.6133 12.7576 16.5978 12.657 16.5603C12.5563 16.5227 12.465 16.4639 12.389 16.388L10 14" stroke="white" stroke-width="1.5" stroke-linecap="round" stroke-linejoin="round"/>
</svg>
