<svg width="721" height="155" viewBox="0 0 721 155" fill="none" xmlns="http://www.w3.org/2000/svg">
<path fill-rule="evenodd" clip-rule="evenodd" d="M79.9925 2.22322C67.4788 -3.44656 52.7375 2.1021 47.0677 14.6158L2.22301 113.592C-3.44644 126.106 2.10199 140.846 14.6156 146.516C27.1293 152.186 41.8697 146.637 47.5394 134.124L86.6947 47.7047C88.6339 43.4253 94.2986 42.488 97.5131 45.9146C99.3392 47.8616 99.8119 50.7175 98.7103 53.149L69.4222 117.791C63.7527 130.304 69.3012 145.045 81.8148 150.714C94.3283 156.384 109.069 150.836 114.739 138.323L149.847 60.8363C152.109 55.8427 158.197 53.9059 162.929 56.674C167.014 59.0634 168.633 64.1528 166.68 68.4633L143.514 119.592C137.844 132.106 143.393 146.847 155.907 152.517C168.42 158.187 183.161 152.638 188.83 140.125L216.55 78.9439C222.22 66.4303 216.672 51.6899 204.159 46.0201C196.712 42.6462 188.478 43.2453 181.835 46.9203C177.072 49.5557 171.154 50.9191 166.455 48.1703L165.361 47.5306C161.1 45.0377 159.41 39.7282 161.448 35.231C167.117 22.7174 161.57 7.97609 149.056 2.30623C136.542 -3.36349 121.801 2.18513 116.131 14.6988L109.987 28.2613C107.652 33.4136 100.832 34.5419 96.9623 30.4166C95.3643 28.7132 94.6705 26.3885 94.5912 24.0543C94.28 14.8974 88.9031 6.26062 79.9925 2.22322Z" fill="#7958FF"/>
<path d="M324.582 126.827H310.398V60.7195C310.398 55.6639 308.529 51.3227 304.79 47.6958C301.162 43.9591 296.763 42.0907 291.595 42.0907C286.537 42.0907 282.139 43.9591 278.401 47.6958C274.772 51.3227 272.958 55.6639 272.958 60.7195V126.827H258.773V60.7195C258.773 51.7074 261.962 44.0141 268.34 37.6396C274.827 31.1553 282.579 27.9131 291.595 27.9131C296.763 27.9131 301.601 29.0671 306.11 31.3751C310.618 33.5732 314.411 36.5955 317.49 40.4422C320.569 36.5955 324.362 33.5732 328.871 31.3751C333.379 29.0671 338.162 27.9131 343.22 27.9131C352.236 27.9131 359.988 31.1553 366.476 37.6396C372.963 44.0141 376.207 51.7074 376.207 60.7195V126.827H362.022V60.7195C362.022 55.6639 360.154 51.3227 356.415 47.6958C352.786 43.9591 348.388 42.0907 343.22 42.0907C338.052 42.0907 333.654 43.9591 330.025 47.6958C326.397 51.3227 324.582 55.6639 324.582 60.7195V126.827ZM395.199 27.9131H409.383V126.827H395.199V27.9131ZM428.379 84.4588H435.471H442.563H465.16C470.987 84.4588 475.935 82.3706 480.004 78.1943C484.182 74.0179 486.271 69.0173 486.271 63.1924C486.271 57.3675 484.182 52.4218 480.004 48.3553C475.935 44.1789 470.987 42.0907 465.16 42.0907H442.563V56.1035H428.379V42.0907V27.9131H435.471H442.563H465.16C474.836 27.9131 483.137 31.3751 490.065 38.299C496.992 45.223 500.455 53.5208 500.455 63.1924C500.455 69.8965 498.696 76.1061 495.178 81.8211C491.659 87.4263 486.986 91.7125 481.158 94.6799C481.268 94.6799 481.323 94.6799 481.323 94.6799L488.085 106.22L500.455 126.827H483.962L469.118 101.934C467.689 99.6256 465.655 98.4716 463.016 98.4716H450.48H442.563H428.379V84.4588ZM519.383 40.9367V27.9131H533.568V40.9367C533.568 49.0696 536.426 55.9936 542.144 61.7086C547.862 67.4237 554.734 70.2812 562.76 70.2812C570.898 70.2812 577.825 67.4237 583.542 61.7086C589.26 55.9936 592.12 49.0696 592.12 40.9367V27.9131H606.303V40.9367C606.303 51.5975 602.84 60.9943 595.912 69.1272C588.986 77.2601 580.299 82.1509 569.853 83.7994V126.827H555.834V83.7994C545.388 82.1509 536.702 77.2601 529.774 69.1272C522.846 60.9943 519.383 51.5975 519.383 40.9367Z" fill="white"/>
<path d="M662.81 84.4588C665.779 84.4588 668.308 85.5029 670.397 87.5911C672.486 89.6792 673.531 92.2071 673.531 95.1745C673.531 98.032 672.486 100.505 670.397 102.593C668.308 104.681 665.779 105.725 662.81 105.725C659.951 105.725 657.477 104.681 655.388 102.593C653.299 100.505 652.254 98.032 652.254 95.1745C652.254 92.2071 653.299 89.6792 655.388 87.5911C657.477 85.5029 659.951 84.4588 662.81 84.4588Z" fill="white"/>
<path d="M605.248 126.827H620.422L650.275 50.6633C651.375 47.9157 653.024 45.8274 655.223 44.3988C657.422 42.8601 659.951 42.0907 662.81 42.0907C665.779 42.0907 668.363 42.8601 670.562 44.3988C672.761 45.8274 674.356 47.9157 675.345 50.6633L705.198 126.827H720.372L688.54 45.3879C686.45 40.0026 683.097 35.7712 678.479 32.6939C673.861 29.5067 668.638 27.9131 662.81 27.9131C657.092 27.9131 651.924 29.5067 647.306 32.6939C642.688 35.7712 639.279 40.0026 637.081 45.3879L605.248 126.827Z" fill="white"/>
</svg>
