<svg width="56" height="56" viewBox="0 0 56 56" fill="none" xmlns="http://www.w3.org/2000/svg">
<path d="M35.5879 24.9409C33.2849 22.1876 32.1346 20.8109 30.8092 21.0209C29.4862 21.2332 28.8679 22.8946 27.6312 26.2172L27.3092 27.0759C26.9592 28.0209 26.7819 28.4922 26.4389 28.8399C26.0982 29.1876 25.6269 29.3719 24.6889 29.7406L23.8326 30.0742C20.5262 31.3692 18.8719 32.0179 18.6829 33.3409C18.4939 34.6639 19.8962 35.7886 22.6986 38.0332L23.4219 38.6166C24.2199 39.2536 24.6189 39.5732 24.8476 40.0096C25.0809 40.4459 25.1159 40.9522 25.1882 41.9626L25.2559 42.8819C25.5126 46.4356 25.6432 48.2136 26.8496 48.8202C28.0559 49.4269 29.5422 48.4586 32.5126 46.5266L33.2802 46.0249C34.1249 45.4766 34.5472 45.2012 35.0302 45.1219C35.5156 45.0449 36.0102 45.1732 36.9926 45.4299L37.8909 45.6632C41.3559 46.5639 43.0896 47.0166 44.0252 46.0669C44.9609 45.1172 44.4756 43.3976 43.5096 39.9536L43.2576 39.0669C42.9846 38.0869 42.8469 37.5969 42.9146 37.1139C42.9846 36.6286 43.2529 36.2039 43.7872 35.3499L44.2772 34.5752C46.1602 31.5769 47.1006 30.0789 46.4706 28.8866C45.8429 27.6942 44.0602 27.5962 40.4926 27.4049L39.5686 27.3536C38.5559 27.2999 38.0472 27.2719 37.6062 27.0502C37.1629 26.8286 36.8362 26.4366 36.1829 25.6526L35.5879 24.9409Z" fill="#7958FF"/>
<path d="M34.7148 12.056L35.1418 13.274C35.6108 14.611 35.8464 15.2807 36.3014 15.7707C36.7588 16.2653 37.3841 16.5267 38.6371 17.047L39.7781 17.523C44.1881 19.357 46.3931 20.2763 46.6428 22.15C46.7478 22.9293 46.4864 23.662 45.8728 24.4787C45.6768 24.4256 45.4791 24.3789 45.2801 24.3387C44.0528 24.089 42.4918 24.005 40.9004 23.9187L39.7571 23.858L39.2204 23.8277L38.8681 23.4077L38.1308 22.528C37.1041 21.296 36.1008 20.0943 35.1628 19.259C34.1664 18.3677 32.5004 17.2057 30.2558 17.565C27.9878 17.929 26.7791 19.5787 26.1258 20.7547C25.5214 21.8467 24.9778 23.3073 24.4271 24.7843L24.0304 25.853L23.8624 26.3033C23.738 26.35 23.5879 26.4091 23.4121 26.4807L22.3481 26.896C20.8781 27.4723 19.4244 28.0393 18.3418 28.6623C17.1798 29.332 15.5418 30.5687 15.2174 32.846C14.8978 35.1023 16.0994 36.7497 17.0071 37.7273C17.6838 38.453 18.5961 39.2207 19.5691 40.0093C15.9081 41.001 13.9621 41.372 12.8561 40.1773C11.6101 38.8333 12.2541 36.3973 13.5444 31.5207L13.8758 30.2607C14.2421 28.8723 14.4264 28.1817 14.3354 27.4933C14.2421 26.8073 13.8851 26.203 13.1711 24.9967L12.5224 23.9C10.0094 19.651 8.75409 17.5277 9.58942 15.836C10.4294 14.1467 12.8071 14.009 17.5648 13.736L18.7944 13.666C20.1478 13.5867 20.8221 13.5493 21.4124 13.2343C22.0004 12.9193 22.4368 12.3663 23.3094 11.2557L24.1028 10.2477C27.1734 6.344 28.7088 4.39333 30.4728 4.69433C32.2368 4.99533 33.0628 7.34733 34.7124 12.0537" fill="white" fill-opacity="0.9"/>
</svg>
