<svg width="47" height="42" viewBox="0 0 47 42" fill="none" xmlns="http://www.w3.org/2000/svg">
<path d="M23.3353 0C21.3241 0 19.3952 0.798956 17.9731 2.22111C16.5509 3.64326 15.752 5.57211 15.752 7.58333C15.752 9.59456 16.5509 11.5234 17.9731 12.9456C19.3952 14.3677 21.3241 15.1667 23.3353 15.1667C25.3465 15.1667 27.2754 14.3677 28.6975 12.9456C30.1197 11.5234 30.9186 9.59456 30.9186 7.58333C30.9186 5.57211 30.1197 3.64326 28.6975 2.22111C27.2754 0.798956 25.3465 0 23.3353 0Z" fill="#7958FF"/>
<path d="M7.00195 4.66699C5.14544 4.66699 3.36496 5.40449 2.05221 6.71724C0.739451 8.03 0.00195313 9.81048 0.00195312 11.667C0.00195313 13.5235 0.739451 15.304 2.05221 16.6167C3.36496 17.9295 5.14544 18.667 7.00195 18.667C8.85847 18.667 10.6389 17.9295 11.9517 16.6167C13.2645 15.304 14.002 13.5235 14.002 11.667C14.002 9.81048 13.2645 8.03 11.9517 6.71724C10.6389 5.40449 8.85847 4.66699 7.00195 4.66699Z" fill="white" fill-opacity="0.9"/>
<path d="M39.668 4.66699C37.8115 4.66699 36.031 5.40449 34.7182 6.71724C33.4055 8.03 32.668 9.81048 32.668 11.667C32.668 13.5235 33.4055 15.304 34.7182 16.6167C36.031 17.9295 37.8115 18.667 39.668 18.667C41.5245 18.667 43.305 17.9295 44.6177 16.6167C45.9305 15.304 46.668 13.5235 46.668 11.667C46.668 9.81048 45.9305 8.03 44.6177 6.71724C43.305 5.40449 41.5245 4.66699 39.668 4.66699Z" fill="white" fill-opacity="0.9"/>
<path d="M31.2442 19.6976C30.1984 19.4175 29.0842 19.5642 28.1465 20.1055C27.2088 20.6467 26.5244 21.5382 26.2439 22.584L24.5826 28.7813C23.8616 31.4714 24.2388 34.3377 25.6312 36.7497C27.0236 39.1616 29.3172 40.9217 32.0072 41.6426C34.6973 42.3636 37.5636 41.9864 39.9756 40.594C42.3876 39.2016 44.1476 36.9081 44.8686 34.218L46.5276 28.0183C46.8077 26.9725 46.661 25.8582 46.1197 24.9205C45.5785 23.9828 44.687 23.2985 43.6412 23.018L31.2442 19.6976Z" fill="white" fill-opacity="0.9"/>
<path d="M15.4245 19.698C16.47 19.4186 17.5837 19.5657 18.5209 20.1069C19.458 20.6481 20.142 21.5392 20.4225 22.5844L22.0839 28.7817C22.7861 31.4653 22.3979 34.3178 21.004 36.7161C19.61 39.1144 17.3237 40.8637 14.6443 41.5819C11.9649 42.3 9.11016 41.9287 6.70361 40.5491C4.29706 39.1694 2.53425 36.8935 1.8002 34.2184L0.138871 28.0187C0.000213136 27.5007 -0.0350587 26.9605 0.0350695 26.4288C0.105198 25.8972 0.279353 25.3846 0.547591 24.9203C0.815829 24.4559 1.1729 24.049 1.59841 23.7227C2.02392 23.3963 2.50954 23.157 3.02754 23.0184L15.4245 19.698Z" fill="white" fill-opacity="0.9"/>
<path d="M16.9173 18.667C15.8344 18.667 14.7957 19.0972 14.03 19.863C13.2642 20.6287 12.834 21.6674 12.834 22.7503V31.5003C12.834 34.2851 13.9402 36.9558 15.9094 38.9249C17.8785 40.8941 20.5492 42.0003 23.334 42.0003C26.1188 42.0003 28.7895 40.8941 30.7586 38.9249C32.7277 36.9558 33.834 34.2851 33.834 31.5003V22.7503C33.834 21.6674 33.4038 20.6287 32.638 19.863C31.8722 19.0972 30.8336 18.667 29.7507 18.667H16.9173Z" fill="#7958FF"/>
</svg>
