<svg width="52" height="51" viewBox="0 0 52 51" fill="none" xmlns="http://www.w3.org/2000/svg">
<path d="M20.2813 34.4375C16.3693 34.4375 12.6176 32.9098 9.85143 30.1905C7.08526 27.4713 5.53125 23.7831 5.53125 19.9375C5.53125 16.0919 7.08526 12.4037 9.85143 9.68445C12.6176 6.96517 16.3693 5.4375 20.2813 5.4375C24.1932 5.4375 27.9449 6.96517 30.7111 9.68445C33.4772 12.4037 35.0312 16.0919 35.0312 19.9375C35.0312 23.7831 33.4772 27.4713 30.7111 30.1905C27.9449 32.9098 24.1932 34.4375 20.2813 34.4375ZM12.4084 16.7004C13.7304 17.4507 15.6295 16.6551 16.6472 14.9205C17.665 13.1859 17.4179 11.1722 16.0959 10.4219C14.7721 9.6715 12.8749 10.4672 11.8553 12.2018C10.8394 13.9363 11.0846 15.95 12.4084 16.7004Z" fill="white" fill-opacity="0.9"/>
<path d="M20.2822 39.875C9.08143 39.875 0.000961304 30.9484 0.000961304 19.9375C0.000961304 8.92656 9.08143 0 20.2822 0C31.483 0 40.5635 8.92656 40.5635 19.9375C40.5635 24.1552 39.2323 28.0666 36.9589 31.2892C38.0917 31.0454 39.2687 31.0856 40.3816 31.4062C41.4944 31.7267 42.5074 32.3172 43.3272 33.1234L49.1941 38.8908C50.4906 40.1656 51.2189 41.8946 51.2187 43.6973C51.2186 45.5 50.4899 47.2288 49.1931 48.5034C47.8963 49.778 46.1376 50.494 44.3038 50.4938C42.47 50.4936 40.7114 49.7773 39.4148 48.5025L33.548 42.7351C32.7215 41.9226 32.118 40.9174 31.794 39.8134C31.4699 38.7094 31.4359 37.5426 31.695 36.4222C28.3314 38.6784 24.3524 39.882 20.2804 39.875M20.2804 36.25C22.4595 36.25 24.6173 35.8281 26.6305 35.0083C28.6438 34.1885 30.473 32.9869 32.0139 31.4722C33.5548 29.9574 34.7771 28.1591 35.611 26.18C36.4449 24.2009 36.8741 22.0797 36.8741 19.9375C36.8741 17.7953 36.4449 15.6741 35.611 13.695C34.7771 11.7159 33.5548 9.91758 32.0139 8.40282C30.473 6.88806 28.6438 5.6865 26.6305 4.86672C24.6173 4.04694 22.4595 3.625 20.2804 3.625C15.8794 3.625 11.6587 5.34363 8.54681 8.40282C5.43488 11.462 3.68661 15.6112 3.68661 19.9375C3.68661 24.2638 5.43488 28.413 8.54681 31.4722C11.6587 34.5314 15.8794 36.25 20.2804 36.25Z" fill="#7958FF"/>
</svg>
