<svg width="72" height="57" viewBox="0 0 72 57" fill="none" xmlns="http://www.w3.org/2000/svg">
<path d="M18.2695 1.14676C26.2476 1.78012 32.2026 8.7621 31.5692 16.7402C31.3755 19.1805 30.5875 21.4307 29.3597 23.3612L48.6332 45.9587L42.136 51.5003L22.8624 28.9028C20.6945 29.8396 18.3298 30.2301 15.9758 30.04C7.99763 29.4066 2.04266 22.4247 2.67602 14.4465C2.86975 12.0062 3.65654 9.756 4.88558 7.82556L13.3198 17.7144L19.8171 12.1729L11.3829 2.284C13.5508 1.34715 15.9155 0.956648 18.2695 1.14676Z" fill="white" fill-opacity="0.9" stroke="white" stroke-opacity="0.9" stroke-linecap="round" stroke-linejoin="round"/>
<path d="M46.2078 28.8205L40.4291 22.2999C40.3107 22.1659 40.1671 22.0565 40.0064 21.9781C39.8457 21.8997 39.6711 21.8538 39.4926 21.843C39.3141 21.8322 39.1352 21.8568 38.9663 21.9153C38.7973 21.9738 38.6415 22.0651 38.5079 22.1839L13.3736 43.1817C13.2342 43.2981 13.1196 43.4412 13.0364 43.6026C12.9533 43.764 12.9034 43.9405 12.8896 44.1215C12.8758 44.3025 12.8984 44.4845 12.9562 44.6566C13.0139 44.8288 13.1055 44.9876 13.2257 45.1237L20.2377 53.0651C20.3581 53.2014 20.5046 53.3121 20.6685 53.3908C20.8325 53.4694 21.0105 53.5143 21.1922 53.5228C21.3738 53.5314 21.5553 53.5034 21.7259 53.4405C21.8965 53.3776 22.0527 53.2811 22.1854 53.1567L46.0896 30.7405C46.2236 30.6223 46.333 30.4788 46.4115 30.3183C46.49 30.1578 46.536 29.9833 46.547 29.805C46.558 29.6267 46.5337 29.4479 46.4755 29.279C46.4173 29.11 46.3263 28.9542 46.2078 28.8205ZM69.7742 23.7141L65.1116 18.4894C64.8984 18.2496 64.6398 18.0544 64.3507 17.915C64.0617 17.7757 63.7479 17.695 63.4275 17.6776C62.9085 17.6468 62.393 17.78 61.9538 18.0582C61.9567 18.0096 61.9664 17.9625 61.9723 17.9209C62.0675 17.1894 62.2136 16.0844 61.5568 15.0352C60.773 13.8337 59.9018 12.6915 58.9502 11.6179C58.9477 11.6145 58.9449 11.6113 58.9417 11.6083C57.526 10.0347 54.4184 7.0442 49.5231 4.69436C47.666 3.79876 45.6515 3.27518 43.5933 3.15313C40.0266 2.93768 37.2171 4.38315 36.1209 5.27424C35.0418 6.14569 34.2951 7.36167 34.0062 8.71827L35.7473 9.93842C35.7473 9.93842 36.6718 9.76742 37.3368 9.64992C38.0304 9.54518 38.7357 9.54383 39.4297 9.64591C40.9129 9.85914 42.6312 10.7059 43.3738 11.3689C44.6318 12.5122 45.1815 13.9837 45.1569 16.1373C45.1506 16.6167 43.9353 18.4851 42.1545 20.4748C42.0064 20.6402 41.9242 20.8543 41.9236 21.0763C41.9229 21.2983 42.0038 21.5129 42.151 21.6792L46.9687 27.1163C47.1231 27.289 47.3379 27.396 47.5688 27.4153C47.7997 27.4345 48.0292 27.3645 48.2101 27.2196C49.6493 26.0589 51.847 24.2634 52.3371 23.9992C53.2385 23.5172 53.8662 23.4519 54.038 23.4441C54.4834 23.4276 54.9232 23.5484 55.2977 23.7902C55.2984 23.8096 55.2951 23.829 55.288 23.8472C55.2808 23.8653 55.27 23.8817 55.2561 23.8954L55.0386 24.0785L55.0028 24.1081C54.7619 24.3208 54.5654 24.5791 54.4247 24.868C54.284 25.157 54.2018 25.4709 54.183 25.7918C54.1641 26.1126 54.2089 26.434 54.3148 26.7375C54.4207 27.0409 54.5856 27.3204 54.8 27.5599L59.4687 32.7963C59.628 32.9749 59.8514 33.0833 60.0902 33.0977C60.3291 33.1122 60.564 33.0315 60.7435 32.8733L69.6899 24.9976C69.7801 24.9191 69.8539 24.8236 69.9071 24.7164C69.9602 24.6093 69.9916 24.4927 69.9994 24.3734C70.0073 24.2541 69.9914 24.1344 69.9527 24.0213C69.9141 23.9081 69.8534 23.8037 69.7742 23.7141Z" fill="#7958FF"/>
</svg>
