<svg width="56" height="56" viewBox="0 0 56 56" fill="none" xmlns="http://www.w3.org/2000/svg">
<path d="M52.2415 4.18479C52.2215 4.08805 52.1744 3.99902 52.1056 3.92812C52.0369 3.85722 51.9493 3.80739 51.8532 3.78448C45.4471 2.21823 30.6454 7.79963 22.626 15.8157C21.1957 17.2345 19.8918 18.7752 18.729 20.4204C16.256 20.2017 13.7831 20.3843 11.6754 21.3031C5.72869 23.9204 3.99728 30.7498 3.51494 33.6876C3.48758 33.8484 3.4979 34.0134 3.54509 34.1695C3.59227 34.3256 3.67504 34.4687 3.78688 34.5874C3.89872 34.7061 4.03658 34.7973 4.18962 34.8537C4.34266 34.9102 4.5067 34.9303 4.66884 34.9126L14.2184 33.8593C14.2252 34.5793 14.2686 35.2984 14.3485 36.014C14.3966 36.5109 14.6172 36.9753 14.972 37.3265L18.6699 41.0157C19.0215 41.37 19.4857 41.5905 19.9824 41.6392C20.694 41.7187 21.4091 41.7621 22.1251 41.7693L21.0773 51.3068C21.0598 51.4689 21.0801 51.6329 21.1366 51.7858C21.1931 51.9387 21.2843 52.0765 21.403 52.1883C21.5216 52.3 21.6646 52.3828 21.8206 52.4301C21.9767 52.4774 22.1415 52.4879 22.3023 52.4607C25.2346 51.9904 32.076 50.259 34.6781 44.3123C35.5968 42.2046 35.7849 39.7437 35.5728 37.2828C37.2219 36.1199 38.7667 34.8156 40.1895 33.3846C48.234 25.3806 53.7837 10.9092 52.2415 4.18479ZM32.1635 23.8362C31.429 23.1021 30.9286 22.1667 30.7258 21.1482C30.5229 20.1297 30.6267 19.0739 31.0239 18.1144C31.4212 17.1549 32.0941 16.3347 32.9575 15.7577C33.821 15.1807 34.8361 14.8727 35.8746 14.8727C36.9131 14.8727 37.9283 15.1807 38.7917 15.7577C39.6552 16.3347 40.3281 17.1549 40.7253 18.1144C41.1226 19.0739 41.2263 20.1297 41.0235 21.1482C40.8206 22.1667 40.3203 23.1021 39.5857 23.8362C39.0986 24.324 38.5201 24.711 37.8834 24.975C37.2466 25.239 36.564 25.3749 35.8746 25.3749C35.1853 25.3749 34.5027 25.239 33.8659 24.975C33.2291 24.711 32.6506 24.324 32.1635 23.8362Z" fill="#7958FF"/>
<path d="M18.4187 43.6877C17.8194 44.2881 16.858 44.5222 15.7008 44.7223C13.1009 45.1653 10.8052 42.9188 11.2722 40.2905C11.4505 39.2941 11.9777 37.8973 12.3058 37.5692C12.3775 37.4989 12.4252 37.4077 12.4422 37.3087C12.4592 37.2097 12.4445 37.1079 12.4003 37.0177C12.3561 36.9275 12.2847 36.8535 12.196 36.8062C12.1074 36.7589 12.0061 36.7408 11.9066 36.7544C10.4527 36.9323 9.10015 37.5914 8.06422 38.6269C5.49281 41.2005 5.25 50.75 5.25 50.75C5.25 50.75 14.805 50.5072 17.3764 47.9336C18.415 46.8985 19.075 45.5439 19.25 44.088C19.2905 43.6308 18.7337 43.3584 18.4187 43.6877Z" fill="white"/>
</svg>
