<svg width="56" height="56" viewBox="0 0 56 56" fill="none" xmlns="http://www.w3.org/2000/svg">
<path d="M6.56467 36.0885L3.60912 48.8441C3.50716 49.3104 3.51066 49.7935 3.61935 50.2583C3.72804 50.7231 3.93918 51.1577 4.23735 51.5304C4.53552 51.9031 4.91318 52.2045 5.34275 52.4125C5.77232 52.6206 6.24294 52.7301 6.72023 52.733C6.94254 52.757 7.1668 52.757 7.38912 52.733L20.2225 49.7774L44.8624 25.2307L31.1113 11.5107L6.56467 36.0885Z" fill="white" fill-opacity="0.9"/>
<path d="M52.6093 12.9423L43.4316 3.76451C42.8282 3.16416 42.0116 2.82715 41.1604 2.82715C40.3093 2.82715 39.4927 3.16416 38.8893 3.76451L33.7871 8.86673L47.5227 22.6023L52.6249 17.5001C52.9235 17.2 53.16 16.8439 53.3208 16.4523C53.4816 16.0607 53.5637 15.6413 53.5622 15.2179C53.5608 14.7946 53.4759 14.3757 53.3124 13.9852C53.1489 13.5947 52.91 13.2403 52.6093 12.9423Z" fill="#7958FF"/>
</svg>
