<svg width="151" height="40" viewBox="0 0 151 40" fill="none" xmlns="http://www.w3.org/2000/svg">
<mask id="mask0_524_9134" style="mask-type:luminance" maskUnits="userSpaceOnUse" x="29" y="0" width="92" height="40">
<path d="M29.3984 0H120.972V40H29.3984V0Z" fill="white"/>
</mask>
<g mask="url(#mask0_524_9134)">
<path d="M112.943 18.9409C113.486 17.9389 113.988 17.0609 114.447 16.3929C114.823 15.8499 115.157 15.7669 115.45 16.1429C116.076 16.8949 116.41 18.6909 115.408 20.7789C114.489 22.6589 112.4 25.7919 111.398 28.0049C110.354 30.3449 110.312 32.1409 111.732 32.0569C113.445 31.9729 115.742 29.1329 117.204 26.2509C117.413 25.8749 117.705 25.8329 117.872 26.2089C118.039 26.5849 118.039 27.6289 117.496 28.7989C116.41 31.0959 113.779 33.3939 111.482 33.2689C109.226 33.1429 108.056 31.8059 108.056 29.8429C106.72 31.5559 104.84 33.1009 102.835 33.1009C98.9507 33.1009 98.1567 27.7969 101.624 22.7419C105.007 17.8139 108.307 15.9339 110.396 15.9339C112.192 15.9339 113.027 17.3119 112.943 18.9409ZM109.31 25.4159C111.941 20.8209 112.317 18.2309 111.106 18.1059C109.769 17.9809 106.72 20.6959 104.422 24.4129C102.209 28.0049 101.666 31.6809 103.295 31.7229C105.007 31.7649 107.179 29.0909 109.31 25.4159ZM88.3017 29.1329C86.8397 31.0959 84.6257 33.2269 82.2867 33.0589C79.3207 32.8499 79.2367 29.7589 80.1567 27.0029C81.0757 24.2459 83.2057 20.1529 85.9207 16.3519C86.2547 15.8919 86.6727 15.9339 87.0067 16.3099C87.9257 17.6879 87.7167 19.5679 86.2127 21.9489C84.6677 24.4129 83.8327 26.0839 82.9547 28.0889C82.0777 30.1359 82.2027 31.6389 83.1637 31.7229C84.7927 31.8479 87.0897 28.9239 89.3457 25.2899C91.9767 21.0299 93.1887 18.1479 94.5257 16.3519C94.9427 15.7669 95.2357 15.6829 95.5697 16.1009C96.1957 16.8529 96.5297 18.6909 95.5277 20.7789C94.6077 22.6589 92.5197 25.7909 91.5597 27.9219C90.4737 30.3019 90.6397 32.0569 92.1437 31.9729C93.8987 31.8899 96.0287 29.1329 97.6577 26.2089C97.8667 25.8329 98.2427 25.7909 98.4097 26.1669C98.5767 26.5009 98.6187 27.6289 98.0337 28.7989C96.8227 31.1379 94.2327 33.2689 91.7677 33.2689C89.0527 33.2689 87.9677 31.5559 88.3017 29.1329ZM68.4817 20.2369C70.3617 18.2319 73.2017 15.9339 74.5807 16.1429C75.9587 16.3529 77.2537 18.3989 76.2097 20.5709C75.3317 22.4089 73.2857 25.4999 72.3247 27.6709C71.2387 30.0939 71.4897 32.0569 72.9927 31.9739C74.7057 31.8899 76.7527 29.1339 78.3397 26.2099C78.5487 25.8339 78.8407 25.8339 79.0497 26.1679C79.3417 26.6279 79.2587 27.5879 78.6737 28.7989C77.5457 31.1389 74.9137 33.2689 72.4917 33.2689C68.9417 33.2689 68.1057 30.6789 69.3167 27.0449C70.6957 22.9519 74.3717 18.5249 73.6197 18.1899C73.2017 18.0229 70.7797 19.1919 68.1057 22.1159C65.6417 24.7899 63.8037 28.7989 62.0077 32.7259C61.8407 33.1019 61.5897 33.2689 61.2137 32.8929C60.3787 32.0569 60.1277 30.6789 60.7967 28.5909C61.6317 25.9589 64.8477 20.1529 67.4797 16.2689C67.7717 15.8089 68.1057 15.8509 68.3567 16.2689C68.9827 17.3129 68.9417 18.7329 68.4817 20.2369ZM60.6737 13.3429C61.2167 14.4289 60.9237 15.5569 60.3807 16.1419C59.8377 16.7269 58.6687 16.6019 58.0417 15.5149C57.3737 14.3879 57.5817 13.1349 58.2517 12.4249C58.9187 11.7149 60.1307 12.2149 60.6737 13.3429ZM53.8647 33.1429C50.6907 33.1429 49.8967 30.4689 51.0667 27.0429C52.1107 23.9949 54.8667 19.0659 56.4127 16.8929C56.7887 16.3929 57.0817 16.2669 57.4157 16.6429C58.0417 17.3109 58.3757 19.1079 57.3737 21.1959C56.4967 23.0339 54.7417 25.8739 53.8647 27.9629C52.8627 30.3849 52.9457 32.0139 54.2827 31.9309C56.1627 31.8469 58.4597 29.0909 59.7127 26.2079C59.9217 25.8329 60.2137 25.8739 60.3807 26.2079C60.7147 26.8769 60.5907 27.7539 60.0887 28.7979C58.8357 31.3879 56.2037 33.1419 53.8647 33.1419V33.1429ZM38.0097 23.7439C36.5477 26.5439 35.0857 29.6759 33.7067 32.8919C33.5397 33.2679 33.2897 33.3519 33.0387 33.0169C32.4127 32.1399 32.0787 30.9289 32.8297 28.4229C33.8737 24.8729 41.0587 10.7129 43.6067 7.16191C43.9827 6.66091 44.2747 6.7019 44.6087 7.2459C45.1517 8.2059 45.3607 10.2109 43.6487 13.3439C42.5627 15.3069 41.1837 17.7719 39.6807 20.5699C45.1507 16.4769 50.9997 11.2549 54.9677 6.95291C55.2607 6.61891 55.5947 6.66091 55.7617 7.03691C56.0117 7.95591 55.9707 9.37591 54.4667 11.4219C52.5867 13.9699 46.9067 19.0659 41.2667 23.0339C42.6037 25.1639 43.7317 27.0859 44.2327 28.2559C45.2357 30.6359 44.8597 32.0989 44.2327 32.8919C43.9827 33.1839 43.6897 33.1839 43.4807 32.8079C41.8937 29.7179 40.0557 26.7099 38.0097 23.7439Z" fill="white"/>
</g>
</svg>
