<svg width="150" height="40" viewBox="0 0 150 40" fill="none" xmlns="http://www.w3.org/2000/svg">
<path d="M42.9102 14.08C42.3491 12.7972 41.6065 11.6016 40.7052 10.53C39.3724 8.89946 37.7095 7.56955 35.8259 6.62781C33.9422 5.68607 31.8805 5.15385 29.7764 5.06616C27.6723 4.97847 25.5734 5.33731 23.618 6.11905C21.6625 6.9008 19.8947 8.08774 18.4309 9.60178C16.9671 11.1158 15.8405 12.9227 15.1252 14.9034C14.4098 16.8841 14.122 18.9939 14.2807 21.0938C14.4393 23.1938 15.0408 25.2364 16.0455 27.0872C17.0503 28.938 18.4356 30.5551 20.1102 31.8321C21.1851 32.6674 22.3729 33.3465 23.6382 33.849C25.4122 34.5762 27.3109 34.9508 29.2282 34.952C33.1857 34.9433 36.9783 33.3657 39.7746 30.5652C42.5708 27.7646 44.1425 23.9696 44.1452 20.012C44.1481 17.9706 43.7275 15.9507 42.9102 14.08ZM29.2172 8.09305C30.9382 8.09305 32.6392 8.46905 34.2002 9.19605C33.8202 9.36005 33.4202 9.47605 33.0102 9.53805C31.6612 9.73307 30.4115 10.3592 29.4476 11.3228C28.4838 12.2865 27.8574 13.5361 27.6622 14.885C27.5765 15.6416 27.2324 16.3454 26.6881 16.8777C26.1437 17.41 25.4324 17.7382 24.6742 17.807C23.3252 18.0023 22.0757 18.6286 21.112 19.5925C20.1483 20.5564 19.5222 21.8061 19.3272 23.1551C19.261 23.8742 18.9541 24.55 18.4562 25.073C17.5964 23.2574 17.2099 21.2537 17.3329 19.2485C17.4558 17.2433 18.0841 15.3018 19.1592 13.6047C20.2344 11.9077 21.7214 10.5102 23.4819 9.54252C25.2425 8.5748 27.2192 8.06826 29.2282 8.07005L29.2162 8.09205L29.2172 8.09305ZM20.0992 27.73C20.2312 27.609 20.3632 27.499 20.4952 27.366C21.4763 26.4152 22.1063 25.16 22.2822 23.805C22.3533 23.0434 22.6932 22.3319 23.2412 21.798C23.7683 21.2494 24.4778 20.9122 25.2362 20.85C26.5851 20.6549 27.8347 20.0287 28.7985 19.0651C29.7624 18.1014 30.3888 16.8519 30.5842 15.503C30.6318 14.7065 30.9736 13.956 31.5432 13.397C32.0833 12.859 32.7996 12.5341 33.5602 12.482C34.7995 12.3115 35.9554 11.7605 36.8682 10.905C37.9082 11.767 38.7882 12.805 39.4702 13.97C39.4284 14.0265 39.3804 14.0782 39.3272 14.124C38.8008 14.6778 38.0918 15.0224 37.3312 15.094C35.9809 15.2861 34.7295 15.9113 33.7653 16.8758C32.801 17.8403 32.1759 19.0918 31.9842 20.442C31.9064 21.2011 31.5687 21.9099 31.0281 22.4485C30.4876 22.987 29.7775 23.3221 29.0182 23.397C27.6654 23.591 26.4112 24.2161 25.442 25.1796C24.4728 26.143 23.8402 27.3934 23.6382 28.7451C23.5788 29.2837 23.3938 29.8009 23.0982 30.255C21.9666 29.5834 20.9531 28.7304 20.0982 27.73H20.0992ZM29.2162 31.986C28.0976 31.9872 26.9844 31.8314 25.9092 31.5231C26.2772 30.8373 26.5164 30.09 26.6152 29.3181C26.6924 28.5608 27.0285 27.8534 27.5666 27.3151C28.1047 26.7768 28.812 26.4406 29.5692 26.3631C30.9203 26.1702 32.1726 25.5449 33.1386 24.5808C34.1047 23.6168 34.7325 22.3658 34.9282 21.015C35.0057 20.258 35.3418 19.5508 35.8799 19.0127C36.418 18.4746 37.1251 18.1385 37.8822 18.061C38.899 17.9288 39.8681 17.5502 40.7052 16.958C41.1697 18.7198 41.2246 20.5645 40.8657 22.3507C40.5067 24.137 39.7434 25.8173 38.6344 27.2628C37.5253 28.7083 36.0999 29.8806 34.4675 30.6898C32.8351 31.499 31.0391 31.9236 29.2172 31.931L29.2162 31.986ZM126.939 11.4V28.6201H123.383V11.4H126.939ZM134.374 21.788H126.939V18.232L134.374 18.211V21.788ZM135.775 14.956H126.939V11.4H135.775V14.956ZM135.775 28.621L126.939 28.6201V25.064L135.775 25.043V28.621ZM115.724 11.379V28.6201H112.168V11.379H115.724ZM121.22 14.935H106.672V11.4L121.22 11.379V14.935ZM99.1962 11.379L91.7822 28.6201H87.7732L95.1872 11.378H99.1972L99.1962 11.379ZM99.2182 11.379L106.675 28.621H102.666L95.2092 11.379H99.2182ZM102.235 25.431H91.9982V21.767L102.235 21.746V25.431ZM69.8602 11.379H77.1442C79.5442 11.379 81.5552 11.767 83.1792 12.543C84.8022 13.319 85.6142 14.834 85.6142 17.09C85.6142 18.427 85.1832 19.483 84.3212 20.258C83.4732 21.02 82.4172 21.552 81.1532 21.8531C79.9032 22.1411 78.5662 22.284 77.1442 22.284H73.5022V28.621H69.8592L69.8602 11.379ZM77.9202 21.077H81.9932L85.2482 28.621H81.1742L77.9202 21.077ZM77.1442 18.814C78.2792 18.814 79.1482 18.757 79.7522 18.642C80.3702 18.512 80.8012 18.312 81.0452 18.038C81.2892 17.765 81.4112 17.399 81.4112 16.939C81.4112 16.479 81.2892 16.113 81.0452 15.84C80.8012 15.567 80.3702 15.366 79.7522 15.237C79.1482 15.107 78.2792 15.043 77.1442 15.043H73.5022V18.814H77.1442ZM67.6962 11.379L56.1232 26.293L55.9502 21.3361L63.3642 11.379H67.6962ZM56.7052 11.379V28.6201H53.1482V11.379H56.7042H56.7052ZM57.7822 21.164L60.0242 18.685L67.6962 28.621H63.3642L57.7822 21.164Z" fill="white"/>
</svg>
