<svg width="24" height="24" viewBox="0 0 24 24" fill="none" xmlns="http://www.w3.org/2000/svg">
<path fill-rule="evenodd" clip-rule="evenodd" d="M12 2C15.866 2 19.0001 5.13402 19.0001 8.99998C19.0001 10.2752 18.66 11.47 18.0634 12.5004C17.6655 13.1873 15.6444 16.6872 12 23C8.35559 16.6872 6.3345 13.1873 5.93675 12.5004C5.34003 11.47 5 10.2752 5 8.99998C5 5.13402 8.13402 2 12 2M12 5.99998C10.3432 5.99998 9.00003 7.34314 9.00003 8.99998C9.00003 10.6568 10.3432 12 12 12C13.6569 12 15 10.6569 15 8.99998C15 7.34314 13.6569 5.99998 12 5.99998Z" fill="white" fill-opacity="0.8"/>
</svg>
