<svg width="46" height="32" viewBox="0 0 46 32" fill="none" xmlns="http://www.w3.org/2000/svg">
<path fill-rule="evenodd" clip-rule="evenodd" d="M16.5382 0.459569C13.9506 -0.712492 10.9021 0.434557 9.72964 3.02207L0.456207 23.4898C-0.716213 26.0775 0.431271 29.1257 3.01871 30.2984C5.60652 31.4709 8.65481 30.3237 9.8273 27.7359L17.925 9.86484C18.326 8.97974 19.4985 8.78593 20.1632 9.49473C20.5407 9.89736 20.638 10.4881 20.4103 10.9908L14.3527 24.358C13.1803 26.9456 14.3278 29.9939 16.9152 31.1666C19.503 32.339 22.5513 31.1918 23.7238 28.6041L30.9844 12.5793C31.4518 11.5476 32.7093 11.1473 33.6871 11.7189C34.5315 12.2125 34.8663 13.2644 34.4626 14.1552L29.6711 24.7301C28.4986 27.3179 29.6458 30.3671 32.2336 31.5396C34.8214 32.7122 37.8696 31.564 39.0421 28.9762L44.7746 16.3248C45.9471 13.737 44.7999 10.6887 42.2121 9.51621C40.672 8.81842 38.9693 8.94245 37.5958 9.70271C36.6115 10.2475 35.3887 10.5292 34.4176 9.96139L34.1929 9.83004C33.3109 9.31429 32.9612 8.21542 33.383 7.28476C34.5553 4.697 33.4082 1.64868 30.8205 0.47617C28.2329 -0.695871 25.1844 0.451246 24.0119 3.03867L22.7423 5.84238C22.2596 6.90831 20.8487 7.14196 20.048 6.28867C19.7177 5.93647 19.5744 5.45585 19.5578 4.97324C19.493 3.08018 18.3805 1.29431 16.5382 0.459569Z" fill="#7958FF"/>
</svg>
