<svg width="150" height="40" viewBox="0 0 150 40" fill="none" xmlns="http://www.w3.org/2000/svg">
<path d="M118.94 30.71C117.092 30.71 115.594 30.64 114.446 30.5C113.298 30.387 112.416 30.15 111.8 29.785C111.204 29.4189 110.758 28.8534 110.54 28.189C110.316 27.517 110.204 26.663 110.204 25.627C110.204 24.199 110.358 23.107 110.666 22.351C110.974 21.595 111.492 21.091 112.22 20.839C112.976 20.559 113.984 20.419 115.244 20.419C115.944 20.419 116.728 20.433 117.596 20.461C118.492 20.461 119.36 20.475 120.2 20.503C121.04 20.531 121.768 20.587 122.384 20.671C123.028 20.727 123.462 20.783 123.686 20.839C123.686 19.831 123.602 19.033 123.434 18.445C123.266 17.857 122.986 17.409 122.594 17.101C122.202 16.793 121.698 16.597 121.082 16.513C120.371 16.4214 119.656 16.3793 118.94 16.387C117.988 16.387 117.022 16.415 116.042 16.471C115.09 16.499 114.18 16.569 113.312 16.681C112.472 16.765 111.73 16.891 111.086 17.059V16.093C111.086 15.393 111.254 14.889 111.59 14.581C111.926 14.245 112.36 14.021 112.892 13.909C113.508 13.769 114.404 13.671 115.58 13.615C116.853 13.5574 118.127 13.5294 119.402 13.531C121.138 13.531 122.594 13.615 123.77 13.783C124.946 13.951 125.884 14.287 126.584 14.791C127.312 15.295 127.83 16.037 128.138 17.017C128.446 17.969 128.6 19.257 128.6 20.881V29.365C128.264 29.841 127.284 30.191 125.66 30.415C124.064 30.611 121.824 30.71 118.94 30.71ZM118.898 28.525C119.85 28.525 120.634 28.511 121.25 28.483C121.894 28.427 122.412 28.343 122.804 28.231C123.196 28.119 123.49 27.979 123.686 27.811V22.603C123.406 22.519 122.958 22.449 122.342 22.393C121.754 22.309 121.152 22.253 120.536 22.225C120.019 22.1742 119.501 22.1462 118.982 22.141C118.142 22.141 117.456 22.211 116.924 22.351C116.392 22.463 116 22.743 115.748 23.191C115.524 23.639 115.412 24.339 115.412 25.291C115.412 26.047 115.496 26.677 115.664 27.181C115.832 27.657 116.168 28.007 116.672 28.231C117.176 28.427 117.918 28.525 118.898 28.525ZM88.8366 22.1C88.8366 19.803 89.1586 18.04 89.8026 16.807C90.4466 15.575 91.3706 14.735 92.5746 14.287C93.8066 13.811 95.2626 13.573 96.9426 13.573C97.4466 13.573 98.0206 13.601 98.6646 13.657C99.3366 13.713 99.9806 13.797 100.597 13.909C101.15 13.9801 101.698 14.0924 102.235 14.245C102.711 14.357 103.061 14.483 103.285 14.623L102.025 15.169V9.29004H107.065L107.023 22.058C107.023 23.962 106.869 25.488 106.561 26.636C106.253 27.756 105.735 28.61 105.007 29.198C104.307 29.758 103.341 30.136 102.109 30.332C100.905 30.5 99.3926 30.584 97.5726 30.584C95.9206 30.584 94.5206 30.472 93.3726 30.248C92.2526 30.024 91.3566 29.618 90.6846 29.03C90.0406 28.442 89.5646 27.588 89.2566 26.468C88.9766 25.348 88.8366 23.892 88.8366 22.1ZM97.6986 27.895C98.6226 27.895 99.3646 27.825 99.9246 27.685C100.513 27.517 100.947 27.251 101.227 26.887C101.535 26.523 101.745 26.005 101.857 25.333C101.969 24.633 102.025 23.751 102.025 22.687L101.983 16.681C101.676 16.6489 101.367 16.6349 101.059 16.639L99.8406 16.555C99.4206 16.527 99.0286 16.513 98.6646 16.513C97.4886 16.513 96.5506 16.667 95.8506 16.975C95.1786 17.255 94.6886 17.801 94.3806 18.613C94.1006 19.425 93.9606 20.615 93.9606 22.183C93.9606 23.807 94.0726 25.025 94.2966 25.837C94.5486 26.649 94.9546 27.195 95.5146 27.475C96.0746 27.755 96.8026 27.895 97.6986 27.895ZM69.3556 30.5C68.4316 30.5 67.9696 30.023 67.9696 29.071V14.833C68.8096 14.497 69.9996 14.217 71.5396 13.993C73.1076 13.741 74.8436 13.615 76.7476 13.615C78.7356 13.615 80.3036 13.727 81.4516 13.951C82.6276 14.175 83.4956 14.553 84.0556 15.085C84.6436 15.617 85.0216 16.317 85.1896 17.185C85.3856 18.053 85.4836 19.131 85.4836 20.419V28.525C85.4836 29.029 85.4416 29.435 85.3576 29.743C85.3016 30.023 85.1196 30.233 84.8116 30.373C84.5316 30.485 84.0836 30.541 83.4676 30.541L80.4436 30.499V19.243C80.4436 18.263 80.1356 17.549 79.5196 17.101C78.9036 16.653 77.9936 16.429 76.7896 16.429C76.3696 16.429 75.9216 16.471 75.4456 16.555C74.9888 16.6068 74.5384 16.7054 74.1016 16.849C73.6816 16.961 73.3316 17.115 73.0516 17.311V30.5H69.3556ZM54.5106 30.71C52.6616 30.71 51.1636 30.64 50.0156 30.5C48.8676 30.387 47.9856 30.15 47.3696 29.785C46.774 29.4189 46.3275 28.8534 46.1096 28.189C45.8856 27.517 45.7736 26.663 45.7736 25.627C45.7736 24.199 45.9276 23.107 46.2356 22.351C46.5436 21.595 47.0616 21.091 47.7896 20.839C48.5456 20.559 49.5536 20.419 50.8136 20.419C51.5136 20.419 52.2976 20.433 53.1656 20.461C54.0616 20.461 54.9296 20.475 55.7696 20.503C56.6096 20.531 57.3376 20.587 57.9536 20.671C58.5976 20.727 59.0316 20.783 59.2556 20.839C59.2556 19.831 59.1716 19.033 59.0036 18.445C58.8356 17.857 58.5556 17.409 58.1636 17.101C57.7716 16.793 57.2676 16.597 56.6516 16.513C55.9414 16.4214 55.2257 16.3793 54.5096 16.387C53.5576 16.387 52.5916 16.415 51.6116 16.471C50.6596 16.499 49.7496 16.569 48.8816 16.681C48.0416 16.765 47.2996 16.891 46.6556 17.059V16.093C46.6556 15.393 46.8236 14.889 47.1596 14.581C47.4956 14.245 47.9296 14.021 48.4616 13.909C49.0776 13.769 49.9736 13.671 51.1496 13.615C52.4228 13.5574 53.6971 13.5294 54.9716 13.531C56.7076 13.531 58.1636 13.615 59.3396 13.783C60.5156 13.951 61.4536 14.287 62.1536 14.791C62.8816 15.295 63.3996 16.037 63.7076 17.017C64.0156 17.969 64.1696 19.257 64.1696 20.881V29.365C63.8336 29.841 62.8536 30.191 61.2296 30.415C59.6336 30.611 57.3936 30.709 54.5096 30.709L54.5106 30.71ZM54.4676 28.525C55.4196 28.525 56.2036 28.511 56.8196 28.483C57.4636 28.427 57.9816 28.343 58.3736 28.231C58.7656 28.119 59.0596 27.979 59.2556 27.811V22.603C58.9756 22.519 58.5276 22.449 57.9116 22.393C57.3236 22.309 56.7216 22.253 56.1056 22.225C55.5891 22.1742 55.0706 22.1462 54.5516 22.141C53.7116 22.141 53.0256 22.211 52.4936 22.351C51.9616 22.463 51.5696 22.743 51.3176 23.191C51.0936 23.639 50.9816 24.339 50.9816 25.291C50.9816 26.047 51.0656 26.677 51.2336 27.181C51.4016 27.657 51.7376 28.007 52.2416 28.231C52.7456 28.427 53.4876 28.525 54.4676 28.525ZM21.3906 30.5V13.992C21.3906 12.956 21.5596 12.228 21.8956 11.808C22.2596 11.388 22.9596 11.178 23.9956 11.178H28.1536C29.6235 11.15 31.0938 11.15 32.5636 11.178H36.7216C37.9536 11.234 39.0316 11.458 39.9556 11.85C40.8598 12.2245 41.6135 12.8895 42.0976 13.74C42.6296 14.58 42.8956 15.714 42.8956 17.142C42.8956 18.738 42.6296 20.026 42.0976 21.006C41.5936 21.986 40.8656 22.7 39.9136 23.148C38.9896 23.568 37.8836 23.778 36.5956 23.778C34.9718 23.7496 33.3477 23.7356 31.7236 23.736H26.8096V21.89C26.8376 21.47 26.9076 21.19 27.0196 21.05C27.1316 20.91 27.3556 20.84 27.6916 20.84H34.2856C34.8456 20.84 35.3496 20.728 35.7976 20.504C36.2456 20.28 36.5956 19.902 36.8476 19.37C37.0996 18.838 37.2256 18.124 37.2256 17.228C37.2256 16.276 37.0436 15.548 36.6796 15.044C36.3156 14.54 35.7136 14.26 34.8736 14.204C34.0629 14.1471 33.2504 14.1191 32.4376 14.12C31.5976 14.12 30.7856 14.134 30.0016 14.162H27.9016C27.7336 14.162 27.5376 14.232 27.3136 14.372C27.0896 14.512 26.9776 14.722 26.9776 15.002V30.5H21.3906Z" fill="white"/>
</svg>
