<svg width="40" height="40" viewBox="0 0 40 40" fill="none" xmlns="http://www.w3.org/2000/svg">
<g filter="url(#filter0_d_4163_27639)">
<path d="M36.3704 20.7167C36.2321 20.5183 32.9338 15.81 28.3821 12.5917C26.0221 10.92 23.0454 10 20.0021 10C16.9588 10 13.9838 10.92 11.6188 12.5917C7.06711 15.81 3.77211 20.5183 3.63377 20.7167C3.43986 20.9958 3.33594 21.3276 3.33594 21.6675C3.33594 22.0074 3.43986 22.3392 3.63377 22.6183C3.77211 22.8167 7.06711 27.525 11.6188 30.7433C13.9838 32.4133 16.9604 33.3333 20.0021 33.3333C23.0438 33.3333 26.0221 32.4133 28.3821 30.7417C32.9338 27.5233 36.2321 22.815 36.3704 22.6167C36.564 22.3377 36.6677 22.0062 36.6677 21.6667C36.6677 21.3271 36.564 20.9957 36.3704 20.7167ZM20.0021 27.5C16.7788 27.5 14.1688 24.8833 14.1688 21.6667C14.1688 18.4433 16.7788 15.8333 20.0021 15.8333C23.2188 15.8333 25.8354 18.4433 25.8354 21.6667C25.8354 24.8833 23.2188 27.5 20.0021 27.5ZM23.3354 21.6667C23.3354 23.5033 21.8388 25 20.0021 25C19.3428 25 18.6984 24.8045 18.1502 24.4382C17.602 24.072 17.1748 23.5514 16.9225 22.9423C16.6702 22.3332 16.6042 21.663 16.7328 21.0164C16.8614 20.3698 17.1789 19.7758 17.6451 19.3096C18.1113 18.8435 18.7052 18.526 19.3518 18.3974C19.9984 18.2688 20.6686 18.3348 21.2777 18.5871C21.8868 18.8394 22.4074 19.2666 22.7737 19.8148C23.1399 20.3629 23.3354 21.0074 23.3354 21.6667Z" fill="#7958FF"/>
</g>
<defs>
<filter id="filter0_d_4163_27639" x="3.33594" y="10" width="33.3281" height="25.334" filterUnits="userSpaceOnUse" color-interpolation-filters="sRGB">
<feFlood flood-opacity="0" result="BackgroundImageFix"/>
<feColorMatrix in="SourceAlpha" type="matrix" values="0 0 0 0 0 0 0 0 0 0 0 0 0 0 0 0 0 0 127 0" result="hardAlpha"/>
<feOffset dy="2"/>
<feComposite in2="hardAlpha" operator="out"/>
<feColorMatrix type="matrix" values="0 0 0 0 1 0 0 0 0 1 0 0 0 0 1 0 0 0 1 0"/>
<feBlend mode="normal" in2="BackgroundImageFix" result="effect1_dropShadow_4163_27639"/>
<feBlend mode="normal" in="SourceGraphic" in2="effect1_dropShadow_4163_27639" result="shape"/>
</filter>
</defs>
</svg>
