<svg width="40" height="40" viewBox="0 0 40 40" fill="none" xmlns="http://www.w3.org/2000/svg">
<g filter="url(#filter0_d_4163_27659)">
<path d="M5 16.2375L18.075 21.6187C18.6875 21.8687 19.3375 22 20 22C20.6625 22 21.3125 21.8687 21.925 21.6187L37.075 15.3813C37.6375 15.15 38 14.6062 38 14C38 13.3938 37.6375 12.85 37.075 12.6187L21.925 6.38125C21.3125 6.13125 20.6625 6 20 6C19.3375 6 18.6875 6.13125 18.075 6.38125L2.925 12.6187C2.3625 12.85 2 13.3938 2 14V32.5C2 33.3312 2.66875 34 3.5 34C4.33125 34 5 33.3312 5 32.5V16.2375ZM8 20.7188V28C8 31.3125 13.375 34 20 34C26.625 34 32 31.3125 32 28V20.7125L23.0688 24.3937C22.0938 24.7937 21.0562 25 20 25C18.9438 25 17.9062 24.7937 16.9312 24.3937L8 20.7125V20.7188Z" fill="#7C58FF"/>
</g>
<defs>
<filter id="filter0_d_4163_27659" x="2" y="6" width="36" height="30" filterUnits="userSpaceOnUse" color-interpolation-filters="sRGB">
<feFlood flood-opacity="0" result="BackgroundImageFix"/>
<feColorMatrix in="SourceAlpha" type="matrix" values="0 0 0 0 0 0 0 0 0 0 0 0 0 0 0 0 0 0 127 0" result="hardAlpha"/>
<feOffset dy="2"/>
<feComposite in2="hardAlpha" operator="out"/>
<feColorMatrix type="matrix" values="0 0 0 0 1 0 0 0 0 1 0 0 0 0 1 0 0 0 1 0"/>
<feBlend mode="normal" in2="BackgroundImageFix" result="effect1_dropShadow_4163_27659"/>
<feBlend mode="normal" in="SourceGraphic" in2="effect1_dropShadow_4163_27659" result="shape"/>
</filter>
</defs>
</svg>
