<svg width="40" height="40" viewBox="0 0 40 40" fill="none" xmlns="http://www.w3.org/2000/svg">
<path d="M36.6427 31.2168C36.5659 31.7265 36.372 32.2114 36.0761 32.6335C35.7816 33.0482 35.3916 33.3859 34.939 33.618C34.4865 33.85 33.9847 33.9697 33.4761 33.9668H30.7244C30.5287 33.9662 30.3359 33.9191 30.162 33.8292C29.9881 33.7394 29.8381 33.6094 29.7244 33.4502C29.6094 33.291 29.5329 33.1072 29.5011 32.9134C29.4693 32.7196 29.483 32.5211 29.5411 32.3335C30.1577 30.3668 30.0244 28.1502 24.4394 24.6002C24.2118 24.451 24.0375 24.2335 23.9416 23.9788C23.8458 23.7242 23.8333 23.4457 23.9061 23.1835C23.9842 22.9252 24.1427 22.6986 24.3585 22.5368C24.5744 22.3749 24.8363 22.2861 25.1061 22.2835C27.4899 22.3159 29.8162 23.0195 31.8184 24.3137C33.8206 25.6078 35.4176 27.44 36.4261 29.6002C36.6311 30.1128 36.7055 30.6683 36.6427 31.2168ZM32.4744 12.8335C32.47 14.7862 31.6922 16.6576 30.3113 18.0382C28.9304 19.4188 27.0588 20.1962 25.1061 20.2002C24.8873 20.1962 24.6733 20.1356 24.4849 20.0244C24.2965 19.9131 24.1402 19.7549 24.0311 19.5653C23.922 19.3756 23.8639 19.1609 23.8624 18.9421C23.8609 18.7234 23.9162 18.5079 24.0227 18.3168C25.0427 16.685 25.5835 14.7995 25.5835 12.8752C25.5835 10.9508 25.0427 9.06526 24.0227 7.43349C23.892 7.24667 23.8149 7.02766 23.7997 6.80016C23.7845 6.57265 23.8318 6.34532 23.9365 6.14278C24.0412 5.94023 24.1993 5.77018 24.3937 5.65103C24.5881 5.53188 24.8114 5.46818 25.0394 5.46682C26.0152 5.46434 26.9812 5.66114 27.8782 6.04517C28.7752 6.4292 29.5844 6.99237 30.2561 7.70015C31.6271 9.08452 32.3997 10.9518 32.4077 12.9002L32.4744 12.8335Z" fill="white"/>
<path d="M27.788 31.1673C27.8554 31.9832 27.6948 32.8018 27.3239 33.5317C26.9531 34.2616 26.3867 34.874 25.688 35.3007C24.9913 35.729 24.188 35.954 23.3713 35.9507H7.74965C6.93191 35.9543 6.12945 35.7292 5.43298 35.3007C4.73266 34.8766 4.16566 34.2642 3.7967 33.5333C3.42774 32.8025 3.27167 31.9826 3.34631 31.1673C3.40678 30.3538 3.69563 29.5739 4.17965 28.9173C5.5085 27.1493 7.22001 25.7047 9.1861 24.6916C11.1522 23.6786 13.3219 23.1233 15.533 23.0673C17.7516 23.1114 19.9312 23.6594 21.9068 24.67C23.8824 25.6807 25.6023 27.1273 26.9363 28.9007C27.4214 29.5644 27.717 30.3483 27.788 31.1673ZM23.738 12.2007C23.7336 14.3674 22.8718 16.4443 21.341 17.9776C19.8102 19.5109 17.7347 20.3761 15.568 20.384C14.3616 20.381 13.1709 20.111 12.0812 19.5933C10.9916 19.0755 10.0301 18.323 9.26577 17.3896C8.50146 16.4562 7.95328 15.3652 7.6606 14.1949C7.36792 13.0246 7.338 11.8039 7.57298 10.6207C7.80895 9.43709 8.30431 8.32054 9.02342 7.35132C9.74253 6.3821 10.6675 5.58431 11.7318 5.01533C12.7961 4.44636 13.9733 4.12034 15.1787 4.06075C16.3841 4.00115 17.5877 4.20945 18.703 4.67066C20.1945 5.28647 21.4701 6.33033 22.3689 7.67049C23.2677 9.01065 23.7493 10.587 23.753 12.2007H23.738Z" fill="#7958FF"/>
</svg>
