<svg width="40" height="40" viewBox="0 0 40 40" fill="none" xmlns="http://www.w3.org/2000/svg">
<g filter="url(#filter0_d_4163_27668)">
<path d="M15.974 8.36C15.3757 9.85862 14.9275 11.4129 14.636 13H25.364C25.0719 11.4128 24.623 9.85855 24.024 8.36C23.422 6.894 22.728 5.772 22.008 5.034C21.292 4.298 20.614 4 20 4C19.386 4 18.708 4.298 17.992 5.034C17.272 5.774 16.578 6.894 15.974 8.36ZM15.782 4.562C15.154 5.414 14.602 6.444 14.126 7.598C13.486 9.158 12.966 10.986 12.602 13H5.60801C6.60701 10.9514 8.03112 9.13929 9.78544 7.6843C11.5398 6.22932 13.584 5.16491 15.782 4.562ZM24.22 4.562C24.846 5.414 25.4 6.444 25.874 7.598C26.514 9.158 27.034 10.986 27.398 13H34.392C33.393 10.9514 31.9689 9.13929 30.2146 7.6843C28.4602 6.22932 26.418 5.16491 24.22 4.562ZM35.204 15H27.7C27.896 16.59 28 18.268 28 20C28 21.732 27.896 23.41 27.7 25H35.204C35.733 23.3861 36.0017 21.6984 36 20C36.0017 18.3017 35.733 16.6139 35.204 15ZM34.392 27H27.398C27.034 29.014 26.516 30.844 25.874 32.4C25.4467 33.4754 24.8914 34.4955 24.22 35.438C26.4176 34.8348 28.4615 33.7703 30.2155 32.3153C31.9694 30.8604 33.3932 29.0484 34.392 27ZM20 36C20.614 36 21.292 35.702 22.008 34.966C22.728 34.226 23.422 33.106 24.024 31.64C24.623 30.1415 25.0719 28.5872 25.364 27H14.636C14.972 28.746 15.43 30.314 15.976 31.64C16.578 33.106 17.272 34.228 17.992 34.966C18.708 35.702 19.386 36 20 36ZM15.78 35.438C13.5828 34.8346 11.5393 33.7699 9.78567 32.315C8.03207 30.86 6.60858 29.0481 5.61001 27H12.604C12.968 29.014 13.486 30.844 14.128 32.4C14.602 33.556 15.156 34.586 15.784 35.438M4.79801 25H12.3C12.1006 23.3408 12.0004 21.6712 12 20C12 18.268 12.104 16.59 12.3 15H4.79601C4.26699 16.6139 3.99829 18.3017 4.00001 20C4.00001 21.746 4.28201 23.426 4.79801 25ZM14 20C14 18.25 14.112 16.57 14.316 15H25.684C25.888 16.57 26 18.25 26 20C26 21.75 25.888 23.428 25.684 25H14.316C14.1008 23.3421 13.9952 21.6718 14 20Z" fill="#7858FF"/>
</g>
<defs>
<filter id="filter0_d_4163_27668" x="4" y="4" width="33" height="33" filterUnits="userSpaceOnUse" color-interpolation-filters="sRGB">
<feFlood flood-opacity="0" result="BackgroundImageFix"/>
<feColorMatrix in="SourceAlpha" type="matrix" values="0 0 0 0 0 0 0 0 0 0 0 0 0 0 0 0 0 0 127 0" result="hardAlpha"/>
<feOffset dx="1" dy="1"/>
<feComposite in2="hardAlpha" operator="out"/>
<feColorMatrix type="matrix" values="0 0 0 0 1 0 0 0 0 1 0 0 0 0 1 0 0 0 1 0"/>
<feBlend mode="normal" in2="BackgroundImageFix" result="effect1_dropShadow_4163_27668"/>
<feBlend mode="normal" in="SourceGraphic" in2="effect1_dropShadow_4163_27668" result="shape"/>
</filter>
</defs>
</svg>
