<svg width="52" height="52" viewBox="0 0 52 52" fill="none" xmlns="http://www.w3.org/2000/svg">
<rect width="52" height="52" rx="26" fill="white" fill-opacity="0.12"/>
<g clip-path="url(#clip0_6445_3501)">
<path d="M38.7603 12H25.3125C25.3125 13.61 25.9521 15.1541 27.0905 16.2925C28.229 17.431 29.773 18.0706 31.3831 18.0706H33.8603V20.4622C33.8624 23.8119 36.5773 26.5267 39.9269 26.5289V13.1667C39.9269 12.5223 39.4046 12 38.7603 12Z" fill="#2684FF"/>
<path d="M32.106 18.7012H18.6582C18.6603 22.0508 21.3752 24.7657 24.7249 24.7678H27.2021V27.1673C27.2064 30.5169 29.923 33.2301 33.2726 33.2301V19.8678C33.2726 19.2235 32.7503 18.7012 32.106 18.7012Z" fill="url(#paint0_linear_6445_3501)"/>
<path d="M25.4478 25.3965H12C12 28.7492 14.7179 31.467 18.0706 31.467H20.5556V33.8587C20.5577 37.2053 23.2678 39.9189 26.6144 39.9254V26.5632C26.6144 25.9188 26.0921 25.3965 25.4478 25.3965Z" fill="url(#paint1_linear_6445_3501)"/>
</g>
<defs>
<linearGradient id="paint0_linear_6445_3501" x1="1451.32" y1="21.0346" x2="882.75" y2="614.315" gradientUnits="userSpaceOnUse">
<stop offset="0.18" stop-color="#0052CC"/>
<stop offset="1" stop-color="#2684FF"/>
</linearGradient>
<linearGradient id="paint1_linear_6445_3501" x1="1483.17" y1="32.0075" x2="825.465" y2="679.09" gradientUnits="userSpaceOnUse">
<stop offset="0.18" stop-color="#0052CC"/>
<stop offset="1" stop-color="#2684FF"/>
</linearGradient>
<clipPath id="clip0_6445_3501">
<rect width="28" height="28" fill="white" transform="translate(12 12)"/>
</clipPath>
</defs>
</svg>
