<svg width="150" height="40" viewBox="0 0 150 40" fill="none" xmlns="http://www.w3.org/2000/svg">
<mask id="mask0_524_9126" style="mask-type:luminance" maskUnits="userSpaceOnUse" x="23" y="0" width="104" height="40">
<path d="M23.5 0H126.5V40H23.5V0Z" fill="white"/>
</mask>
<g mask="url(#mask0_524_9126)">
<path d="M117.153 31.3631C115.428 31.3631 114.02 30.9991 112.926 30.2701C111.858 29.5171 111.056 28.5701 110.522 27.4281C110.013 26.267 109.74 25.0159 109.72 23.7481C109.696 22.2421 109.975 20.9061 110.558 19.7401C111.165 18.5501 112.016 17.6271 113.109 16.9711C114.226 16.2911 115.538 15.9511 117.044 15.9511C118.38 15.9511 119.57 16.2431 120.614 16.8261C121.676 17.4019 122.558 18.2589 123.165 19.3031C123.796 20.3481 124.124 21.5871 124.148 23.0201V23.9671H113.254C113.254 25.3511 113.594 26.4201 114.275 27.1731C114.955 27.9021 115.89 28.2661 117.08 28.2661C118.003 28.2661 118.768 28.0361 119.375 27.5741C120.007 27.1121 120.384 26.5051 120.505 25.7521H124.112C123.942 27.3311 123.262 28.6671 122.072 29.7601C120.881 30.8291 119.242 31.3631 117.153 31.3631ZM113.364 22.2911H120.432C120.386 22.0207 120.325 21.753 120.25 21.4891C120.162 21.0869 120.001 20.7041 119.776 20.3591C119.558 19.9711 119.218 19.6431 118.756 19.3761C118.295 19.1091 117.699 18.9761 116.971 18.9761C115.999 18.9761 115.258 19.1821 114.748 19.5951C114.262 19.9831 113.91 20.4451 113.692 20.9791C113.497 21.4891 113.388 21.9271 113.364 22.2911ZM100.958 31.3631C99.2331 31.3631 97.8241 30.9991 96.7311 30.2701C95.6621 29.5171 94.8611 28.5701 94.3271 27.4281C93.8179 26.2669 93.5453 25.0159 93.5251 23.7481C93.5011 22.2421 93.7801 20.9061 94.3631 19.7401C94.9701 18.5501 95.8201 17.6271 96.9131 16.9711C98.0311 16.2911 99.3431 15.9511 100.848 15.9511C102.184 15.9511 103.374 16.2431 104.419 16.8261C105.481 17.4017 106.363 18.2588 106.969 19.3031C107.601 20.3481 107.929 21.5871 107.953 23.0201V23.9671H97.0591C97.0591 25.3511 97.3991 26.4201 98.0791 27.1731C98.7591 27.9021 99.6951 28.2661 100.885 28.2661C101.808 28.2661 102.573 28.0361 103.18 27.5741C103.812 27.1121 104.188 26.5051 104.31 25.7521H107.917C107.747 27.3311 107.067 28.6671 105.876 29.7601C104.686 30.8291 103.047 31.3631 100.958 31.3631ZM97.1681 22.2911H104.237C104.191 22.0207 104.13 21.753 104.055 21.4891C103.967 21.0869 103.806 20.7041 103.581 20.3591C103.362 19.9711 103.022 19.6431 102.561 19.3761C102.099 19.1091 101.504 18.9761 100.775 18.9761C99.8041 18.9761 99.0631 19.1821 98.5531 19.5951C98.0671 19.9831 97.7151 20.4451 97.4961 20.9791C97.3021 21.4891 97.1931 21.9271 97.1681 22.2911ZM82.5781 31.0001V16.0251H86.0401L86.2941 20.1791C86.4401 19.5471 86.7201 18.9161 87.1321 18.2841C87.5701 17.6291 88.1651 17.0941 88.9181 16.6811C89.6951 16.2441 90.6911 16.0251 91.9051 16.0251H92.4521V20.1791H91.9061C89.8161 20.1791 88.3591 20.5191 87.5331 21.1991C86.7071 21.8551 86.2941 22.9721 86.2941 24.5511V31.0011L82.5781 31.0001ZM76.8531 31.0001C75.6631 31.0001 74.7641 30.7081 74.1571 30.1251C73.5741 29.5421 73.2821 28.5951 73.2821 27.2831V18.6481H71.0231V16.0251C71.7281 16.0251 72.2741 15.9521 72.6631 15.8061C73.0521 15.6611 73.3311 15.3201 73.5011 14.7861C73.6711 14.2521 73.7561 13.3891 73.7561 12.1991H76.7441V16.0251H80.1691V18.6481H76.7441V28.0851H80.2421V31.0001H76.8531ZM65.8201 31.0001V10.4851H69.4641V31.0001H65.8201ZM59.3051 31.0001V10.4851H62.9481V31.0001H59.3051ZM49.4231 31.3641C47.7231 31.3641 46.3131 31.0371 45.1961 30.3811C44.1065 29.7551 43.2305 28.8157 42.6821 27.6851C42.1241 26.5191 41.8441 25.1951 41.8441 23.7131C41.8201 21.4781 42.4401 19.6451 43.7031 18.2111C44.9901 16.7541 46.8971 16.0251 49.4231 16.0251C51.8761 16.0251 53.7341 16.7301 54.9981 18.1391C56.2851 19.5471 56.9281 21.4061 56.9281 23.7131C56.9281 25.1461 56.6611 26.4461 56.1271 27.6121C55.6031 28.7664 54.7384 29.7327 53.6491 30.3811C52.5321 31.0371 51.1231 31.3641 49.4231 31.3641ZM49.4231 28.2311C50.4921 28.2311 51.3051 28.0011 51.8641 27.5391C52.433 27.0987 52.8424 26.4846 53.0301 25.7901C53.4201 24.3463 53.4201 22.8249 53.0301 21.3811C52.8495 20.6736 52.4394 20.0459 51.8641 19.5961C51.3051 19.1341 50.4921 18.9041 49.4231 18.9041C48.3301 18.9041 47.4921 19.1471 46.9091 19.6331C46.349 20.0966 45.9425 20.719 45.7431 21.4181C45.5479 22.1303 45.45 22.8656 45.4521 23.6041C45.4521 24.3331 45.5491 25.0611 45.7431 25.7901C45.9494 26.476 46.3553 27.0849 46.9091 27.5391C47.4921 28.0001 48.3291 28.2311 49.4231 28.2311ZM29.2941 31.0001H25.5781V10.4851H33.8121C36.0961 10.4851 37.8691 11.0561 39.1321 12.1981C40.3951 13.3391 41.0271 15.0641 41.0271 17.3711C41.0271 19.3881 40.3711 20.9671 39.0591 22.1081C37.7721 23.2501 36.0231 23.8201 33.8121 23.8201H29.2951L29.2941 31.0001ZM33.3021 13.5101H29.2941V21.0891H33.3021C34.6141 21.0891 35.6711 20.7731 36.4721 20.1421C37.2741 19.5101 37.6751 18.5621 37.6751 17.3001C37.6751 16.0121 37.2741 15.0651 36.4721 14.4581C35.6951 13.8261 34.6381 13.5101 33.3021 13.5101Z" fill="white"/>
</g>
</svg>
