<svg width="40" height="40" viewBox="0 0 40 40" fill="none" xmlns="http://www.w3.org/2000/svg">
<g filter="url(#filter0_d_3643_2922)">
<path d="M21.6677 3.33268C22.741 3.33268 23.7843 3.46268 24.786 3.70268C23.8421 4.08599 23.0378 4.74857 22.481 5.60169C21.9241 6.4548 21.6413 7.45771 21.6703 8.47606C21.6993 9.49442 22.0388 10.4796 22.6433 11.2996C23.2478 12.1197 24.0885 12.7354 25.0527 13.0643L25.681 13.2793C26.1693 13.446 26.5527 13.8293 26.7193 14.3193L26.936 14.9493C27.2015 15.7306 27.6566 16.4339 28.2605 16.9962C28.8644 17.5585 29.5983 17.9623 30.3965 18.1715C31.1947 18.3807 32.0323 18.3888 32.8344 18.195C33.6365 18.0012 34.378 17.6116 34.9927 17.061C34.9261 19.3338 34.2793 21.5519 33.1139 23.5043C31.9486 25.4567 30.3032 27.0787 28.3343 28.216V34.166C28.3343 34.8291 28.0709 35.4649 27.6021 35.9338C27.1332 36.4026 26.4974 36.666 25.8343 36.666H19.1677C18.5046 36.666 17.8687 36.4026 17.3999 35.9338C16.931 35.4649 16.6677 34.8291 16.6677 34.166V31.666H14.611C13.3922 31.6661 12.2154 31.221 11.3017 30.4144C10.3881 29.6079 9.80044 28.4954 9.64932 27.286L9.41599 25.4143L8.16932 25.1677C7.80664 25.0951 7.4646 24.9429 7.16785 24.7221C6.8711 24.5013 6.62704 24.2174 6.45326 23.8909C6.27948 23.5644 6.18032 23.2034 6.16292 22.8339C6.14553 22.4645 6.21033 22.0957 6.35265 21.7543L8.33599 16.9893L8.33432 16.666C8.33432 13.1298 9.73908 9.73841 12.2396 7.23793C14.74 4.73744 18.1314 3.33268 21.6677 3.33268ZM31.6677 1.66602C32.0153 1.66615 32.3542 1.77501 32.6369 1.97733C32.9197 2.17966 33.132 2.46533 33.2443 2.79435L33.461 3.42435C33.961 4.88935 35.111 6.04102 36.5777 6.54102L37.206 6.75602C37.5346 6.86864 37.8199 7.08115 38.0219 7.36384C38.2238 7.64653 38.3324 7.98526 38.3324 8.33268C38.3324 8.6801 38.2238 9.01884 38.0219 9.30153C37.8199 9.58422 37.5346 9.79673 37.206 9.90935L36.576 10.126C35.111 10.626 33.9593 11.776 33.4593 13.2427L33.2443 13.871C33.1317 14.1997 32.9192 14.4849 32.6365 14.6869C32.3538 14.8888 32.0151 14.9974 31.6677 14.9974C31.3202 14.9974 30.9815 14.8888 30.6988 14.6869C30.4161 14.4849 30.2036 14.1997 30.091 13.871L29.8743 13.241C29.6275 12.5179 29.2182 11.861 28.6779 11.3207C28.1377 10.7804 27.4808 10.3712 26.7577 10.1243L26.1293 9.90935C25.8007 9.79673 25.5154 9.58422 25.3135 9.30153C25.1115 9.01884 25.0029 8.6801 25.0029 8.33268C25.0029 7.98526 25.1115 7.64653 25.3135 7.36384C25.5154 7.08115 25.8007 6.86864 26.1293 6.75602L26.7593 6.53935C28.2243 6.03935 29.376 4.88935 29.876 3.42268L30.091 2.79435C30.2033 2.46533 30.4156 2.17966 30.6984 1.97733C30.9811 1.77501 31.32 1.66615 31.6677 1.66602Z" fill="#7958FF"/>
</g>
<defs>
<filter id="filter0_d_3643_2922" x="6.16016" y="1.66602" width="33.1719" height="36" filterUnits="userSpaceOnUse" color-interpolation-filters="sRGB">
<feFlood flood-opacity="0" result="BackgroundImageFix"/>
<feColorMatrix in="SourceAlpha" type="matrix" values="0 0 0 0 0 0 0 0 0 0 0 0 0 0 0 0 0 0 127 0" result="hardAlpha"/>
<feOffset dx="1" dy="1"/>
<feComposite in2="hardAlpha" operator="out"/>
<feColorMatrix type="matrix" values="0 0 0 0 1 0 0 0 0 1 0 0 0 0 1 0 0 0 1 0"/>
<feBlend mode="normal" in2="BackgroundImageFix" result="effect1_dropShadow_3643_2922"/>
<feBlend mode="normal" in="SourceGraphic" in2="effect1_dropShadow_3643_2922" result="shape"/>
</filter>
</defs>
</svg>
