<svg width="40" height="40" viewBox="0 0 40 40" fill="none" xmlns="http://www.w3.org/2000/svg">
<g clip-path="url(#clip0_3643_2928)">
<g filter="url(#filter0_d_3643_2928)">
<path d="M22.0587 1.68373C21.6314 1.68194 21.2042 1.6975 20.7782 1.73037C19.3049 1.84365 17.8673 2.16264 16.4893 2.65889C12.219 7.96498 10.209 12.9972 10.3123 16.7658C10.3662 18.7367 10.9706 20.3522 12.1073 21.5892C12.6801 22.2124 13.3959 22.745 14.2646 23.1681C14.1255 22.4587 14.2106 21.6642 14.4861 20.8519L14.4777 20.85C16.4505 12.3686 24.0311 6.65076 32.4917 6.53553C32.5898 6.53423 32.6878 6.53371 32.786 6.53397C32.8073 6.53407 32.8287 6.53425 32.85 6.53451C30.1555 3.51826 26.3639 1.70295 22.0587 1.68373ZM13.6743 3.96381C7.76807 7.34475 3.50166 14.0987 3.28604 21.5749C3.19174 24.8422 3.86807 27.8366 5.1337 30.3774C11.2949 31.4524 17.4368 29.1896 21.326 24.6466C19.3667 25.6986 17.3726 25.9136 15.9903 25.3107C13.9021 24.8122 12.2298 23.8807 11.0321 22.5772C9.63674 21.059 8.91409 19.0594 8.85237 16.8058C8.75041 13.0823 10.3809 8.63803 13.6743 3.96381ZM32.8554 7.99319C26.5124 7.9492 20.6861 11.3101 17.6458 16.6912C17.7961 16.5757 17.9493 16.4642 18.1054 16.3568C19.1786 15.622 20.2921 15.1423 21.3371 14.9167C22.9263 14.4598 24.5136 14.2178 26.0675 14.175C26.2216 14.1708 26.3753 14.1685 26.5287 14.1681C30.4347 14.1593 34.1085 15.4081 37.0493 17.6473C36.946 13.9614 35.8503 10.6662 34.0354 8.04061C33.6427 8.01179 33.2492 7.99603 32.8554 7.99319ZM26.4265 15.6252C26.1321 15.628 25.8362 15.6386 25.5389 15.6571C27.4273 16.374 28.8957 17.4396 29.9001 18.7957C31.1274 20.4527 31.6353 22.5173 31.4587 24.7649C31.1634 28.5309 29.0184 32.8462 25.1489 37.2089C31.6381 34.2622 36.5309 27.3308 37.0173 19.5086C34.186 17.0042 30.4533 15.5869 26.4265 15.6252ZM26.1312 17.5148C26.2154 18.2714 26.0704 19.1105 25.726 19.9576C22.7435 28.1311 14.5038 32.9195 6.04799 31.9803C8.95081 36.449 13.8744 39.1049 19.5581 38.6676C20.431 38.5999 21.2968 38.4612 22.1471 38.2527C27.1002 33.3508 29.7035 28.4677 30.0031 24.6507C30.1573 22.6851 29.7265 21.0149 28.7267 19.665C28.1021 18.8218 27.2449 18.0933 26.1312 17.5148ZM20.1773 17.6411C18.7531 17.6411 17.614 18.7798 17.614 20.204C17.614 21.6283 18.7531 22.7673 20.1773 22.7673C21.6014 22.7673 22.7404 21.6283 22.7404 20.204C22.7404 18.7797 21.6015 17.6411 20.1773 17.6411Z" fill="#7958FF"/>
</g>
</g>
<defs>
<filter id="filter0_d_3643_2928" x="3.27734" y="1.68359" width="33.7734" height="39.0312" filterUnits="userSpaceOnUse" color-interpolation-filters="sRGB">
<feFlood flood-opacity="0" result="BackgroundImageFix"/>
<feColorMatrix in="SourceAlpha" type="matrix" values="0 0 0 0 0 0 0 0 0 0 0 0 0 0 0 0 0 0 127 0" result="hardAlpha"/>
<feOffset dy="2"/>
<feComposite in2="hardAlpha" operator="out"/>
<feColorMatrix type="matrix" values="0 0 0 0 1 0 0 0 0 1 0 0 0 0 1 0 0 0 1 0"/>
<feBlend mode="normal" in2="BackgroundImageFix" result="effect1_dropShadow_3643_2928"/>
<feBlend mode="normal" in="SourceGraphic" in2="effect1_dropShadow_3643_2928" result="shape"/>
</filter>
<clipPath id="clip0_3643_2928">
<rect width="40" height="40" fill="white"/>
</clipPath>
</defs>
</svg>
