<svg width="40" height="40" viewBox="0 0 40 40" fill="none" xmlns="http://www.w3.org/2000/svg">
<g clip-path="url(#clip0_3643_2933)">
<g filter="url(#filter0_d_3643_2933)">
<path fill-rule="evenodd" clip-rule="evenodd" d="M21.5934 1.48781C21.3844 1.27868 21.1363 1.11277 20.8632 0.999579C20.5901 0.886386 20.2974 0.828125 20.0017 0.828125C19.7061 0.828125 19.4133 0.886386 19.1402 0.999579C18.8671 1.11277 18.619 1.27868 18.4101 1.48781L1.49172 18.4078C1.28258 18.6168 1.11668 18.8649 1.00349 19.138C0.890293 19.4111 0.832031 19.7038 0.832031 19.9995C0.832031 20.2951 0.890293 20.5879 1.00349 20.861C1.11668 21.1341 1.28258 21.3822 1.49172 21.5911L18.4101 38.5078C18.619 38.7169 18.8671 38.8829 19.1402 38.996C19.4133 39.1092 19.7061 39.1675 20.0017 39.1675C20.2974 39.1675 20.5901 39.1092 20.8632 38.996C21.1363 38.8829 21.3844 38.7169 21.5934 38.5078L38.5117 21.5911C38.7209 21.3822 38.8868 21.1341 39 20.861C39.1131 20.5879 39.1714 20.2951 39.1714 19.9995C39.1714 19.7038 39.1131 19.4111 39 19.138C38.8868 18.8649 38.7209 18.6168 38.5117 18.4078L21.5934 1.48781ZM20.8851 10.7828C20.7676 10.6652 20.6278 10.5722 20.474 10.5093C20.3201 10.4464 20.1553 10.4148 19.9891 10.4163C19.8228 10.4179 19.6586 10.4525 19.506 10.5183C19.3533 10.5841 19.2153 10.6797 19.1001 10.7995L12.4334 17.7445C12.3196 17.8629 12.2302 18.0026 12.1704 18.1555C12.1105 18.3085 12.0814 18.4717 12.0847 18.6359C12.0879 18.8001 12.1235 18.9621 12.1893 19.1125C12.2551 19.263 12.35 19.399 12.4684 19.5128C12.5868 19.6266 12.7265 19.716 12.8794 19.7758C13.0324 19.8357 13.1956 19.8648 13.3598 19.8615C13.524 19.8583 13.686 19.8227 13.8364 19.7569C13.9869 19.6911 14.1229 19.5962 14.2367 19.4778L18.7517 14.7728V26.6661C18.7517 26.9977 18.8834 27.3156 19.1178 27.55C19.3523 27.7845 19.6702 27.9161 20.0017 27.9161C20.3332 27.9161 20.6512 27.7845 20.8856 27.55C21.12 27.3156 21.2517 26.9977 21.2517 26.6661V14.6828L25.7851 19.2161C25.8995 19.339 26.0375 19.4375 26.1908 19.5058C26.3442 19.5741 26.5097 19.6108 26.6775 19.6138C26.8454 19.6168 27.0121 19.5859 27.1677 19.523C27.3234 19.4601 27.4648 19.3666 27.5834 19.2479C27.7021 19.1292 27.7957 18.9878 27.8586 18.8321C27.9215 18.6765 27.9523 18.5098 27.9494 18.3419C27.9464 18.1741 27.9097 18.0086 27.8414 17.8552C27.773 17.7019 27.6745 17.5639 27.5517 17.4495L20.8851 10.7828Z" fill="#7958FF"/>
</g>
</g>
<defs>
<filter id="filter0_d_3643_2933" x="0.832031" y="0.828125" width="39.3398" height="40.3398" filterUnits="userSpaceOnUse" color-interpolation-filters="sRGB">
<feFlood flood-opacity="0" result="BackgroundImageFix"/>
<feColorMatrix in="SourceAlpha" type="matrix" values="0 0 0 0 0 0 0 0 0 0 0 0 0 0 0 0 0 0 127 0" result="hardAlpha"/>
<feOffset dx="1" dy="2"/>
<feComposite in2="hardAlpha" operator="out"/>
<feColorMatrix type="matrix" values="0 0 0 0 1 0 0 0 0 1 0 0 0 0 1 0 0 0 1 0"/>
<feBlend mode="normal" in2="BackgroundImageFix" result="effect1_dropShadow_3643_2933"/>
<feBlend mode="normal" in="SourceGraphic" in2="effect1_dropShadow_3643_2933" result="shape"/>
</filter>
<clipPath id="clip0_3643_2933">
<rect width="40" height="40" fill="white"/>
</clipPath>
</defs>
</svg>
