<svg width="40" height="40" viewBox="0 0 40 40" fill="none" xmlns="http://www.w3.org/2000/svg">
<g filter="url(#filter0_d_3643_2926)">
<path d="M12.3322 28.75C11.1655 29.7222 9.95048 30.1667 8.68715 30.0833C7.42382 30 6.31937 29.5694 5.37382 28.7917C4.42826 28.0139 3.78271 26.9933 3.43715 25.73C3.0916 24.4667 3.32048 23.1678 4.12382 21.8333L7.24882 16.6667C6.55437 16.0556 6.00604 15.3194 5.60382 14.4583C5.2016 13.5972 4.99993 12.6667 4.99882 11.6667C4.99882 9.83333 5.6516 8.26389 6.95715 6.95833C8.26271 5.65278 9.83215 5 11.6655 5C13.4988 5 15.0683 5.65278 16.3738 6.95833C17.6794 8.26389 18.3322 9.83333 18.3322 11.6667C18.3322 13.5 17.6794 15.0694 16.3738 16.375C15.0683 17.6806 13.4988 18.3333 11.6655 18.3333C11.4155 18.3333 11.1655 18.3194 10.9155 18.2917C10.6655 18.2639 10.4294 18.2222 10.2072 18.1667L6.99882 23.5833C6.69326 24.0833 6.59604 24.5767 6.70715 25.0633C6.81826 25.55 7.05437 25.9456 7.41548 26.25C7.7766 26.5544 8.20715 26.7283 8.70715 26.7717C9.20715 26.815 9.69326 26.6411 10.1655 26.25L27.6655 11.2083C28.8322 10.2361 30.0544 9.79833 31.3321 9.895C32.6099 9.99167 33.721 10.4294 34.6655 11.2083C35.6099 11.9872 36.2488 13.0083 36.5821 14.2717C36.9155 15.535 36.6794 16.8333 35.8738 18.1667L32.7488 23.3333C33.4433 23.9444 33.9922 24.6806 34.3955 25.5417C34.7988 26.4028 34.9999 27.3333 34.9988 28.3333C34.9988 30.1667 34.346 31.7361 33.0405 33.0417C31.7349 34.3472 30.1655 35 28.3321 35C26.4988 35 24.9294 34.3472 23.6238 33.0417C22.3183 31.7361 21.6655 30.1667 21.6655 28.3333C21.6655 26.5 22.3183 24.9306 23.6238 23.625C24.9294 22.3194 26.4988 21.6667 28.3321 21.6667C28.5821 21.6667 28.8255 21.6806 29.0621 21.7083C29.2988 21.7361 29.5277 21.7778 29.7488 21.8333L32.9988 16.4167C33.3044 15.9167 33.4016 15.4233 33.2905 14.9367C33.1794 14.45 32.9433 14.0544 32.5821 13.75C32.221 13.4456 31.7905 13.2722 31.2905 13.23C30.7905 13.1878 30.3044 13.3611 29.8321 13.75L12.3322 28.75Z" fill="#7958FF"/>
</g>
<defs>
<filter id="filter0_d_3643_2926" x="3.28125" y="5" width="33.4453" height="33" filterUnits="userSpaceOnUse" color-interpolation-filters="sRGB">
<feFlood flood-opacity="0" result="BackgroundImageFix"/>
<feColorMatrix in="SourceAlpha" type="matrix" values="0 0 0 0 0 0 0 0 0 0 0 0 0 0 0 0 0 0 127 0" result="hardAlpha"/>
<feOffset dy="3"/>
<feComposite in2="hardAlpha" operator="out"/>
<feColorMatrix type="matrix" values="0 0 0 0 1 0 0 0 0 1 0 0 0 0 1 0 0 0 1 0"/>
<feBlend mode="normal" in2="BackgroundImageFix" result="effect1_dropShadow_3643_2926"/>
<feBlend mode="normal" in="SourceGraphic" in2="effect1_dropShadow_3643_2926" result="shape"/>
</filter>
</defs>
</svg>
