<svg width="40" height="40" viewBox="0 0 40 40" fill="none" xmlns="http://www.w3.org/2000/svg">
<g filter="url(#filter0_d_3390_2180)">
<path d="M34.6667 12.9934C36.4013 16.6212 36.7306 20.763 35.591 24.6193C34.4515 28.4756 31.9239 31.7731 28.496 33.8754C25.0681 35.9777 20.9831 36.7358 17.0292 36.0032C13.0753 35.2707 9.53289 33.0996 7.08566 29.9088C4.63842 26.7181 3.45984 22.7339 3.77738 18.7253C4.09492 14.7167 5.88608 10.9678 8.80514 8.20215C11.7242 5.43649 15.5643 3.85014 19.5842 3.74926C23.6041 3.64839 27.5189 5.04013 30.573 7.65589L34.1152 4.11215C34.3497 3.87759 34.6678 3.74583 34.9995 3.74583C35.3312 3.74583 35.6494 3.87759 35.8839 4.11215C36.1185 4.3467 36.2502 4.66482 36.2502 4.99652C36.2502 5.32823 36.1185 5.64634 35.8839 5.8809L26.187 15.5793L20.2948 21.4715L16.5527 25.2137C17.5201 25.8536 18.6466 26.2116 19.806 26.2478C20.9653 26.2839 22.1119 25.9966 23.1173 25.4182C24.1227 24.8398 24.9474 23.9929 25.4989 22.9725C26.0504 21.9521 26.3071 20.7983 26.2402 19.6403C26.2215 19.3087 26.3353 18.9834 26.5566 18.7358C26.7778 18.4882 27.0883 18.3386 27.4198 18.32C27.7514 18.3013 28.0767 18.4151 28.3243 18.6364C28.5719 18.8576 28.7215 19.1681 28.7402 19.4996C28.841 21.2696 28.4018 23.0285 27.4807 24.5433C26.5596 26.0581 25.2 27.2574 23.5821 27.9823C21.9642 28.7073 20.1643 28.9236 18.4207 28.6028C16.6771 28.2819 15.0721 27.439 13.8183 26.1856C12.2589 24.6203 11.3493 22.5231 11.2723 20.315C11.1953 18.1068 11.9565 15.9513 13.4031 14.2812C14.8496 12.6111 16.8745 11.5501 19.071 11.3113C21.2675 11.0724 23.4731 11.6733 25.2448 12.9934L28.7964 9.43558C26.1914 7.27276 22.8792 6.14865 19.4959 6.27914C16.1126 6.40963 12.8967 7.78552 10.4661 10.1426C8.0354 12.4996 6.56126 15.6716 6.32678 19.0493C6.09231 22.427 7.11403 25.7722 9.19572 28.4425C11.2774 31.1128 14.2723 32.9198 17.6051 33.5165C20.9379 34.1132 24.3737 33.4575 27.2525 31.6754C30.1314 29.8933 32.2503 27.1103 33.2023 23.8611C34.1544 20.6119 33.8723 17.1255 32.4105 14.0715C32.2675 13.7723 32.2492 13.4286 32.3597 13.1159C32.4702 12.8033 32.7003 12.5473 32.9995 12.4043C33.2987 12.2614 33.6425 12.2431 33.9551 12.3536C34.2678 12.464 34.5237 12.6942 34.6667 12.9934Z" fill="#7958FF"/>
</g>
<defs>
<filter id="filter0_d_3390_2180" x="3.72656" y="3.74414" width="33.5312" height="34.5312" filterUnits="userSpaceOnUse" color-interpolation-filters="sRGB">
<feFlood flood-opacity="0" result="BackgroundImageFix"/>
<feColorMatrix in="SourceAlpha" type="matrix" values="0 0 0 0 0 0 0 0 0 0 0 0 0 0 0 0 0 0 127 0" result="hardAlpha"/>
<feOffset dx="1" dy="2"/>
<feComposite in2="hardAlpha" operator="out"/>
<feColorMatrix type="matrix" values="0 0 0 0 1 0 0 0 0 1 0 0 0 0 1 0 0 0 1 0"/>
<feBlend mode="normal" in2="BackgroundImageFix" result="effect1_dropShadow_3390_2180"/>
<feBlend mode="normal" in="SourceGraphic" in2="effect1_dropShadow_3390_2180" result="shape"/>
</filter>
</defs>
</svg>
