<svg width="50" height="40" viewBox="0 0 50 40" fill="none" xmlns="http://www.w3.org/2000/svg">
<g clip-path="url(#clip0_3643_2935)">
<g filter="url(#filter0_d_3643_2935)">
<path d="M25.2656 6.65625L17.7031 12.7813C16.4453 13.7969 16.2031 15.625 17.1562 16.9297C18.1641 18.3203 20.125 18.5938 21.4766 17.5391L29.2344 11.5078C29.7812 11.0859 30.5625 11.1797 30.9922 11.7266C31.4219 12.2734 31.3203 13.0547 30.7734 13.4844L29.1406 14.75L42.9844 27.5H46.25C48.3203 27.5 50 25.8203 50 23.75V13.75C50 11.6797 48.3203 10 46.25 10H39.9453L39.6406 9.80469L33.9688 6.17188C32.7734 5.40625 31.375 5 29.9531 5C28.25 5 26.5938 5.58594 25.2656 6.65625ZM27.0469 16.375L23.0078 19.5156C20.5469 21.4375 16.9766 20.9375 15.1328 18.4062C13.3984 16.0234 13.8359 12.6953 16.125 10.8438L22.625 5.58594C21.7188 5.20312 20.7422 5.00781 19.75 5.00781C18.2812 5 16.8516 5.4375 15.625 6.25L10 10H3.75C1.67969 10 0 11.6797 0 13.75V23.75C0 25.8203 1.67969 27.5 3.75 27.5H12.2031L19.3438 34.0156C20.875 35.4141 23.2422 35.3047 24.6406 33.7734C25.0703 33.2969 25.3594 32.7422 25.5078 32.1641L26.8359 33.3828C28.3594 34.7812 30.7344 34.6797 32.1328 33.1562C32.4844 32.7734 32.7422 32.3281 32.9062 31.8672C34.4219 32.8828 36.4844 32.6719 37.7578 31.2812C39.1562 29.7578 39.0547 27.3828 37.5312 25.9844L27.0469 16.375Z" fill="#7958FF"/>
</g>
</g>
<defs>
<filter id="filter0_d_3643_2935" x="0" y="5" width="51" height="31.998" filterUnits="userSpaceOnUse" color-interpolation-filters="sRGB">
<feFlood flood-opacity="0" result="BackgroundImageFix"/>
<feColorMatrix in="SourceAlpha" type="matrix" values="0 0 0 0 0 0 0 0 0 0 0 0 0 0 0 0 0 0 127 0" result="hardAlpha"/>
<feOffset dx="1" dy="2"/>
<feComposite in2="hardAlpha" operator="out"/>
<feColorMatrix type="matrix" values="0 0 0 0 1 0 0 0 0 1 0 0 0 0 1 0 0 0 1 0"/>
<feBlend mode="normal" in2="BackgroundImageFix" result="effect1_dropShadow_3643_2935"/>
<feBlend mode="normal" in="SourceGraphic" in2="effect1_dropShadow_3643_2935" result="shape"/>
</filter>
<clipPath id="clip0_3643_2935">
<rect width="50" height="40" fill="white"/>
</clipPath>
</defs>
</svg>
