<svg width="40" height="40" viewBox="0 0 40 40" fill="none" xmlns="http://www.w3.org/2000/svg">
<path d="M20 25C22.7614 25 25 22.7614 25 20C25 17.2386 22.7614 15 20 15C17.2386 15 15 17.2386 15 20C15 22.7614 17.2386 25 20 25Z" fill="#7958FF"/>
<g filter="url(#filter0_d_3643_2930)">
<path d="M20 2.5C10.375 2.5 2.5 10.375 2.5 20C2.5 29.625 10.375 37.5 20 37.5C29.625 37.5 37.5 29.625 37.5 20C37.5 10.375 29.625 2.5 20 2.5ZM20 27.5C15.875 27.5 12.5 24.125 12.5 20C12.5 15.875 15.875 12.5 20 12.5C24.125 12.5 27.5 15.875 27.5 20C27.5 24.125 24.125 27.5 20 27.5Z" fill="#7958FF"/>
</g>
<defs>
<filter id="filter0_d_3643_2930" x="2.5" y="2.5" width="36" height="37" filterUnits="userSpaceOnUse" color-interpolation-filters="sRGB">
<feFlood flood-opacity="0" result="BackgroundImageFix"/>
<feColorMatrix in="SourceAlpha" type="matrix" values="0 0 0 0 0 0 0 0 0 0 0 0 0 0 0 0 0 0 127 0" result="hardAlpha"/>
<feOffset dx="1" dy="2"/>
<feComposite in2="hardAlpha" operator="out"/>
<feColorMatrix type="matrix" values="0 0 0 0 1 0 0 0 0 1 0 0 0 0 1 0 0 0 1 0"/>
<feBlend mode="normal" in2="BackgroundImageFix" result="effect1_dropShadow_3643_2930"/>
<feBlend mode="normal" in="SourceGraphic" in2="effect1_dropShadow_3643_2930" result="shape"/>
</filter>
</defs>
</svg>
