<svg width="40" height="40" viewBox="0 0 40 40" fill="none" xmlns="http://www.w3.org/2000/svg">
<g filter="url(#filter0_d_3390_2186)">
<path d="M30.0167 15.6304C30.5989 15.5139 31.1993 15.5233 31.7776 15.6578C32.3559 15.7923 32.8988 16.0488 33.3699 16.4102C33.841 16.7716 34.2294 17.2296 34.5091 17.7533C34.7888 18.277 34.9533 18.8545 34.9917 19.447L35 19.717V28.9337C35 30.039 34.6339 31.1131 33.9587 31.9882C33.2835 32.8633 32.3375 33.49 31.2683 33.7703L30.98 33.837L21.65 35.7037C21.0678 35.8201 20.4674 35.8108 19.8891 35.6763C19.3108 35.5418 18.7679 35.2852 18.2968 34.9238C17.8257 34.5624 17.4373 34.1045 17.1576 33.5807C16.8779 33.057 16.7133 32.4795 16.675 31.887L16.6667 31.617V22.4004C16.6666 21.2951 17.0328 20.2209 17.708 19.3459C18.3831 18.4708 19.3292 17.8441 20.3983 17.5637L20.6867 17.497L30.0167 15.6304ZM24.1833 10.132C24.7656 10.0156 25.3659 10.0249 25.9443 10.1594C26.5226 10.2939 27.0655 10.5505 27.5365 10.9119C28.0076 11.2733 28.396 11.7312 28.6757 12.255C28.9554 12.7787 29.12 13.3562 29.1583 13.9487L29.1667 14.2187V14.4387L20.36 16.2004C18.9059 16.4913 17.5903 17.2588 16.6213 18.3814C15.6524 19.504 15.0854 20.9177 15.01 22.3987L15 22.737V30.287C13.9429 30.2873 12.9253 29.8857 12.1532 29.1638C11.3811 28.4418 10.9123 27.4534 10.8417 26.3987L10.8333 26.1187V16.902C10.8332 15.797 11.1991 14.723 11.874 13.8479C12.5488 12.9729 13.4945 12.346 14.5633 12.0654L14.8533 11.9987L24.1833 10.132ZM18.35 4.29869C18.9321 4.18227 19.5323 4.19157 20.1105 4.32598C20.6887 4.46039 21.2316 4.71679 21.7026 5.07801C22.1737 5.43924 22.5621 5.89695 22.8419 6.42049C23.1217 6.94404 23.2864 7.52132 23.325 8.11369L23.3333 8.38369V8.60369L14.5267 10.3637C13.0723 10.6547 11.7565 11.4225 10.7875 12.5454C9.8185 13.6683 9.25166 15.0824 9.17667 16.5637L9.16667 16.902V24.452C8.10961 24.4523 7.09197 24.0507 6.31988 23.3288C5.54778 22.6068 5.07894 21.6184 5.00833 20.5637L5 20.2837V11.067C4.99986 9.96197 5.3658 8.888 6.04064 8.01294C6.71548 7.13788 7.66119 6.51103 8.73 6.23035L9.02 6.16369L18.35 4.29869Z" fill="#7958FF"/>
</g>
<defs>
<filter id="filter0_d_3390_2186" x="5" y="4.21777" width="30" height="33.5664" filterUnits="userSpaceOnUse" color-interpolation-filters="sRGB">
<feFlood flood-opacity="0" result="BackgroundImageFix"/>
<feColorMatrix in="SourceAlpha" type="matrix" values="0 0 0 0 0 0 0 0 0 0 0 0 0 0 0 0 0 0 127 0" result="hardAlpha"/>
<feOffset dy="2"/>
<feComposite in2="hardAlpha" operator="out"/>
<feColorMatrix type="matrix" values="0 0 0 0 1 0 0 0 0 1 0 0 0 0 1 0 0 0 1 0"/>
<feBlend mode="normal" in2="BackgroundImageFix" result="effect1_dropShadow_3390_2186"/>
<feBlend mode="normal" in="SourceGraphic" in2="effect1_dropShadow_3390_2186" result="shape"/>
</filter>
</defs>
</svg>
