<svg width="40" height="40" viewBox="0 0 40 40" fill="none" xmlns="http://www.w3.org/2000/svg">
<g filter="url(#filter0_d_3390_2192)">
<path d="M34.9974 31.6667H38.3307V35H1.66406V31.6667H4.9974V6.66667C4.9974 6.22464 5.17299 5.80072 5.48555 5.48816C5.79811 5.17559 6.22203 5 6.66406 5H23.3307C23.7728 5 24.1967 5.17559 24.5092 5.48816C24.8218 5.80072 24.9974 6.22464 24.9974 6.66667V31.6667H28.3307V15H33.3307C33.7728 15 34.1967 15.1756 34.5092 15.4882C34.8218 15.8007 34.9974 16.2246 34.9974 16.6667V31.6667ZM11.6641 18.3333V21.6667H18.3307V18.3333H11.6641ZM11.6641 11.6667V15H18.3307V11.6667H11.6641Z" fill="#7958FF"/>
</g>
<defs>
<filter id="filter0_d_3390_2192" x="1.66406" y="5" width="37.668" height="32" filterUnits="userSpaceOnUse" color-interpolation-filters="sRGB">
<feFlood flood-opacity="0" result="BackgroundImageFix"/>
<feColorMatrix in="SourceAlpha" type="matrix" values="0 0 0 0 0 0 0 0 0 0 0 0 0 0 0 0 0 0 127 0" result="hardAlpha"/>
<feOffset dx="1" dy="2"/>
<feComposite in2="hardAlpha" operator="out"/>
<feColorMatrix type="matrix" values="0 0 0 0 1 0 0 0 0 1 0 0 0 0 1 0 0 0 1 0"/>
<feBlend mode="normal" in2="BackgroundImageFix" result="effect1_dropShadow_3390_2192"/>
<feBlend mode="normal" in="SourceGraphic" in2="effect1_dropShadow_3390_2192" result="shape"/>
</filter>
</defs>
</svg>
