<svg width="40" height="40" viewBox="0 0 40 40" fill="none" xmlns="http://www.w3.org/2000/svg">
<path d="M18.184 3.44496C19.3615 3.04178 20.6397 3.04178 21.8173 3.44496C23.469 4.00913 26.5239 5.11413 30.9814 6.97079C34.1898 8.30829 36.4656 9.34329 37.9981 10.0775C38.9973 10.5558 39.5706 11.4983 39.5706 12.5C39.5706 13.5016 38.9973 14.4441 37.9973 14.9225C36.4656 15.6558 34.1898 16.6916 30.9814 18.0291C26.5239 19.8858 23.469 20.9908 21.8173 21.5541C20.6397 21.9573 19.3615 21.9573 18.184 21.5541C16.5323 20.9908 13.4773 19.8858 9.01978 18.0291C7.81368 17.5274 6.61278 17.0132 5.41728 16.4866V29.7966C6.25014 30.0927 6.95173 30.6733 7.39835 31.436C7.84496 32.1988 8.00791 33.0948 7.85846 33.966C7.70901 34.8371 7.25677 35.6276 6.58147 36.1979C5.90617 36.7682 5.05119 37.0818 4.16728 37.0833C3.28211 37.0841 2.42519 36.7717 1.74819 36.2014C1.07118 35.6311 0.617722 34.8398 0.468059 33.9673C0.318397 33.0949 0.482177 32.1976 0.930418 31.4343C1.37866 30.6711 2.08246 30.0909 2.91728 29.7966V15.355C2.58728 15.2011 2.28284 15.0569 2.00395 14.9225C1.00395 14.4441 0.430616 13.5016 0.430616 12.5C0.430616 11.4983 1.00395 10.5558 2.00395 10.0775C3.53562 9.34329 5.81145 8.30829 9.02062 6.97079C13.4773 5.11413 16.5323 4.00913 18.1848 3.44579" fill="#7958FF"/>
<path d="M17.3741 23.4993C14.1805 22.4079 11.0253 21.2071 7.91406 19.8993V20.1401C7.91406 22.7584 8.04823 24.4351 8.18823 25.4734C8.35406 26.7034 9.07073 27.7843 10.2024 28.3768C11.8416 29.2343 15.0116 30.4176 19.9974 30.4176C24.9832 30.4176 28.1532 29.2343 29.7924 28.3759C30.9241 27.7843 31.6416 26.7034 31.8066 25.4734C31.9466 24.4351 32.0807 22.7584 32.0807 20.1401V19.8984C28.9695 21.2063 25.8143 22.407 22.6207 23.4984C20.9202 24.0799 19.0746 24.0807 17.3741 23.4993Z" fill="white"/>
</svg>
