<svg width="40" height="40" viewBox="0 0 40 40" fill="none" xmlns="http://www.w3.org/2000/svg">
<path d="M11.2448 32.8089C13.7382 34.7727 16.8209 35.8385 19.9948 35.8339C23.2973 35.8339 26.3365 34.7039 28.7448 32.8089M15.8281 8.12305C10.0373 9.90221 5.82812 15.293 5.82812 21.6672C5.82812 23.2714 6.09479 24.813 6.58646 26.2505M24.1615 8.12305C29.9523 9.90221 34.1615 15.293 34.1615 21.6672C34.1615 23.2714 33.8948 24.813 33.4031 26.2505" stroke="white" stroke-width="2"/>
<path d="M35.8307 30.0001C35.8307 31.1185 35.3907 32.1335 34.6741 32.8818C34.0048 33.581 33.113 34.0254 32.1518 34.1387C31.1906 34.252 30.2199 34.0271 29.4064 33.5027C28.5929 32.9783 27.9874 32.187 27.6938 31.2647C27.4001 30.3425 27.4367 29.3468 27.7973 28.4486C28.1578 27.5504 28.8198 26.8057 29.6696 26.3424C30.5193 25.8791 31.5039 25.7261 32.4542 25.9096C33.4045 26.0931 34.2613 26.6018 34.8774 27.3482C35.4935 28.0946 35.8306 29.0323 35.8307 30.0001ZM12.4974 30.0001C12.4974 31.1185 12.0574 32.1335 11.3407 32.8818C10.6715 33.581 9.77968 34.0254 8.81847 34.1387C7.85725 34.252 6.88658 34.0271 6.07309 33.5027C5.25961 32.9783 4.65407 32.187 4.36044 31.2647C4.06681 30.3425 4.1034 29.3468 4.46393 28.4486C4.82446 27.5504 5.48644 26.8057 6.33622 26.3424C7.186 25.8791 8.17056 25.7261 9.12087 25.9096C10.0712 26.0931 10.9279 26.6018 11.5441 27.3482C12.1602 28.0946 12.4973 29.0323 12.4974 30.0001ZM24.1641 7.50014C24.1641 8.61847 23.7241 9.63347 23.0074 10.3818C22.3381 11.081 21.4463 11.5254 20.4851 11.6387C19.5239 11.752 18.5532 11.5271 17.7398 11.0027C16.9263 10.4783 16.3207 9.687 16.0271 8.76475C15.7335 7.84249 15.7701 6.84678 16.1306 5.94857C16.4911 5.05036 17.1531 4.30567 18.0029 3.84237C18.8527 3.37907 19.8372 3.22606 20.7875 3.4096C21.7378 3.59314 22.5946 4.10178 23.2107 4.84821C23.8269 5.59463 24.1639 6.53227 24.1641 7.50014Z" fill="#7958FF" stroke="white" stroke-width="2" stroke-linecap="round" stroke-linejoin="round"/>
</svg>
