<svg width="40" height="40" viewBox="0 0 40 40" fill="none" xmlns="http://www.w3.org/2000/svg">
<path d="M18.168 33.1827C18.768 33.266 19.368 33.3327 20.0013 33.3327C23.5002 33.3312 26.8583 31.9544 29.3513 29.4993L24.818 21.666L18.168 33.1827ZM16.4346 32.8327L20.9513 24.9993H7.6513C8.42161 26.888 9.61343 28.5757 11.1357 29.9333C12.658 31.2909 14.4705 32.2826 16.4346 32.8327ZM14.2346 19.9993L9.5013 11.816C7.66809 14.1501 6.67047 17.0314 6.66797 19.9993C6.66797 21.1493 6.83464 22.266 7.1013 23.3327H16.1513L14.2346 19.9993ZM30.5013 28.1827C32.3345 25.8486 33.3321 22.9673 33.3346 19.9993C33.3346 18.8493 33.168 17.7327 32.9013 16.666H23.8513L30.5013 28.1827ZM22.8846 14.9993H32.3513C31.5793 13.1088 30.3849 11.42 28.8596 10.0623C27.3343 8.70451 25.5185 7.71381 23.5513 7.16602L19.0346 14.9993H22.8846ZM17.118 14.9993L21.8346 6.79935C21.2346 6.71602 20.618 6.66602 20.0013 6.66602C16.368 6.66602 13.068 8.13268 10.668 10.4993L15.2013 18.3327L17.118 14.9993Z" fill="#7958FF"/>
<path d="M19.9987 36.6673C29.1987 36.6673 36.6654 29.2007 36.6654 20.0007C36.6654 12.084 31.1487 5.46732 23.7487 3.76732L23.6154 3.70065L23.5987 3.73398C22.432 3.48398 21.232 3.33398 19.9987 3.33398C10.7987 3.33398 3.33203 10.8007 3.33203 20.0007C3.33203 29.2007 10.7987 36.6673 19.9987 36.6673ZM19.9987 33.334C19.3654 33.334 18.7654 33.2673 18.1654 33.184L24.8154 21.6673L29.3487 29.5007C26.8557 31.9557 23.4976 33.3325 19.9987 33.334ZM33.332 20.0007C33.332 23.084 32.2654 25.9173 30.4987 28.184L23.832 16.6673H32.882C33.1654 17.734 33.332 18.8507 33.332 20.0007ZM32.3487 15.0007H19.032L23.5487 7.16732C27.5487 8.26732 30.7987 11.2007 32.3487 15.0007ZM19.9987 6.66732C20.6154 6.66732 21.232 6.71732 21.832 6.80065L17.1154 15.0007L15.1987 18.334L10.6654 10.5007C13.1502 8.0435 16.5041 6.66598 19.9987 6.66732ZM6.66536 20.0007C6.66536 16.9173 7.73203 14.084 9.4987 11.8173L14.232 20.0007L16.1487 23.334H7.0987C6.83203 22.2673 6.66536 21.1507 6.66536 20.0007ZM17.1154 25.0007H20.9487L16.432 32.834C14.4659 32.2839 12.6512 31.2924 11.1262 29.9349C9.60123 28.5774 8.40616 26.8898 7.63203 25.0007H17.1154Z" fill="white"/>
</svg>
