<svg width="72" height="72" viewBox="0 0 72 72" fill="none" xmlns="http://www.w3.org/2000/svg">
<rect width="72" height="72" rx="16" fill="white" fill-opacity="0.08"/>
<rect x="0.5" y="0.5" width="71" height="71" rx="15.5" stroke="white" stroke-opacity="0.08"/>
<path d="M23.5002 47.153V34.733L21.3848 36.3776C21.092 36.5912 20.7822 36.6755 20.4552 36.6305C20.1286 36.5858 19.8583 36.417 19.6444 36.1243C19.4308 35.8315 19.348 35.5216 19.3961 35.1947C19.4441 34.8677 19.6061 34.5975 19.8819 34.3839L34.151 23.4384C34.4244 23.2376 34.7187 23.0869 35.034 22.9864C35.349 22.8861 35.671 22.8359 36.0002 22.8359C36.3294 22.8359 36.6488 22.8861 36.9585 22.9864C37.2683 23.0869 37.5599 23.2376 37.8335 23.4384L52.1444 34.3839C52.4199 34.5975 52.5776 34.8677 52.6173 35.1947C52.6567 35.5216 52.5697 35.8315 52.356 36.1243C52.1422 36.3998 51.8719 36.5601 51.5452 36.6051C51.2183 36.6498 50.9169 36.5654 50.641 36.3518L48.5002 34.733V47.153C48.5002 47.9841 48.2059 48.6941 47.6173 49.283C47.0284 49.8716 46.3184 50.1659 45.4873 50.1659H26.5131C25.682 50.1659 24.972 49.8716 24.3831 49.283C23.7945 48.6941 23.5002 47.9841 23.5002 47.153ZM26.5131 47.6659H45.4873C45.637 47.6659 45.7599 47.6179 45.856 47.5218C45.9522 47.4257 46.0002 47.3027 46.0002 47.153V32.8326L36.3048 25.448C36.2192 25.3733 36.1177 25.3359 36.0002 25.3359C35.8827 25.3359 35.7812 25.3733 35.6956 25.448L26.0002 32.8326V47.153C26.0002 47.3027 26.0483 47.4257 26.1444 47.5218C26.2405 47.6179 26.3634 47.6659 26.5131 47.6659ZM29.3336 40.8068C29.7416 40.8068 30.0894 40.6632 30.3769 40.3759C30.6641 40.0884 30.8077 39.7407 30.8077 39.3326C30.8077 38.9245 30.6641 38.5768 30.3769 38.2893C30.0894 38.002 29.7416 37.8584 29.3336 37.8584C28.9255 37.8584 28.5777 38.002 28.2902 38.2893C28.003 38.5768 27.8594 38.9245 27.8594 39.3326C27.8594 39.7407 28.003 40.0884 28.2902 40.3759C28.5777 40.6632 28.9255 40.8068 29.3336 40.8068ZM36.0002 40.8068C36.4083 40.8068 36.7561 40.6632 37.0436 40.3759C37.3308 40.0884 37.4744 39.7407 37.4744 39.3326C37.4744 38.9245 37.3308 38.5768 37.0436 38.2893C36.7561 38.002 36.4083 37.8584 36.0002 37.8584C35.5922 37.8584 35.2444 38.002 34.9569 38.2893C34.6697 38.5768 34.526 38.9245 34.526 39.3326C34.526 39.7407 34.6697 40.0884 34.9569 40.3759C35.2444 40.6632 35.5922 40.8068 36.0002 40.8068ZM42.6669 40.8068C43.0749 40.8068 43.4227 40.6632 43.7102 40.3759C43.9974 40.0884 44.141 39.7407 44.141 39.3326C44.141 38.9245 43.9974 38.5768 43.7102 38.2893C43.4227 38.002 43.0749 37.8584 42.6669 37.8584C42.2588 37.8584 41.911 38.002 41.6235 38.2893C41.3363 38.5768 41.1927 38.9245 41.1927 39.3326C41.1927 39.7407 41.3363 40.0884 41.6235 40.3759C41.911 40.6632 42.2588 40.8068 42.6669 40.8068ZM26.5131 47.6659H26.0002H46.0002H26.5131Z" fill="#9277FF"/>
</svg>
