<svg width="72" height="72" viewBox="0 0 72 72" fill="none" xmlns="http://www.w3.org/2000/svg">
<rect width="72" height="72" rx="16" fill="white" fill-opacity="0.08"/>
<rect x="0.5" y="0.5" width="71" height="71" rx="15.5" stroke="white" stroke-opacity="0.08"/>
<path d="M29.9103 35.1664V28.4997C29.9103 27.9656 30.0972 27.5115 30.4711 27.1377C30.845 26.7638 31.299 26.5768 31.8332 26.5768C32.3673 26.5768 32.8214 26.7638 33.1953 27.1377C33.5691 27.5115 33.7561 27.9656 33.7561 28.4997V35.1664C33.7561 35.7006 33.5691 36.1546 33.1953 36.5285C32.8214 36.9024 32.3673 37.0893 31.8332 37.0893C31.299 37.0893 30.845 36.9024 30.4711 36.5285C30.0972 36.1546 29.9103 35.7006 29.9103 35.1664ZM37.6986 36.0577V21.8331C37.6986 21.2989 37.8855 20.8449 38.2594 20.471C38.6333 20.0971 39.0873 19.9102 39.6215 19.9102C40.1557 19.9102 40.6097 20.0971 40.9836 20.471C41.3575 20.8449 41.5444 21.2989 41.5444 21.8331V36.0577C41.5444 36.6985 41.3471 37.1792 40.9523 37.4997C40.5576 37.8203 40.1148 37.9806 39.624 37.9806C39.1332 37.9806 38.6896 37.8203 38.2932 37.4997C37.8968 37.1792 37.6986 36.6985 37.6986 36.0577ZM22.0898 40.7177V35.1664C22.0898 34.6322 22.2768 34.1782 22.6507 33.8043C23.0246 33.4304 23.4786 33.2435 24.0128 33.2435C24.5469 33.2435 25.001 33.4304 25.3748 33.8043C25.7487 34.1782 25.9357 34.6322 25.9357 35.1664V40.7177C25.9357 41.3588 25.7383 41.8395 25.3436 42.1597C24.9486 42.4803 24.5057 42.6406 24.0148 42.6406C23.524 42.6406 23.0804 42.4803 22.684 42.1597C22.2879 41.8395 22.0898 41.3588 22.0898 40.7177ZM24.994 50.6664C24.4465 50.6664 24.0644 50.4115 23.8478 49.9018C23.6308 49.3924 23.7221 48.9378 24.1215 48.5381L30.7948 41.8652C31.0682 41.5915 31.401 41.4409 31.7932 41.4131C32.1851 41.3853 32.5329 41.5082 32.8365 41.7818L37.6986 45.9614L47.9936 35.6664H45.9998C45.6457 35.6664 45.3489 35.5465 45.1094 35.3068C44.8697 35.0671 44.7498 34.7702 44.7498 34.416C44.7498 34.0615 44.8697 33.7647 45.1094 33.5256C45.3489 33.2861 45.6457 33.1664 45.9998 33.1664H50.7436C51.1703 33.1664 51.528 33.3107 51.8169 33.5993C52.1055 33.8882 52.2498 34.246 52.2498 34.6727V39.4164C52.2498 39.7706 52.13 40.0674 51.8903 40.3068C51.6505 40.5465 51.3536 40.6664 50.9994 40.6664C50.645 40.6664 50.3482 40.5465 50.109 40.3068C49.8696 40.0674 49.7498 39.7706 49.7498 39.4164V37.4227L38.7882 48.3843C38.5148 48.6579 38.1821 48.8086 37.7898 48.8364C37.3979 48.8642 37.0501 48.7413 36.7465 48.4677L31.8844 44.2881L25.8782 50.2947C25.7729 50.3978 25.6412 50.4856 25.4832 50.5581C25.3254 50.6303 25.1623 50.6664 24.994 50.6664Z" fill="#9277FF"/>
</svg>
