<svg width="72" height="72" viewBox="0 0 72 72" fill="none" xmlns="http://www.w3.org/2000/svg">
<rect width="72" height="72" rx="16" fill="white" fill-opacity="0.08"/>
<rect x="0.5" y="0.5" width="71" height="71" rx="15.5" stroke="white" stroke-opacity="0.08"/>
<path d="M35.9993 50.1829C35.6168 50.1829 35.2445 50.1113 34.8823 49.9683C34.52 49.8252 34.2012 49.6105 33.9256 49.3241L23.0793 38.4362C22.1071 37.464 21.3785 36.3609 20.8935 35.127C20.4085 33.8929 20.166 32.6166 20.166 31.2983C20.166 28.6724 21.0057 26.4279 22.6852 24.5645C24.3646 22.7012 26.4437 21.7695 28.9223 21.7695C30.1595 21.7695 31.3363 22.0201 32.4527 22.5212C33.5693 23.0223 34.5646 23.7237 35.4385 24.6254L35.9993 25.2183L36.5281 24.6574C37.3956 23.7344 38.3903 23.0223 39.5123 22.5212C40.6339 22.0201 41.8081 21.7695 43.0348 21.7695C45.5134 21.7695 47.5993 22.7012 49.2927 24.5645C50.986 26.4279 51.8327 28.6586 51.8327 31.2566C51.8327 32.5858 51.5859 33.8673 51.0923 35.1012C50.5987 36.3354 49.8743 37.4386 48.9193 38.4108L38.0314 49.3241C37.745 49.6105 37.4303 49.8252 37.0873 49.9683C36.7445 50.1113 36.3818 50.1829 35.9993 50.1829ZM37.666 29.7504C37.8796 29.7504 38.0793 29.8011 38.2652 29.9024C38.4513 30.0041 38.5977 30.1394 38.7043 30.3083L41.6498 34.7504H48.5027C48.7932 34.1926 49.0112 33.6199 49.1564 33.0324C49.3017 32.4449 49.3691 31.853 49.3585 31.2566C49.3135 29.3399 48.6906 27.7048 47.4898 26.3512C46.2889 24.9976 44.8039 24.3208 43.0348 24.3208C42.1523 24.3208 41.2991 24.4955 40.4752 24.8449C39.6516 25.1944 38.9374 25.7045 38.3327 26.3754L37.0152 27.792C36.8871 27.9481 36.7334 28.0641 36.5539 28.1399C36.3745 28.2158 36.1896 28.2537 35.9993 28.2537C35.8091 28.2537 35.6216 28.213 35.4368 28.1316C35.2521 28.0505 35.0871 27.9373 34.9418 27.792L33.6243 26.3754C33.0196 25.7045 32.3096 25.1858 31.4943 24.8191C30.6793 24.4527 29.822 24.2695 28.9223 24.2695C27.1531 24.2695 25.6681 24.9549 24.4673 26.3258C23.2664 27.6963 22.666 29.3399 22.666 31.2566C22.666 31.8636 22.7343 32.4581 22.871 33.0404C23.008 33.6226 23.2163 34.1926 23.496 34.7504H30.9993C31.213 34.7504 31.41 34.8011 31.5906 34.9024C31.7712 35.0041 31.9149 35.1394 32.0218 35.3083L33.961 38.1958L36.4835 30.6287C36.5732 30.3701 36.7238 30.1591 36.9352 29.9958C37.1468 29.8322 37.3905 29.7504 37.666 29.7504ZM38.0377 33.8049L35.5152 41.372C35.4255 41.6306 35.268 41.8416 35.0427 42.0049C34.8171 42.1686 34.5666 42.2504 34.291 42.2504C34.0774 42.2504 33.8803 42.1997 33.6998 42.0983C33.5192 41.9966 33.3755 41.8613 33.2685 41.6924L30.3073 37.2504H25.4318L35.7077 47.542C35.7632 47.5976 35.8118 47.6323 35.8535 47.6462C35.8952 47.6601 35.9438 47.667 35.9993 47.667C36.0549 47.667 36.1035 47.6601 36.1452 47.6462C36.1868 47.6323 36.2355 47.5976 36.291 47.542L46.541 37.2504H40.9993C40.7857 37.2504 40.586 37.1969 40.4002 37.0899C40.2141 36.9833 40.0591 36.8455 39.9352 36.6766L38.0377 33.8049Z" fill="#9277FF"/>
</svg>
