<svg width="72" height="72" viewBox="0 0 72 72" fill="none" xmlns="http://www.w3.org/2000/svg">
<rect width="72" height="72" rx="16" fill="white" fill-opacity="0.08"/>
<rect x="0.5" y="0.5" width="71" height="71" rx="15.5" stroke="white" stroke-opacity="0.08"/>
<path d="M25.3594 46.8327V48.4031C25.3594 48.8928 25.1879 49.3091 24.8448 49.6519C24.5018 49.9946 24.0851 50.166 23.5948 50.166C23.1048 50.166 22.6888 49.9946 22.3469 49.6519C22.005 49.3091 21.834 48.8928 21.834 48.4031V36.6468C21.834 36.4738 21.8452 36.3007 21.8677 36.1277C21.8902 35.9546 21.928 35.7888 21.9811 35.6302L24.9657 27.1918C25.1654 26.5916 25.5273 26.1039 26.0515 25.7289C26.5757 25.3537 27.1623 25.166 27.8115 25.166H44.1898C44.839 25.166 45.4257 25.3537 45.9498 25.7289C46.474 26.1039 46.8359 26.5916 47.0357 27.1918L50.0202 35.6302C50.0733 35.7888 50.1111 35.9546 50.1336 36.1277C50.1561 36.3007 50.1673 36.4738 50.1673 36.6468V48.4031C50.1673 48.8928 49.9958 49.3091 49.6527 49.6519C49.3094 49.9946 48.8927 50.166 48.4027 50.166C47.9125 50.166 47.4963 49.9946 47.1544 49.6519C46.8127 49.3091 46.6419 48.8928 46.6419 48.4031V46.8327H25.3594ZM25.3469 33.6277H46.6544L44.6802 28.0027C44.6375 27.8957 44.5733 27.813 44.4877 27.7543C44.4022 27.6955 44.3006 27.666 44.1831 27.666H27.8182C27.7007 27.666 27.5991 27.6955 27.5136 27.7543C27.428 27.813 27.3638 27.8957 27.3211 28.0027L25.3469 33.6277ZM28.4402 42.4098C29.0466 42.4098 29.5609 42.1974 29.9831 41.7727C30.4051 41.3482 30.6161 40.8328 30.6161 40.2264C30.6161 39.62 30.4038 39.1057 29.9794 38.6835C29.5547 38.2616 29.0391 38.0506 28.4327 38.0506C27.8263 38.0506 27.3122 38.2628 26.8902 38.6873C26.468 39.112 26.2569 39.6275 26.2569 40.2339C26.2569 40.8403 26.4693 41.3545 26.894 41.7764C27.3184 42.1987 27.8338 42.4098 28.4402 42.4098ZM43.5686 42.4098C44.175 42.4098 44.6891 42.1974 45.1111 41.7727C45.5333 41.3482 45.7444 40.8328 45.7444 40.2264C45.7444 39.62 45.532 39.1057 45.1073 38.6835C44.6829 38.2616 44.1675 38.0506 43.5611 38.0506C42.9547 38.0506 42.4404 38.2628 42.0181 38.6873C41.5962 39.112 41.3852 39.6275 41.3852 40.2339C41.3852 40.8403 41.5975 41.3545 42.0219 41.7764C42.4466 42.1987 42.9622 42.4098 43.5686 42.4098ZM24.334 44.3327H47.6673V36.1277H24.334V44.3327Z" fill="#9277FF"/>
</svg>
