<svg width="150" height="40" viewBox="0 0 150 40" fill="none" xmlns="http://www.w3.org/2000/svg">
<path d="M126.432 31.8089C122.195 31.8089 120.077 30.3429 120.077 27.4089C120.077 27.0029 120.118 26.5649 120.199 26.0959L120.841 22.3079C121.187 20.3529 122.083 18.8559 123.529 17.8179C124.996 16.7579 126.931 16.2279 129.334 16.2279C133.427 16.2279 135.474 17.7759 135.474 20.8719C135.474 21.3199 135.434 21.8089 135.352 22.3379L134.986 24.5079H125.668L125.546 25.2099C125.507 25.4318 125.487 25.6565 125.484 25.8819C125.484 27.0019 126.146 27.5619 127.47 27.5619C127.959 27.5619 128.377 27.4099 128.723 27.1039C129.069 26.7989 129.273 26.4419 129.334 26.0349L134.405 26.0959C133.733 29.9049 131.075 31.8089 126.432 31.8089ZM130.098 22.6439C130.175 22.3339 130.216 22.0162 130.22 21.6969C130.22 21.3919 130.087 21.0859 129.823 20.7809C129.558 20.4749 129.13 20.3219 128.539 20.3219C127.969 20.3219 127.44 20.5159 126.951 20.9019C126.482 21.2899 126.157 21.8699 125.973 22.6439H130.098ZM118.764 19.8639C118.764 20.5359 118.561 21.1569 118.153 21.7269H113.143C113.306 21.6049 113.387 21.4019 113.387 21.1169C113.387 20.8309 113.224 20.6069 112.899 20.4439C112.573 20.2609 112.155 20.1699 111.646 20.1699C110.119 20.1699 109.355 20.6379 109.355 21.5749C109.355 21.9409 109.64 22.2059 110.21 22.3689C110.78 22.5319 111.473 22.6639 112.288 22.7659C113.102 22.8679 113.917 23.0209 114.732 23.2249C115.546 23.4079 116.239 23.7849 116.809 24.3549C117.379 24.9249 117.664 25.6889 117.664 26.6459C117.664 28.3359 116.982 29.6199 115.618 30.4959C114.273 31.3709 112.308 31.8089 109.721 31.8089C107.135 31.8089 105.322 31.3909 104.284 30.5559C103.469 29.9049 103.061 29.0089 103.061 27.8679C103.061 27.5419 103.092 27.2059 103.153 26.8599L108.255 26.7989C108.214 27.0839 108.377 27.3389 108.744 27.5629C109.131 27.7659 109.691 27.8679 110.424 27.8679C111.157 27.8679 111.687 27.7969 112.013 27.6539C112.339 27.4909 112.501 27.1959 112.501 26.7679C112.501 26.4829 112.216 26.2899 111.646 26.1879C110.95 26.0469 110.246 25.9447 109.538 25.8819C108.707 25.7977 107.881 25.6652 107.064 25.4849C106.272 25.3142 105.548 24.9102 104.986 24.3249C104.416 23.7339 104.131 22.9599 104.131 22.0029C104.131 20.1489 104.844 18.7229 106.269 17.7259C107.715 16.7279 109.793 16.2289 112.501 16.2289C116.677 16.2289 118.764 17.4399 118.764 19.8639ZM99.4394 26.6759C99.4394 27.2059 99.7054 27.4699 100.234 27.4699C100.784 27.4699 101.242 27.3689 101.609 27.1649L101.456 30.6169C100.479 31.4109 99.3794 31.8079 98.1564 31.8079C95.9164 31.8079 94.6744 30.9939 94.4304 29.3639C93.4114 30.9939 91.9144 31.8079 89.9394 31.8079C86.5994 31.8079 84.9294 30.3729 84.9294 27.5009C84.9294 27.0119 84.9794 26.4719 85.0814 25.8809L85.7234 22.3069C86.0494 20.4739 86.7934 19.0179 87.9534 17.9389C89.1344 16.8389 90.6624 16.2889 92.5364 16.2889C94.4304 16.2889 95.7134 16.7269 96.3854 17.6029L96.5384 16.6859H101.181L99.4714 26.3089C99.4514 26.4319 99.4394 26.5539 99.4394 26.6759ZM90.3974 25.2099C90.3574 25.3929 90.3364 25.6479 90.3364 25.9729C90.3364 26.2989 90.4894 26.6249 90.7944 26.9509C91.1004 27.2559 91.6094 27.4089 92.3224 27.4089C93.0554 27.4089 93.6864 27.1239 94.2164 26.5539L95.1324 21.4219C94.9084 20.9119 94.3794 20.6579 93.5444 20.6579C91.9764 20.6579 91.0594 21.4109 90.7944 22.9179L90.3974 25.2099ZM78.1694 16.2589C80.1864 16.2589 81.6014 16.8189 82.4164 17.9389C83.0264 18.7329 83.3324 19.7009 83.3324 20.8409C83.3324 21.3089 83.2824 21.7979 83.1804 22.3069L82.5694 25.7289C82.2224 27.6839 81.3164 29.1909 79.8494 30.2499C78.4044 31.2899 76.5714 31.8079 74.3514 31.8079C72.1514 31.8079 70.4614 31.3709 69.2794 30.4949C68.3424 29.8019 67.8744 28.8349 67.8744 27.5929C67.8744 27.2669 67.9044 26.9309 67.9664 26.5839L71.2044 8.19387H76.3974L74.8394 17.0839C75.6954 16.5339 76.8054 16.2589 78.1694 16.2589ZM77.8944 22.7659C77.9178 22.5427 77.9281 22.3183 77.9254 22.0939C77.9254 21.7879 77.7934 21.4719 77.5284 21.1469C77.2834 20.7999 76.7344 20.6269 75.8784 20.6269C75.0434 20.6269 74.4424 20.8819 74.0764 21.3909L73.1904 26.4929C73.4344 27.1029 73.9434 27.4089 74.7174 27.4089C76.2854 27.4089 77.2124 26.6249 77.4974 25.0569L77.8944 22.7659ZM63.6174 26.6759C63.6174 27.2059 63.8824 27.4699 64.4124 27.4699C64.9624 27.4699 65.4204 27.3689 65.7864 27.1649L65.6344 30.6169C64.6564 31.4109 63.5564 31.8079 62.3344 31.8079C60.4814 31.8079 59.2794 31.3809 58.7294 30.5249C58.3864 29.9867 58.2059 29.361 58.2094 28.7229C58.2094 28.0709 58.2514 27.5009 58.3324 27.0129L61.6624 8.19287H66.8564L63.6484 26.3099C63.6284 26.4319 63.6174 26.5539 63.6174 26.6759ZM53.8594 26.6759C53.8594 27.2059 54.1244 27.4699 54.6544 27.4699C55.2044 27.4699 55.6624 27.3689 56.0284 27.1649L55.8764 30.6169C54.8984 31.4109 53.7984 31.8079 52.5764 31.8079C50.7234 31.8079 49.5214 31.3809 48.9714 30.5249C48.6287 29.9866 48.4485 29.361 48.4524 28.7229C48.4524 28.0709 48.4924 27.5009 48.5744 27.0129L51.9044 8.19287H57.0994L53.8894 26.3099C53.8694 26.4319 53.8594 26.5539 53.8594 26.6759ZM40.0684 16.2579C42.2684 16.2579 43.9274 16.7359 45.0484 17.6939C45.9234 18.4469 46.3614 19.4959 46.3614 20.8399C46.3614 21.2879 46.3104 21.7769 46.2084 22.3069L45.5664 25.8809C45.1804 28.0399 44.2734 29.5669 42.8484 30.4639C41.4424 31.3599 39.5584 31.8079 37.1964 31.8079C34.8334 31.8079 33.1024 31.3599 32.0024 30.4639C31.1884 29.7919 30.7804 28.7839 30.7804 27.4389C30.7804 26.9709 30.8314 26.4509 30.9334 25.8809L31.5754 22.3069C32.2874 18.2739 35.1184 16.2569 40.0674 16.2569L40.0684 16.2579ZM40.8924 22.9179C40.9372 22.6658 40.9577 22.4099 40.9534 22.1539C40.9534 21.8279 40.8214 21.4719 40.5564 21.0839C40.2914 20.6979 39.8234 20.5039 39.1514 20.5039C38.4994 20.5039 37.9494 20.7279 37.5014 21.1759C37.0534 21.6039 36.7684 22.1849 36.6464 22.9179L36.2494 25.2089C36.2038 25.471 36.1834 25.7369 36.1884 26.0029C36.1884 26.3089 36.3204 26.6449 36.5854 27.0109C36.8494 27.3779 37.3084 27.5609 37.9604 27.5609C38.6324 27.5609 39.1924 27.3369 39.6404 26.8889C40.0855 26.4259 40.3831 25.8412 40.4954 25.2089L40.8924 22.9179ZM35.1134 14.1499H27.5994L24.5744 31.3799H19.0444L22.0694 14.1499H14.5234L15.3794 9.38487H35.9694L35.1144 14.1509L35.1134 14.1499Z" fill="white"/>
</svg>
