<svg width="534" height="420" viewBox="0 0 534 420" fill="none" xmlns="http://www.w3.org/2000/svg">
<path fill-rule="evenodd" clip-rule="evenodd" d="M237.204 2.22338C224.691 -3.44638 209.95 2.10131 204.281 14.615L159.436 113.592C153.766 126.105 159.314 140.845 171.827 146.515C184.341 152.185 199.082 146.637 204.752 134.124L243.908 47.7038C245.847 43.4245 251.511 42.4872 254.726 45.9138C256.552 47.8608 257.025 50.7167 255.923 53.1482L226.635 117.79C220.965 130.303 226.513 145.044 239.027 150.714C251.54 156.383 266.282 150.836 271.951 138.322L307.06 60.8355C309.322 55.8419 315.41 53.905 320.142 56.6732C324.227 59.0626 325.846 64.1519 323.893 68.4624L300.727 119.593C295.057 132.106 300.605 146.846 313.118 152.516C325.632 158.186 340.373 152.638 346.043 140.124L373.763 78.9441C379.433 66.4304 373.885 51.6891 361.371 46.0193C353.925 42.6453 345.69 43.2444 339.047 46.9196C334.283 49.5549 328.366 50.9182 323.667 48.1693L322.574 47.5299C318.312 45.0369 316.623 39.7274 318.66 35.2302C324.33 22.7165 318.781 7.97617 306.268 2.30639C293.754 -3.3632 279.014 2.18446 273.344 14.698L267.199 28.2605C264.865 33.4127 258.045 34.5411 254.175 30.4158C252.577 28.7124 251.883 26.3877 251.804 24.0535C251.493 14.8968 246.115 6.26067 237.204 2.22338Z" fill="#7958FF"/>
<path d="M76.4454 354.739H60.0976V278.549C60.0976 272.722 57.9432 267.719 53.6346 263.539C49.4526 259.233 44.3836 257.079 38.4275 257.079C32.598 257.079 27.5289 259.233 23.2202 263.539C19.0382 267.719 16.9473 272.722 16.9473 278.549V354.739H0.599609V278.549C0.599609 268.163 4.27467 259.296 11.6248 251.949C19.1016 244.476 28.0358 240.739 38.4275 240.739C44.3836 240.739 49.9595 242.069 55.1553 244.729C60.351 247.263 64.7231 250.746 68.2715 255.179C71.8198 250.746 76.1918 247.263 81.3876 244.729C86.5834 242.069 92.096 240.739 97.9258 240.739C108.317 240.739 117.251 244.476 124.728 251.949C132.205 259.296 135.943 268.163 135.943 278.549V354.739H119.595V278.549C119.595 272.722 117.442 267.719 113.133 263.539C108.95 259.233 103.881 257.079 97.9258 257.079C91.9693 257.079 86.9003 259.233 82.7183 263.539C78.5363 267.719 76.4454 272.722 76.4454 278.549V354.739ZM157.832 240.739H174.18V354.739H157.832V240.739ZM196.072 305.909H204.246H212.42H238.463C245.179 305.909 250.881 303.502 255.571 298.689C260.386 293.876 262.794 288.112 262.794 281.399C262.794 274.686 260.386 268.986 255.571 264.299C250.881 259.486 245.179 257.079 238.463 257.079H212.42V273.229H196.072V257.079V240.739H204.246H212.42H238.463C249.615 240.739 259.182 244.729 267.166 252.709C275.15 260.689 279.142 270.253 279.142 281.399C279.142 289.126 277.114 296.282 273.059 302.869C269.004 309.329 263.617 314.269 256.901 317.689C257.028 317.689 257.091 317.689 257.091 317.689L264.885 330.989L279.142 354.739H260.133L243.025 326.049C241.377 323.389 239.033 322.059 235.992 322.059H221.544H212.42H196.072V305.909ZM300.956 255.749V240.739H317.304V255.749C317.304 265.122 320.598 273.102 327.188 279.689C333.778 286.276 341.698 289.569 350.949 289.569C360.327 289.569 368.311 286.276 374.9 279.689C381.49 273.102 384.786 265.122 384.786 255.749V240.739H401.133V255.749C401.133 268.036 397.141 278.866 389.157 288.239C381.174 297.612 371.162 303.249 359.123 305.149V354.739H342.966V305.149C330.927 303.249 320.916 297.612 312.932 288.239C304.947 278.866 300.956 268.036 300.956 255.749Z" fill="white"/>
<path d="M466.259 305.909C469.681 305.909 472.596 307.112 475.003 309.519C477.411 311.926 478.615 314.839 478.615 318.259C478.615 321.552 477.411 324.402 475.003 326.809C472.596 329.216 469.681 330.419 466.259 330.419C462.964 330.419 460.113 329.216 457.705 326.809C455.298 324.402 454.093 321.552 454.093 318.259C454.093 314.839 455.298 311.926 457.705 309.519C460.113 307.112 462.964 305.909 466.259 305.909Z" fill="white"/>
<path d="M399.918 354.739H417.406L451.812 266.959C453.08 263.793 454.98 261.386 457.514 259.739C460.05 257.966 462.964 257.079 466.259 257.079C469.681 257.079 472.659 257.966 475.193 259.739C477.727 261.386 479.565 263.793 480.706 266.959L515.112 354.739H532.6L495.913 260.879C493.505 254.673 489.64 249.796 484.317 246.249C478.995 242.576 472.975 240.739 466.259 240.739C459.669 240.739 453.713 242.576 448.39 246.249C443.068 249.796 439.14 254.673 436.605 260.879L399.918 354.739Z" fill="white"/>
<path d="M30.0186 391.581V406.257H26.4708V395.808H4.14742V406.257H0.599609V391.581C0.599609 386.423 1.72907 382.86 3.98797 380.893C5.74195 379.457 9.48909 378.739 15.2294 378.739C21.1025 378.739 24.9028 379.457 26.6302 380.893C28.8891 382.86 30.0186 386.423 30.0186 391.581ZM26.4309 391.501C26.2449 387.141 25.5406 384.349 24.3182 383.126C22.7502 381.504 19.7206 380.693 15.2294 380.693C10.871 380.693 7.88128 381.504 6.26017 383.126C5.0377 384.455 4.33345 387.274 4.14742 391.581V393.654H26.4708C26.4708 393.522 26.4575 393.163 26.4309 392.578C26.4309 391.966 26.4309 391.607 26.4309 391.501ZM39.8009 402.229C40.8639 403.558 43.3089 404.223 47.1357 404.223C50.9094 404.223 53.3278 403.558 54.3908 402.229C55.3475 401.086 55.8259 399.517 55.8259 397.523V388.988H59.3737V398.121C59.3737 400.966 58.5365 403.106 56.8623 404.542C56.2245 405.1 55.2279 405.526 53.8726 405.818C52.5438 406.084 51.4542 406.23 50.6038 406.257C49.7534 406.283 48.5841 406.297 47.0958 406.297C45.6076 406.297 44.4383 406.283 43.5879 406.257C42.7375 406.23 41.6346 406.084 40.2793 405.818C38.9505 405.526 37.9672 405.1 37.3294 404.542C35.6817 403.106 34.8579 400.966 34.8579 398.121V388.988H38.3658V397.523C38.3658 399.517 38.8442 401.086 39.8009 402.229ZM77.6577 388.669V390.903H67.8115V395.17V397.323C67.8115 399.078 67.8913 400.288 68.0507 400.953C68.2102 401.617 68.5291 402.162 69.0074 402.588C70.0173 403.492 71.758 403.944 74.2295 403.944H78.8536V406.257H74.5883C70.5222 406.257 67.7983 405.738 66.4167 404.701C64.9816 403.611 64.2641 401.963 64.2641 399.756V383.605L67.8115 383.645V388.669H77.6577ZM107.431 397.483C107.431 399.397 107.192 400.939 106.714 402.109C106.262 403.252 105.545 404.156 104.561 404.821C103.179 405.778 99.884 406.257 94.6753 406.257C89.4399 406.257 86.118 405.778 84.7095 404.821C83.7262 404.156 82.9954 403.266 82.517 402.149C82.0652 401.032 81.8394 399.477 81.8394 397.483C81.8394 395.462 82.0652 393.894 82.517 392.777C82.9688 391.66 83.6996 390.743 84.7095 390.025C85.5333 389.467 86.902 389.028 88.8154 388.709C90.7554 388.364 92.7087 388.191 94.6753 388.191C96.6684 388.191 98.6084 388.364 100.495 388.709C102.382 389.028 103.737 389.467 104.561 390.025C105.571 390.743 106.302 391.647 106.754 392.737C107.206 393.801 107.431 395.383 107.431 397.483ZM103.923 397.483C103.923 394.532 103.299 392.671 102.05 391.9C100.323 390.863 97.8643 390.344 94.6753 390.344C91.4331 390.344 88.9616 390.863 87.2607 391.9C86.0383 392.644 85.427 394.505 85.427 397.483C85.427 400.381 86.0383 402.215 87.2607 402.987C88.5895 403.784 91.061 404.183 94.6753 404.183C98.2629 404.183 100.721 403.784 102.05 402.987C103.299 402.242 103.923 400.408 103.923 397.483ZM154.08 397.164V406.257H150.652V396.765C150.652 394.106 149.947 392.352 148.539 391.501C147.21 390.757 145.071 390.384 142.121 390.384C140.925 390.384 139.703 390.557 138.454 390.903C137.204 391.248 136.248 391.78 135.583 392.498C134.919 393.163 134.587 395.117 134.587 398.36V406.257H131.119V398.36C131.119 398.334 131.119 398.227 131.119 398.041C131.145 397.855 131.159 397.643 131.159 397.403C131.159 397.164 131.159 396.885 131.159 396.566C131.159 396.247 131.132 395.914 131.079 395.569C131.052 395.223 131.012 394.891 130.959 394.572C130.906 394.226 130.813 393.894 130.68 393.575C130.574 393.229 130.441 392.937 130.282 392.697C129.219 391.155 127.013 390.384 123.664 390.384C120.528 390.384 118.442 390.69 117.406 391.302C115.838 392.126 115.054 393.947 115.054 396.765V406.257H111.666V397.164C111.666 394.877 111.798 393.216 112.064 392.179C112.33 391.115 112.941 390.238 113.898 389.547C115.413 388.457 118.442 387.912 122.987 387.912C126.76 387.912 129.551 388.417 131.358 389.427C131.996 389.799 132.514 390.278 132.913 390.863C133.55 390.012 134.294 389.401 135.145 389.028C136.766 388.311 139.41 387.952 143.078 387.952C147.223 387.952 150.067 388.457 151.608 389.467C152.485 390.025 153.11 390.916 153.482 392.139C153.881 393.362 154.08 395.037 154.08 397.164ZM183.098 406.257H179.669V396.526C179.669 395.755 179.656 395.143 179.629 394.691C179.603 394.239 179.497 393.748 179.311 393.216C179.151 392.684 178.899 392.245 178.553 391.9C178.022 391.368 176.932 390.969 175.284 390.703C173.663 390.437 172.228 390.305 170.979 390.305C167.391 390.305 164.8 390.757 163.206 391.66C162.781 391.9 162.422 392.232 162.13 392.657C161.864 393.083 161.664 393.455 161.532 393.774C161.399 394.093 161.292 394.585 161.213 395.25C161.16 395.914 161.133 396.34 161.133 396.526C161.133 396.712 161.133 397.137 161.133 397.802C161.133 400.301 161.638 401.95 162.648 402.747C163.711 403.651 165.797 404.103 168.906 404.103C170.315 404.103 172.268 404.077 174.766 404.023L178.035 403.904V406.057L174.607 406.177C172.109 406.23 170.421 406.257 169.544 406.257C164.867 406.257 161.797 405.765 160.336 404.781C158.475 403.558 157.545 401.205 157.545 397.722C157.545 393.415 158.635 390.757 160.814 389.746C163.286 388.603 166.82 388.031 171.418 388.031C173.012 388.031 174.793 388.164 176.759 388.43C178.726 388.696 180.108 389.121 180.905 389.706C182.367 390.77 183.098 392.618 183.098 395.25V406.257ZM201.763 388.669V390.903H191.917V395.17V397.323C191.917 399.078 191.996 400.288 192.156 400.953C192.315 401.617 192.634 402.162 193.112 402.588C194.122 403.492 195.863 403.944 198.335 403.944H202.959V406.257H198.693C194.627 406.257 191.903 405.738 190.521 404.701C189.086 403.611 188.369 401.963 188.369 399.756V383.605L191.917 383.645V388.669H201.763ZM210.21 388.191V406.257H206.821V388.191H210.21ZM210.489 382.209H206.702V378.819H210.489V382.209ZM240.373 397.483C240.373 399.397 240.134 400.939 239.656 402.109C239.204 403.252 238.487 404.156 237.503 404.821C236.121 405.778 232.826 406.257 227.617 406.257C222.382 406.257 219.06 405.778 217.651 404.821C216.668 404.156 215.937 403.266 215.459 402.149C215.007 401.032 214.781 399.477 214.781 397.483C214.781 395.462 215.007 393.894 215.459 392.777C215.911 391.66 216.642 390.743 217.651 390.025C218.475 389.467 219.844 389.028 221.757 388.709C223.697 388.364 225.651 388.191 227.617 388.191C229.61 388.191 231.55 388.364 233.437 388.709C235.324 389.028 236.679 389.467 237.503 390.025C238.513 390.743 239.244 391.647 239.696 392.737C240.148 393.801 240.373 395.383 240.373 397.483ZM236.865 397.483C236.865 394.532 236.241 392.671 234.992 391.9C233.265 390.863 230.806 390.344 227.617 390.344C224.375 390.344 221.904 390.863 220.203 391.9C218.98 392.644 218.369 394.505 218.369 397.483C218.369 400.381 218.98 402.215 220.203 402.987C221.531 403.784 224.003 404.183 227.617 404.183C231.205 404.183 233.663 403.784 234.992 402.987C236.241 402.242 236.865 400.408 236.865 397.483ZM249.351 392.578C248.713 393.535 248.394 395.157 248.394 397.443V406.257H244.966V397.124C244.966 395.795 244.979 394.851 245.006 394.293C245.059 393.734 245.231 393.043 245.524 392.219C245.816 391.395 246.294 390.677 246.959 390.065C248.42 388.656 251.889 387.952 257.363 387.952C262.811 387.952 266.279 388.656 267.767 390.065C268.432 390.677 268.91 391.395 269.202 392.219C269.495 393.043 269.654 393.734 269.681 394.293C269.734 394.851 269.76 395.795 269.76 397.124V406.257H266.332V397.443C266.332 395.157 266.013 393.535 265.376 392.578C264.392 391.115 261.748 390.384 257.443 390.384C253.005 390.384 250.307 391.115 249.351 392.578ZM279.29 406.217H275.024V402.149H279.29V406.217ZM329.35 405.06C327.198 405.831 323.225 406.217 317.431 406.217C312.196 406.217 308.582 405.698 306.589 404.661C305.552 404.13 304.808 403.558 304.356 402.947C303.931 402.309 303.665 401.591 303.559 400.793H307.745C307.931 401.617 308.422 402.322 309.22 402.907C310.469 403.864 313.206 404.342 317.431 404.342C320.089 404.342 321.962 404.289 323.052 404.183C325.47 403.944 327.278 403.425 328.473 402.628C329.51 401.91 330.028 400.594 330.028 398.679V397.483C330.028 397.084 329.988 396.685 329.909 396.287C329.723 395.462 329.337 394.904 328.753 394.612C327.822 394.16 326.161 393.867 323.77 393.734C322.866 393.681 321.032 393.654 318.269 393.654C314.575 393.548 312.595 393.482 312.329 393.455C309.512 393.322 307.452 392.95 306.15 392.338C303.944 391.355 302.842 389.467 302.842 386.675C302.842 384.894 303.094 383.538 303.599 382.608C304.13 381.677 304.941 380.959 306.031 380.454C307.067 379.922 308.755 379.524 311.093 379.258C313.458 378.965 315.77 378.819 318.029 378.819C321.537 378.819 324.328 378.965 326.401 379.258C328.473 379.524 330.134 380.095 331.383 380.973C332.712 381.877 333.456 383.006 333.616 384.362H329.59C329.43 383.618 329.005 382.98 328.314 382.448C327.384 381.757 325.71 381.318 323.291 381.132C321.936 380.999 320.102 380.933 317.79 380.933C312.794 380.933 309.671 381.464 308.422 382.528C307.439 383.379 306.947 384.721 306.947 386.556C306.947 387.486 307.014 388.217 307.147 388.749C307.306 389.281 307.638 389.773 308.143 390.225C308.675 390.73 310.004 391.089 312.13 391.302C314.282 391.514 316.315 391.621 318.229 391.621C320.222 391.621 322.335 391.674 324.567 391.78C327.543 391.94 329.536 392.152 330.546 392.418C332.008 392.817 332.938 393.429 333.337 394.253C333.762 395.05 333.975 396.406 333.975 398.321C333.975 401.75 332.433 403.997 329.35 405.06ZM342.061 388.191V406.257H338.673V388.191H342.061ZM342.34 382.209H338.553V378.819H342.34V382.209ZM389.326 397.164V406.257H385.898V396.765C385.898 394.106 385.194 392.352 383.785 391.501C382.457 390.757 380.317 390.384 377.367 390.384C376.172 390.384 374.949 390.557 373.7 390.903C372.451 391.248 371.494 391.78 370.83 392.498C370.166 393.163 369.833 395.117 369.833 398.36V406.257H366.365V398.36C366.365 398.334 366.365 398.227 366.365 398.041C366.392 397.855 366.405 397.643 366.405 397.403C366.405 397.164 366.405 396.885 366.405 396.566C366.405 396.247 366.379 395.914 366.325 395.569C366.299 395.223 366.259 394.891 366.206 394.572C366.153 394.226 366.06 393.894 365.927 393.575C365.82 393.229 365.688 392.937 365.528 392.697C364.465 391.155 362.259 390.384 358.911 390.384C355.775 390.384 353.689 390.69 352.652 391.302C351.084 392.126 350.301 393.947 350.301 396.765V406.257H346.912V397.164C346.912 394.877 347.045 393.216 347.311 392.179C347.577 391.115 348.188 390.238 349.144 389.547C350.659 388.457 353.689 387.912 358.233 387.912C362.007 387.912 364.797 388.417 366.604 389.427C367.242 389.799 367.76 390.278 368.159 390.863C368.797 390.012 369.541 389.401 370.391 389.028C372.013 388.311 374.657 387.952 378.324 387.952C382.47 387.952 385.314 388.457 386.855 389.467C387.732 390.025 388.356 390.916 388.728 392.139C389.127 393.362 389.326 395.037 389.326 397.164ZM397.057 418.739L393.629 418.699V395.25C393.629 392.618 394.36 390.77 395.821 389.706C397.203 388.669 400.286 388.151 405.07 388.151C409.827 388.151 413.348 388.683 415.633 389.746C417.813 390.757 418.902 393.415 418.902 397.722C418.902 399.238 418.65 400.634 418.145 401.91C417.666 403.159 416.962 404.077 416.032 404.661C414.464 405.725 411.514 406.257 407.182 406.257C405.721 406.257 403.847 406.23 401.562 406.177L398.612 406.057V403.904L401.801 404.023C404.299 404.077 406.305 404.103 407.82 404.103C410.611 404.103 412.577 403.625 413.72 402.667C414.756 401.843 415.275 400.221 415.275 397.802C415.275 397.749 415.275 397.563 415.275 397.244C415.275 396.898 415.275 396.672 415.275 396.566C415.275 396.459 415.261 396.247 415.235 395.928C415.235 395.609 415.221 395.383 415.195 395.25C415.168 395.09 415.128 394.877 415.075 394.612C415.049 394.319 414.996 394.093 414.916 393.934C414.863 393.748 414.783 393.535 414.677 393.296C414.57 393.056 414.451 392.857 414.318 392.697C414.185 392.538 414.026 392.378 413.84 392.219C413.654 392.059 413.454 391.913 413.242 391.78C411.674 390.876 409.176 390.424 405.747 390.424C401.575 390.424 399.05 390.956 398.173 392.019C398.04 392.179 397.921 392.365 397.815 392.578C397.708 392.79 397.615 393.043 397.536 393.335C397.456 393.601 397.389 393.854 397.336 394.093C397.283 394.306 397.23 394.598 397.177 394.971C397.15 395.316 397.124 395.595 397.097 395.808C397.097 396.021 397.084 396.34 397.057 396.765C397.057 397.164 397.057 397.43 397.057 397.563C397.057 397.696 397.057 397.975 397.057 398.4C397.057 398.799 397.057 399.012 397.057 399.038V418.739ZM423.967 402.029V378.819H427.554V401.83C427.554 402.468 427.687 402.973 427.953 403.345C428.245 403.744 428.737 403.944 429.428 403.944H430.624V406.257H428.033C426.598 406.257 425.601 405.951 425.043 405.339C424.326 404.622 423.967 403.518 423.967 402.029ZM437.787 388.191V406.257H434.399V388.191H437.787ZM438.066 382.209H434.279V378.819H438.066V382.209ZM456.191 381.411L452.843 381.451C451.488 381.451 450.464 381.544 449.773 381.73C449.082 381.89 448.471 382.235 447.94 382.767C447.541 383.166 447.235 383.605 447.023 384.083C446.837 384.535 446.731 384.934 446.704 385.28C446.677 385.599 446.664 386.091 446.664 386.755V388.271H454.956V390.703H446.664L446.624 406.257H443.276V388.271V387.074C443.276 383.99 443.967 381.73 445.349 380.295C445.774 379.843 446.438 379.497 447.342 379.258C448.272 379.018 449.003 378.899 449.534 378.899C450.066 378.872 450.903 378.859 452.046 378.859H454.756C455.394 378.859 455.872 378.846 456.191 378.819V381.411ZM464.025 388.191V406.257H460.637V388.191H464.025ZM464.304 382.209H460.517V378.819H464.304V382.209ZM473.899 397.882V396.007H488.927C489.751 396.007 490.256 395.928 490.442 395.768C490.654 395.609 490.707 395.263 490.601 394.731C490.362 392.977 489.405 391.82 487.731 391.262C485.977 390.677 483.971 390.384 481.712 390.384C477.911 390.384 475.32 390.943 473.938 392.059C472.875 392.91 472.344 394.864 472.344 397.922C472.344 401.086 473.38 402.987 475.453 403.625C476.782 404.023 478.762 404.223 481.393 404.223C484.848 404.223 487.146 403.97 488.289 403.465C489.06 403.119 489.538 402.521 489.724 401.67H493.87C493.737 402.628 493.445 403.385 492.993 403.944C492.541 404.475 491.797 404.967 490.761 405.419C489.405 405.978 486.296 406.257 481.433 406.257C477.181 406.257 474.271 405.964 472.703 405.379C470.072 404.369 468.756 401.883 468.756 397.922C468.756 395.529 468.982 393.787 469.434 392.697C469.912 391.607 470.55 390.757 471.347 390.145C473.181 388.816 476.689 388.151 481.871 388.151C483.864 388.151 485.725 388.311 487.452 388.63C489.206 388.949 490.482 389.374 491.279 389.906C492.289 390.57 492.993 391.315 493.392 392.139C493.79 392.937 494.043 393.88 494.149 394.971C494.282 396.007 494.282 396.765 494.149 397.244C494.043 397.696 493.697 397.922 493.113 397.922L473.899 397.882ZM519.912 378.859H523.34V399.278C523.34 401.883 522.609 403.731 521.148 404.821C519.792 405.778 516.696 406.257 511.859 406.257C510.105 406.257 508.75 406.243 507.793 406.217C506.837 406.19 505.694 406.084 504.365 405.898C503.036 405.685 501.934 405.379 501.057 404.981C498.877 403.97 497.788 401.285 497.788 396.925C497.788 393.548 498.718 391.248 500.578 390.025C502.571 388.723 506.066 388.071 511.062 388.071C512.657 388.071 514.145 388.124 515.527 388.231L518.357 388.35V390.703L515.686 390.544C514.039 390.411 512.577 390.344 511.301 390.344C507.103 390.344 504.312 390.916 502.93 392.059C501.894 392.883 501.376 394.479 501.376 396.845C501.376 399.131 501.601 400.727 502.053 401.631C502.399 402.295 502.864 402.8 503.448 403.146C504.591 403.811 507.023 404.143 510.743 404.143C510.929 404.143 511.076 404.143 511.182 404.143C515.46 404.143 517.998 403.638 518.796 402.628C518.929 402.468 519.048 402.282 519.154 402.069C519.261 401.857 519.354 401.617 519.433 401.351C519.513 401.059 519.58 400.793 519.633 400.554C519.686 400.315 519.726 400.009 519.752 399.637C519.806 399.264 519.832 398.972 519.832 398.759C519.859 398.546 519.872 398.227 519.872 397.802C519.898 397.377 519.912 397.098 519.912 396.965C519.912 396.832 519.912 396.566 519.912 396.167C519.912 395.742 519.912 395.516 519.912 395.489V378.859ZM532.6 406.217H528.334V402.149H532.6V406.217Z" fill="white" stroke="white" stroke-width="1.2"/>
</svg>
