<svg width="72" height="72" viewBox="0 0 72 72" fill="none" xmlns="http://www.w3.org/2000/svg">
<rect x="0.5" y="0.5" width="71" height="71" rx="35.5" stroke="#9A9DC1"/>
<path d="M29.334 32.6667V27.6667C29.334 25.8986 30.0364 24.2029 31.2866 22.9526C32.5368 21.7024 34.2325 21 36.0007 21C37.7688 21 39.4645 21.7024 40.7147 22.9526C41.9649 24.2029 42.6673 25.8986 42.6673 27.6667V32.6667" stroke="white" stroke-width="2" stroke-linecap="round" stroke-linejoin="round"/>
<path fill-rule="evenodd" clip-rule="evenodd" d="M21 36C21 34.6739 21.5268 33.4021 22.4645 32.4645C23.4021 31.5268 24.6739 31 26 31H46C47.3261 31 48.5979 31.5268 49.5355 32.4645C50.4732 33.4021 51 34.6739 51 36V47.6667C51 48.9927 50.4732 50.2645 49.5355 51.2022C48.5979 52.1399 47.3261 52.6667 46 52.6667H26C24.6739 52.6667 23.4021 52.1399 22.4645 51.2022C21.5268 50.2645 21 48.9927 21 47.6667V36ZM37.6667 39.3333C37.6667 38.8913 37.4911 38.4674 37.1785 38.1548C36.8659 37.8423 36.442 37.6667 36 37.6667C35.558 37.6667 35.134 37.8423 34.8215 38.1548C34.5089 38.4674 34.3333 38.8913 34.3333 39.3333V44.3333C34.3333 44.7754 34.5089 45.1993 34.8215 45.5118C35.134 45.8244 35.558 46 36 46C36.442 46 36.8659 45.8244 37.1785 45.5118C37.4911 45.1993 37.6667 44.7754 37.6667 44.3333V39.3333Z" fill="#7958FF"/>
</svg>
