<svg width="72" height="72" viewBox="0 0 72 72" fill="none" xmlns="http://www.w3.org/2000/svg">
<rect x="0.5" y="0.5" width="71" height="71" rx="35.5" stroke="#9A9DC1"/>
<path d="M34.166 49.1837C34.766 49.267 35.366 49.3337 35.9993 49.3337C39.4983 49.3322 42.8564 47.9554 45.3493 45.5003L40.816 37.667L34.166 49.1837ZM32.4327 48.8337L36.9493 41.0003H23.6493C24.4197 42.889 25.6115 44.5766 27.1338 45.9343C28.656 47.2919 30.4685 48.2836 32.4327 48.8337ZM30.2327 36.0003L25.4993 27.817C23.6661 30.1511 22.6685 33.0324 22.666 36.0003C22.666 37.1503 22.8327 38.267 23.0993 39.3337H32.1493L30.2327 36.0003ZM46.4993 44.1837C48.3326 41.8496 49.3302 38.9682 49.3327 36.0003C49.3327 34.8503 49.166 33.7337 48.8993 32.667H39.8493L46.4993 44.1837ZM38.8827 31.0003H48.3493C47.5774 29.1098 46.383 27.421 44.8577 26.0632C43.3324 24.7055 41.5166 23.7148 39.5493 23.167L35.0327 31.0003H38.8827ZM33.116 31.0003L37.8327 22.8003C37.2327 22.717 36.616 22.667 35.9993 22.667C32.366 22.667 29.066 24.1337 26.666 26.5003L31.1993 34.3337L33.116 31.0003Z" fill="#7958FF"/>
<path d="M36.0007 52.6663C45.2007 52.6663 52.6673 45.1997 52.6673 35.9997C52.6673 28.083 47.1507 21.4663 39.7507 19.7663L39.6173 19.6997L39.6007 19.733C38.434 19.483 37.234 19.333 36.0007 19.333C26.8007 19.333 19.334 26.7997 19.334 35.9997C19.334 45.1997 26.8007 52.6663 36.0007 52.6663ZM36.0007 49.333C35.3673 49.333 34.7673 49.2663 34.1673 49.183L40.8173 37.6663L45.3507 45.4997C42.8577 47.9548 39.4996 49.3315 36.0007 49.333ZM49.334 35.9997C49.334 39.083 48.2673 41.9163 46.5006 44.183L39.834 32.6663H48.884C49.1673 33.733 49.334 34.8497 49.334 35.9997ZM48.3507 30.9997H35.034L39.5507 23.1663C43.5507 24.2663 46.8006 27.1997 48.3507 30.9997ZM36.0007 22.6663C36.6173 22.6663 37.234 22.7163 37.834 22.7997L33.1173 30.9997L31.2007 34.333L26.6673 26.4997C29.1521 24.0425 32.5061 22.665 36.0007 22.6663ZM22.6673 35.9997C22.6673 32.9163 23.734 30.083 25.5007 27.8163L30.234 35.9997L32.1507 39.333H23.1007C22.834 38.2663 22.6673 37.1497 22.6673 35.9997ZM33.1173 40.9997H36.9506L32.434 48.833C30.4678 48.2829 28.6532 47.2914 27.1282 45.9339C25.6032 44.5765 24.4081 42.8889 23.634 40.9997H33.1173Z" fill="white"/>
</svg>
