<svg width="72" height="72" viewBox="0 0 72 72" fill="none" xmlns="http://www.w3.org/2000/svg">
<rect x="0.5" y="0.5" width="71" height="71" rx="35.5" stroke="#9A9DC1"/>
<mask id="path-2-inside-1_1649_1511" fill="white">
<path d="M31.5354 18.8574C32.814 18.8574 33.9911 19.2917 34.9283 20.0203V51.7289C33.848 52.6435 32.478 53.1448 31.0626 53.1431C29.6877 53.1429 28.3546 52.6712 27.2855 51.8068C26.2165 50.9423 25.4762 49.7374 25.1883 48.3931L25.1311 48.1217C23.6456 48.0112 22.2378 47.4147 21.1251 46.4244C20.0123 45.4341 19.2565 44.105 18.9744 42.6423C18.6922 41.1797 18.8994 39.6649 19.5639 38.3317C20.2284 36.9985 21.3133 35.9212 22.6511 35.266C21.6692 34.4645 20.946 33.3907 20.5726 32.1794C20.1992 30.9682 20.1922 29.6735 20.5525 28.4583C20.9128 27.2431 21.6243 26.1615 22.5976 25.3495C23.5708 24.5375 24.7624 24.0313 26.0226 23.8946C26.1467 22.518 26.7814 21.2378 27.8019 20.3056C28.8224 19.3734 30.1547 18.8568 31.5368 18.8574M40.4654 18.8574C41.847 18.8575 43.1787 19.3745 44.1985 20.3066C45.2184 21.2387 45.8527 22.5185 45.9768 23.8946C47.237 24.0313 48.4285 24.5375 49.4018 25.3495C50.3751 26.1615 51.0866 27.2431 51.4469 28.4583C51.8072 29.6735 51.8002 30.9682 51.4268 32.1794C51.0534 33.3907 50.3302 34.4645 49.3483 35.266C50.6832 35.923 51.7653 37.0006 52.4278 38.3328C53.0904 39.665 53.2966 41.1781 53.0149 42.6391C52.7332 44.1001 51.9791 45.428 50.8688 46.4184C49.7584 47.4088 48.3532 48.0068 46.8697 48.1203L46.8126 48.3917C46.5248 49.7365 45.7845 50.9419 44.7151 51.8067C43.6457 52.6714 42.3121 53.1432 40.9368 53.1431C39.5214 53.1448 38.1513 52.6435 37.0711 51.7289V20.0203C38.0409 19.2654 39.2365 18.8561 40.4654 18.8574Z"/>
</mask>
<path d="M31.5354 18.8574C32.814 18.8574 33.9911 19.2917 34.9283 20.0203V51.7289C33.848 52.6435 32.478 53.1448 31.0626 53.1431C29.6877 53.1429 28.3546 52.6712 27.2855 51.8068C26.2165 50.9423 25.4762 49.7374 25.1883 48.3931L25.1311 48.1217C23.6456 48.0112 22.2378 47.4147 21.1251 46.4244C20.0123 45.4341 19.2565 44.105 18.9744 42.6423C18.6922 41.1797 18.8994 39.6649 19.5639 38.3317C20.2284 36.9985 21.3133 35.9212 22.6511 35.266C21.6692 34.4645 20.946 33.3907 20.5726 32.1794C20.1992 30.9682 20.1922 29.6735 20.5525 28.4583C20.9128 27.2431 21.6243 26.1615 22.5976 25.3495C23.5708 24.5375 24.7624 24.0313 26.0226 23.8946C26.1467 22.518 26.7814 21.2378 27.8019 20.3056C28.8224 19.3734 30.1547 18.8568 31.5368 18.8574M40.4654 18.8574C41.847 18.8575 43.1787 19.3745 44.1985 20.3066C45.2184 21.2387 45.8527 22.5185 45.9768 23.8946C47.237 24.0313 48.4285 24.5375 49.4018 25.3495C50.3751 26.1615 51.0866 27.2431 51.4469 28.4583C51.8072 29.6735 51.8002 30.9682 51.4268 32.1794C51.0534 33.3907 50.3302 34.4645 49.3483 35.266C50.6832 35.923 51.7653 37.0006 52.4278 38.3328C53.0904 39.665 53.2966 41.1781 53.0149 42.6391C52.7332 44.1001 51.9791 45.428 50.8688 46.4184C49.7584 47.4088 48.3532 48.0068 46.8697 48.1203L46.8126 48.3917C46.5248 49.7365 45.7845 50.9419 44.7151 51.8067C43.6457 52.6714 42.3121 53.1432 40.9368 53.1431C39.5214 53.1448 38.1513 52.6435 37.0711 51.7289V20.0203C38.0409 19.2654 39.2365 18.8561 40.4654 18.8574Z" fill="#7958FF"/>
<path d="M34.9283 20.0203H35.9283V19.5311L35.542 19.2308L34.9283 20.0203ZM34.9283 51.7289L35.5745 52.492L35.9283 52.1924V51.7289H34.9283ZM31.0626 53.1431L31.0637 52.1431L31.0627 52.1431L31.0626 53.1431ZM25.1883 48.3931L24.2097 48.5991L24.2105 48.6026L25.1883 48.3931ZM25.1311 48.1217L26.1097 47.9157L25.9548 47.1802L25.2053 47.1245L25.1311 48.1217ZM22.6511 35.266L23.091 36.1641L24.4922 35.4778L23.2834 34.4913L22.6511 35.266ZM26.0226 23.8946L26.1304 24.8887L26.9449 24.8004L27.0185 23.9844L26.0226 23.8946ZM40.4654 18.8574L40.4644 19.8574H40.4653L40.4654 18.8574ZM45.9768 23.8946L44.9809 23.9844L45.0545 24.8004L45.869 24.8887L45.9768 23.8946ZM49.3483 35.266L48.716 34.4913L47.5098 35.4757L48.9067 36.1632L49.3483 35.266ZM46.8697 48.1203L46.7934 47.1232L46.0456 47.1804L45.8911 47.9143L46.8697 48.1203ZM46.8126 48.3917L47.7904 48.6009L47.7911 48.5977L46.8126 48.3917ZM40.9368 53.1431L40.9369 52.1431L40.9357 52.1431L40.9368 53.1431ZM37.0711 51.7289H36.0711V52.1924L36.4249 52.492L37.0711 51.7289ZM37.0711 20.0203L36.4569 19.2312L36.0711 19.5314V20.0203H37.0711ZM31.5354 18.8574V19.8574C32.5836 19.8574 33.5463 20.2126 34.3145 20.8098L34.9283 20.0203L35.542 19.2308C34.4359 18.3708 33.0444 17.8574 31.5354 17.8574V18.8574ZM34.9283 20.0203H33.9283V51.7289H34.9283H35.9283V20.0203H34.9283ZM34.9283 51.7289L34.2821 50.9657C33.3827 51.7272 32.2421 52.1445 31.0637 52.1431L31.0626 53.1431L31.0614 54.1431C32.7139 54.145 34.3134 53.5599 35.5745 52.492L34.9283 51.7289ZM31.0626 53.1431L31.0627 52.1431C29.9167 52.1429 28.8054 51.7498 27.9143 51.0292L27.2855 51.8068L26.6568 52.5844C27.9037 53.5927 29.4588 54.1429 31.0624 54.1431L31.0626 53.1431ZM27.2855 51.8068L27.9143 51.0292C27.0232 50.3086 26.4061 49.3043 26.1661 48.1837L25.1883 48.3931L24.2105 48.6026C24.5463 50.1706 25.4098 51.5761 26.6568 52.5844L27.2855 51.8068ZM25.1883 48.3931L26.1668 48.1871L26.1097 47.9157L25.1311 48.1217L24.1526 48.3277L24.2097 48.5991L25.1883 48.3931ZM25.1311 48.1217L25.2053 47.1245C23.9388 47.0302 22.7386 46.5217 21.7899 45.6774L21.1251 46.4244L20.4603 47.1714C21.7371 48.3077 23.3524 48.9921 25.0569 49.119L25.1311 48.1217ZM21.1251 46.4244L21.7899 45.6774C20.8412 44.8331 20.1968 43.6999 19.9563 42.4529L18.9744 42.6423L17.9925 42.8318C18.3162 44.51 19.1835 46.0351 20.4603 47.1714L21.1251 46.4244ZM18.9744 42.6423L19.9563 42.4529C19.7157 41.2059 19.8923 39.9144 20.4589 38.7778L19.5639 38.3317L18.6689 37.8856C17.9064 39.4153 17.6687 41.1535 17.9925 42.8318L18.9744 42.6423ZM19.5639 38.3317L20.4589 38.7778C21.0254 37.6412 21.9504 36.7227 23.091 36.1641L22.6511 35.266L22.2113 34.3679C20.6763 35.1197 19.4314 36.3559 18.6689 37.8856L19.5639 38.3317ZM22.6511 35.266L23.2834 34.4913C22.4542 33.8145 21.8436 32.9077 21.5282 31.8848L20.5726 32.1794L19.617 32.474C20.0485 33.8737 20.8841 35.1146 22.0188 36.0407L22.6511 35.266ZM20.5726 32.1794L21.5282 31.8848C21.2129 30.862 21.207 29.7687 21.5113 28.7426L20.5525 28.4583L19.5938 28.174C19.1774 29.5783 19.1855 31.0743 19.617 32.474L20.5726 32.1794ZM20.5525 28.4583L21.5113 28.7426C21.8155 27.7164 22.4163 26.803 23.2382 26.1173L22.5976 25.3495L21.957 24.5816C20.8323 25.5199 20.0101 26.7698 19.5938 28.174L20.5525 28.4583ZM22.5976 25.3495L23.2382 26.1173C24.0601 25.4316 25.0663 25.0042 26.1304 24.8887L26.0226 23.8946L25.9147 22.9004C24.4586 23.0584 23.0816 23.6433 21.957 24.5816L22.5976 25.3495ZM26.0226 23.8946L27.0185 23.9844C27.1202 22.8566 27.6403 21.8077 28.4764 21.0439L27.8019 20.3056L27.1275 19.5673C25.9226 20.6679 25.1732 22.1795 25.0266 23.8047L26.0226 23.8946ZM27.8019 20.3056L28.4764 21.0439C29.3124 20.2802 30.404 19.8569 31.5364 19.8574L31.5368 18.8574L31.5373 17.8574C29.9054 17.8567 28.3323 18.4667 27.1275 19.5673L27.8019 20.3056ZM40.4654 18.8574L40.4653 19.8574C41.5973 19.8575 42.6883 20.281 43.5239 21.0447L44.1985 20.3066L44.8732 19.5684C43.669 18.4679 42.0968 17.8576 40.4655 17.8574L40.4654 18.8574ZM44.1985 20.3066L43.5239 21.0447C44.3595 21.8084 44.8792 22.857 44.9809 23.9844L45.9768 23.8946L46.9728 23.8047C46.8263 22.18 46.0773 20.6689 44.8732 19.5684L44.1985 20.3066ZM45.9768 23.8946L45.869 24.8887C46.9331 25.0042 47.9393 25.4316 48.7612 26.1173L49.4018 25.3495L50.0424 24.5816C48.9178 23.6433 47.5408 23.0584 46.0847 22.9004L45.9768 23.8946ZM49.4018 25.3495L48.7612 26.1173C49.583 26.803 50.1839 27.7164 50.4881 28.7426L51.4469 28.4583L52.4056 28.174C51.9893 26.7698 51.1671 25.5199 50.0424 24.5816L49.4018 25.3495ZM51.4469 28.4583L50.4881 28.7426C50.7924 29.7687 50.7865 30.862 50.4711 31.8848L51.4268 32.1794L52.3824 32.474C52.8139 31.0743 52.8219 29.5783 52.4056 28.174L51.4469 28.4583ZM51.4268 32.1794L50.4711 31.8848C50.1558 32.9077 49.5452 33.8145 48.716 34.4913L49.3483 35.266L49.9806 36.0407C51.1153 35.1146 51.9509 33.8737 52.3824 32.474L51.4268 32.1794ZM49.3483 35.266L48.9067 36.1632C50.045 36.7234 50.9675 37.6422 51.5324 38.7781L52.4278 38.3328L53.3232 37.8875C52.563 36.3589 51.3215 35.1226 49.7898 34.3688L49.3483 35.266ZM52.4278 38.3328L51.5324 38.7781C52.0973 39.914 52.2732 41.2041 52.033 42.4498L53.0149 42.6391L53.9968 42.8284C54.3201 41.1522 54.0834 39.4161 53.3232 37.8875L52.4278 38.3328ZM53.0149 42.6391L52.033 42.4498C51.7928 43.6955 51.1499 44.8277 50.2031 45.6721L50.8688 46.4184L51.5344 47.1647C52.8084 46.0283 53.6736 44.5047 53.9968 42.8284L53.0149 42.6391ZM50.8688 46.4184L50.2031 45.6721C49.2564 46.5165 48.0583 47.0264 46.7934 47.1232L46.8697 48.1203L46.946 49.1174C48.6482 48.9871 50.2604 48.301 51.5344 47.1647L50.8688 46.4184ZM46.8697 48.1203L45.8911 47.9143L45.834 48.1857L46.8126 48.3917L47.7911 48.5977L47.8482 48.3263L46.8697 48.1203ZM46.8126 48.3917L45.8347 48.1825C45.5948 49.3035 44.9777 50.3083 44.0863 51.0291L44.7151 51.8067L45.3439 52.5843C46.5912 51.5756 47.4548 50.1696 47.7904 48.6009L46.8126 48.3917ZM44.7151 51.8067L44.0863 51.0291C43.1949 51.7499 42.0832 52.1432 40.9369 52.1431L40.9368 53.1431L40.9368 54.1431C42.541 54.1432 44.0965 53.5929 45.3439 52.5843L44.7151 51.8067ZM40.9368 53.1431L40.9357 52.1431C39.7573 52.1445 38.6167 51.7272 37.7173 50.9657L37.0711 51.7289L36.4249 52.492C37.686 53.5599 39.2855 54.145 40.938 54.1431L40.9368 53.1431ZM37.0711 51.7289H38.0711V20.0203H37.0711H36.0711V51.7289H37.0711ZM37.0711 20.0203L37.6854 20.8094C38.4791 20.1916 39.458 19.8564 40.4644 19.8574L40.4654 18.8574L40.4665 17.8574C39.0149 17.8559 37.6027 18.3392 36.4569 19.2312L37.0711 20.0203Z" fill="white" mask="url(#path-2-inside-1_1649_1511)"/>
</svg>
