<svg width="72" height="72" viewBox="0 0 72 72" fill="none" xmlns="http://www.w3.org/2000/svg">
<rect x="0.5" y="0.5" width="71" height="71" rx="35.5" stroke="#9A9DC1"/>
<g filter="url(#filter0_d_1649_1519)">
<path d="M29.6176 45.9996C28.7336 45.9994 27.8859 45.6481 27.261 45.023L19.9043 37.6663L27.261 30.3096C27.5685 29.9913 27.9363 29.7373 28.3429 29.5626C28.7496 29.3879 29.187 29.296 29.6296 29.2921C30.0722 29.2883 30.5112 29.3726 30.9208 29.5402C31.3305 29.7078 31.7026 29.9553 32.0156 30.2683C32.3286 30.5813 32.5761 30.9535 32.7437 31.3631C32.9113 31.7728 32.9956 32.2117 32.9918 32.6543C32.988 33.0969 32.896 33.5343 32.7213 33.941C32.5466 34.3476 32.2927 34.7155 31.9743 35.023L29.3326 37.6663L31.9743 40.3096C32.4403 40.7758 32.7577 41.3697 32.8862 42.0162C33.0148 42.6627 32.9488 43.3328 32.6966 43.9418C32.4443 44.5508 32.0172 45.0713 31.4692 45.4376C30.9211 45.8039 30.2768 45.9995 29.6176 45.9996ZM42.381 45.9996C41.7218 45.9995 41.0775 45.8039 40.5294 45.4376C39.9814 45.0713 39.5543 44.5508 39.302 43.9418C39.0498 43.3328 38.9838 42.6627 39.1124 42.0162C39.2409 41.3697 39.5583 40.7758 40.0243 40.3096L42.666 37.6663L40.0243 35.023C39.7059 34.7155 39.452 34.3476 39.2773 33.941C39.1026 33.5343 39.0106 33.0969 39.0068 32.6543C39.0029 32.2117 39.0873 31.7728 39.2549 31.3631C39.4225 30.9535 39.67 30.5813 39.983 30.2683C40.296 29.9553 40.6681 29.7078 41.0778 29.5402C41.4874 29.3726 41.9264 29.2883 42.369 29.2921C42.8116 29.296 43.249 29.3879 43.6556 29.5626C44.0623 29.7373 44.4301 29.9913 44.7376 30.3096L52.0943 37.6663L44.7376 45.023C44.1127 45.6481 43.2649 45.9994 42.381 45.9996Z" fill="white"/>
</g>
<defs>
<filter id="filter0_d_1649_1519" x="19.9043" y="29.292" width="32.1895" height="20.708" filterUnits="userSpaceOnUse" color-interpolation-filters="sRGB">
<feFlood flood-opacity="0" result="BackgroundImageFix"/>
<feColorMatrix in="SourceAlpha" type="matrix" values="0 0 0 0 0 0 0 0 0 0 0 0 0 0 0 0 0 0 127 0" result="hardAlpha"/>
<feOffset dy="4"/>
<feComposite in2="hardAlpha" operator="out"/>
<feColorMatrix type="matrix" values="0 0 0 0 0.47451 0 0 0 0 0.345098 0 0 0 0 1 0 0 0 1 0"/>
<feBlend mode="normal" in2="BackgroundImageFix" result="effect1_dropShadow_1649_1519"/>
<feBlend mode="normal" in="SourceGraphic" in2="effect1_dropShadow_1649_1519" result="shape"/>
</filter>
</defs>
</svg>
