<svg width="72" height="72" viewBox="0 0 72 72" fill="none" xmlns="http://www.w3.org/2000/svg">
<rect x="0.5" y="0.5" width="71" height="71" rx="35.5" stroke="#9A9DC1"/>
<path d="M35.9993 22.667C28.6493 22.667 22.666 28.6503 22.666 36.0003C22.666 43.3503 28.6493 49.3337 35.9993 49.3337C36.466 49.3337 36.8327 48.967 36.8327 48.5003C36.8275 48.2842 36.7447 48.0771 36.5993 47.917C35.916 47.1503 35.5493 46.167 35.5493 45.167C35.5493 44.0619 35.9883 43.0021 36.7697 42.2207C37.5511 41.4393 38.6109 41.0003 39.716 41.0003H42.666C46.3493 41.0003 49.3327 38.017 49.3327 34.3337C49.3327 27.9003 43.3493 22.667 35.9993 22.667ZM26.8327 37.667C25.4493 37.667 24.3327 36.5503 24.3327 35.167C24.3327 33.7837 25.4493 32.667 26.8327 32.667C28.216 32.667 29.3327 33.7837 29.3327 35.167C29.3327 36.5503 28.216 37.667 26.8327 37.667ZM31.8327 31.0003C30.4493 31.0003 29.3327 29.8837 29.3327 28.5003C29.3327 27.117 30.4493 26.0003 31.8327 26.0003C33.216 26.0003 34.3327 27.117 34.3327 28.5003C34.3327 29.8837 33.216 31.0003 31.8327 31.0003ZM40.166 31.0003C38.7827 31.0003 37.666 29.8837 37.666 28.5003C37.666 27.117 38.7827 26.0003 40.166 26.0003C41.5493 26.0003 42.666 27.117 42.666 28.5003C42.666 29.8837 41.5493 31.0003 40.166 31.0003ZM47.666 35.167C47.666 36.5503 46.5493 37.667 45.166 37.667C43.7827 37.667 42.666 36.5503 42.666 35.167C42.666 33.7837 43.7827 32.667 45.166 32.667C46.5493 32.667 47.666 33.7837 47.666 35.167Z" fill="#7958FF"/>
<path d="M36.0007 19.333C26.8173 19.333 19.334 26.8163 19.334 35.9997C19.334 45.183 26.8173 52.6663 36.0007 52.6663C36.8056 52.6662 37.5932 52.4329 38.2684 51.9947C38.9436 51.5565 39.4774 50.9321 39.8053 50.197C40.1332 49.4619 40.2411 48.6475 40.1161 47.8524C39.991 47.0572 39.6383 46.3153 39.1007 45.7163C38.9917 45.5978 38.9198 45.45 38.8938 45.2911C38.8678 45.1322 38.8889 44.9691 38.9544 44.822C39.02 44.675 39.1272 44.5503 39.2627 44.4634C39.3983 44.3765 39.5563 44.3312 39.7173 44.333H42.6673C48.184 44.333 52.6673 39.8497 52.6673 34.333C52.6673 26.0663 45.184 19.333 36.0007 19.333ZM42.6673 40.9997H39.7173C38.6122 40.9997 37.5524 41.4387 36.771 42.2201C35.9896 43.0015 35.5506 44.0613 35.5506 45.1663C35.5506 46.183 35.9173 47.1497 36.6007 47.9163C36.7007 48.033 36.834 48.233 36.834 48.4997C36.834 48.9663 36.4673 49.333 36.0007 49.333C28.6507 49.333 22.6673 43.3497 22.6673 35.9997C22.6673 28.6497 28.6507 22.6663 36.0007 22.6663C43.3507 22.6663 49.334 27.8997 49.334 34.333C49.334 38.0163 46.3507 40.9997 42.6673 40.9997Z" fill="white"/>
<path d="M26.834 37.667C28.2147 37.667 29.334 36.5477 29.334 35.167C29.334 33.7863 28.2147 32.667 26.834 32.667C25.4533 32.667 24.334 33.7863 24.334 35.167C24.334 36.5477 25.4533 37.667 26.834 37.667Z" fill="white"/>
<path d="M31.834 31C33.2147 31 34.334 29.8807 34.334 28.5C34.334 27.1193 33.2147 26 31.834 26C30.4533 26 29.334 27.1193 29.334 28.5C29.334 29.8807 30.4533 31 31.834 31Z" fill="white"/>
<path d="M40.166 31C41.5467 31 42.666 29.8807 42.666 28.5C42.666 27.1193 41.5467 26 40.166 26C38.7853 26 37.666 27.1193 37.666 28.5C37.666 29.8807 38.7853 31 40.166 31Z" fill="white"/>
<path d="M45.166 37.667C46.5467 37.667 47.666 36.5477 47.666 35.167C47.666 33.7863 46.5467 32.667 45.166 32.667C43.7853 32.667 42.666 33.7863 42.666 35.167C42.666 36.5477 43.7853 37.667 45.166 37.667Z" fill="white"/>
</svg>
