<svg width="72" height="72" viewBox="0 0 72 72" fill="none" xmlns="http://www.w3.org/2000/svg">
<rect x="0.5" y="0.5" width="71" height="71" rx="35.5" stroke="#9A9DC1"/>
<g filter="url(#filter0_d_1649_1536)">
<path d="M29.75 36C29.75 37.5833 29.8208 39.1183 29.9525 40.5833H42.0475C42.1792 39.1183 42.25 37.5833 42.25 36C42.25 34.4167 42.1792 32.8817 42.0467 31.4167H29.9542C29.8208 32.8817 29.75 34.4167 29.75 36ZM27.4442 31.4167C27.3137 32.941 27.249 34.4701 27.25 36C27.25 37.5717 27.3167 39.1058 27.4433 40.5833H17.8142C17.4458 39.1167 17.25 37.5808 17.25 36C17.25 34.4192 17.4458 32.8833 17.8142 31.4167H27.4442ZM30.2492 28.9167H41.75C41.38 26.3942 40.82 24.145 40.1258 22.2975C39.4767 20.57 38.735 19.2575 37.9758 18.4008C37.215 17.5408 36.5433 17.25 36 17.25C35.4567 17.25 34.785 17.5417 34.0233 18.4C33.2642 19.2583 32.5225 20.57 31.8733 22.2975C31.1792 24.145 30.6192 26.3942 30.2483 28.9167M44.5558 31.4167C44.6833 32.8942 44.75 34.4283 44.75 36C44.75 37.5717 44.6833 39.1058 44.5567 40.5833H54.1858C54.5542 39.1167 54.75 37.5808 54.75 36C54.75 34.4192 54.5542 32.8833 54.1858 31.4167H44.5558ZM53.3667 28.9167H44.2758C43.8842 26.0933 43.2642 23.5417 42.4667 21.4183C41.9575 20.0633 41.3642 18.85 40.6883 17.8408C46.455 19.3258 51.1467 23.485 53.365 28.9167M27.7233 28.9167H18.6342C20.8517 23.485 25.5442 19.3258 31.3108 17.8417C30.6358 18.85 30.0417 20.0633 29.5325 21.4183C28.735 23.5417 28.1158 26.0933 27.7242 28.9167M27.7217 43.0833H18.6342C20.8508 48.5125 25.5392 52.67 31.3008 54.1567C30.6258 53.1483 30.0342 51.935 29.5258 50.5817C28.73 48.4567 28.1117 45.9067 27.7217 43.0833ZM40.1333 49.7033C40.825 47.8558 41.3833 45.6067 41.7533 43.0833H30.2467C30.6158 45.6067 31.1742 47.8558 31.8667 49.7033C32.515 51.4308 33.2558 52.7425 34.0167 53.5992C34.7767 54.4575 35.45 54.75 36 54.75C36.55 54.75 37.2233 54.4575 37.9833 53.5992C38.7442 52.7425 39.485 51.4308 40.1333 49.7033ZM42.4742 50.5808C43.27 48.4575 43.8883 45.9058 44.2783 43.0833H53.3658C51.1492 48.5125 46.4608 52.67 40.6992 54.1567C41.3742 53.1483 41.9658 51.9342 42.4742 50.5808Z" fill="white"/>
</g>
<defs>
<filter id="filter0_d_1649_1536" x="17.25" y="17.25" width="41.5" height="42.5" filterUnits="userSpaceOnUse" color-interpolation-filters="sRGB">
<feFlood flood-opacity="0" result="BackgroundImageFix"/>
<feColorMatrix in="SourceAlpha" type="matrix" values="0 0 0 0 0 0 0 0 0 0 0 0 0 0 0 0 0 0 127 0" result="hardAlpha"/>
<feOffset dx="4" dy="5"/>
<feComposite in2="hardAlpha" operator="out"/>
<feColorMatrix type="matrix" values="0 0 0 0 0.47451 0 0 0 0 0.345098 0 0 0 0 1 0 0 0 1 0"/>
<feBlend mode="normal" in2="BackgroundImageFix" result="effect1_dropShadow_1649_1536"/>
<feBlend mode="normal" in="SourceGraphic" in2="effect1_dropShadow_1649_1536" result="shape"/>
</filter>
</defs>
</svg>
