<svg width="72" height="72" viewBox="0 0 72 72" fill="none" xmlns="http://www.w3.org/2000/svg">
<rect x="0.5" y="0.5" width="71" height="71" rx="35.5" stroke="#9A9DC1"/>
<path d="M34.75 29.0781C33.19 29.5048 32.25 30.7031 32.25 31.8331C32.25 32.9631 33.19 34.1615 34.75 34.5865V29.0781ZM37.25 37.4131V42.9198C38.81 42.4948 39.75 41.2965 39.75 40.1665C39.75 39.0365 38.81 37.8381 37.25 37.4131Z" fill="white"/>
<g filter="url(#filter0_d_1649_1544)">
<path fill-rule="evenodd" clip-rule="evenodd" d="M52.6673 35.9997C52.6673 45.2047 45.2057 52.6663 36.0007 52.6663C26.7957 52.6663 19.334 45.2047 19.334 35.9997C19.334 26.7947 26.7957 19.333 36.0007 19.333C45.2057 19.333 52.6673 26.7947 52.6673 35.9997ZM36.0007 24.7497C36.3322 24.7497 36.6501 24.8814 36.8845 25.1158C37.119 25.3502 37.2507 25.6682 37.2507 25.9997V26.528C39.9673 27.0147 42.2507 29.0563 42.2507 31.833C42.2507 32.1645 42.119 32.4825 41.8845 32.7169C41.6501 32.9513 41.3322 33.083 41.0007 33.083C40.6691 33.083 40.3512 32.9513 40.1168 32.7169C39.8823 32.4825 39.7507 32.1645 39.7507 31.833C39.7507 30.703 38.8106 29.5047 37.2507 29.078V34.8613C39.9673 35.348 42.2507 37.3897 42.2507 40.1663C42.2507 42.943 39.9673 44.9847 37.2507 45.4713V45.9997C37.2507 46.3312 37.119 46.6491 36.8845 46.8836C36.6501 47.118 36.3322 47.2497 36.0007 47.2497C35.6691 47.2497 35.3512 47.118 35.1168 46.8836C34.8823 46.6491 34.7507 46.3312 34.7507 45.9997V45.4713C32.034 44.9847 29.7507 42.943 29.7507 40.1663C29.7507 39.8348 29.8823 39.5169 30.1168 39.2825C30.3512 39.048 30.6691 38.9163 31.0007 38.9163C31.3322 38.9163 31.6501 39.048 31.8845 39.2825C32.119 39.5169 32.2507 39.8348 32.2507 40.1663C32.2507 41.2963 33.1907 42.4947 34.7507 42.9197V37.138C32.034 36.6513 29.7507 34.6097 29.7507 31.833C29.7507 29.0563 32.034 27.0147 34.7507 26.528V25.9997C34.7507 25.6682 34.8823 25.3502 35.1168 25.1158C35.3512 24.8814 35.6691 24.7497 36.0007 24.7497Z" fill="white"/>
<path d="M36.001 18.333C45.7581 18.3332 53.667 26.2428 53.667 36C53.6668 45.757 45.758 53.6658 36.001 53.666C26.2438 53.666 18.3342 45.7571 18.334 36C18.334 26.2427 26.2437 18.333 36.001 18.333ZM35.751 44.2285L34.4883 43.8848C32.6008 43.3705 31.251 41.8497 31.251 40.166C31.2509 40.0998 31.2245 40.0361 31.1777 39.9893C31.1309 39.9424 31.0672 39.9161 31.001 39.916C30.9348 39.916 30.8711 39.9426 30.8242 39.9893C30.7774 40.0361 30.7511 40.0998 30.751 40.166C30.751 42.3194 32.5355 44.0589 34.9268 44.4873L35.751 44.6348V46C35.7511 46.0662 35.7774 46.1299 35.8242 46.1768C35.8711 46.2234 35.9348 46.25 36.001 46.25C36.0672 46.2499 36.1309 46.2236 36.1777 46.1768C36.2245 46.1299 36.2509 46.0662 36.251 46V44.6348L37.0742 44.4873C39.4656 44.0589 41.251 42.3194 41.251 40.166C41.2508 38.0128 39.4654 36.2741 37.0742 35.8457L36.251 35.6982V27.7676L37.5146 28.1133C39.4012 28.6293 40.751 30.1493 40.751 31.833C40.751 31.8993 40.7773 31.9629 40.8242 32.0098C40.8711 32.0565 40.9348 32.083 41.001 32.083C41.0672 32.0829 41.1309 32.0566 41.1777 32.0098C41.2245 31.9629 41.251 31.8992 41.251 31.833C41.251 29.6796 39.4656 27.9411 37.0742 27.5127L36.251 27.3652V26C36.251 25.9339 36.2244 25.8701 36.1777 25.8232C36.1309 25.7764 36.0672 25.7501 36.001 25.75C35.9347 25.75 35.8711 25.7764 35.8242 25.8232C35.7773 25.8701 35.751 25.9337 35.751 26V27.3652L34.9268 27.5127C32.5356 27.9412 30.751 29.6797 30.751 31.833C30.751 33.9863 32.5355 35.7248 34.9268 36.1533L35.751 36.3008V44.2285Z" stroke="#7958FF" stroke-width="2"/>
</g>
<defs>
<filter id="filter0_d_1649_1544" x="13.334" y="17.333" width="45.334" height="45.333" filterUnits="userSpaceOnUse" color-interpolation-filters="sRGB">
<feFlood flood-opacity="0" result="BackgroundImageFix"/>
<feColorMatrix in="SourceAlpha" type="matrix" values="0 0 0 0 0 0 0 0 0 0 0 0 0 0 0 0 0 0 127 0" result="hardAlpha"/>
<feOffset dy="4"/>
<feGaussianBlur stdDeviation="2"/>
<feComposite in2="hardAlpha" operator="out"/>
<feColorMatrix type="matrix" values="0 0 0 0 0 0 0 0 0 0 0 0 0 0 0 0 0 0 0.25 0"/>
<feBlend mode="normal" in2="BackgroundImageFix" result="effect1_dropShadow_1649_1544"/>
<feBlend mode="normal" in="SourceGraphic" in2="effect1_dropShadow_1649_1544" result="shape"/>
</filter>
</defs>
</svg>
