<svg width="72" height="72" viewBox="0 0 72 72" fill="none" xmlns="http://www.w3.org/2000/svg">
<rect x="0.5" y="0.5" width="71" height="71" rx="35.5" stroke="#9A9DC1"/>
<g filter="url(#filter0_d_2445_8379)">
<path fill-rule="evenodd" clip-rule="evenodd" d="M34.7049 45.3226L26.6763 37.294C27.5592 35.8169 28.4392 34.2883 29.3106 32.7683C32.2135 27.7226 35.0478 22.7969 37.7049 20.234C44.9163 13.0226 54.7935 17.2055 54.7935 17.2055C54.7935 17.2055 58.9763 27.0826 51.7649 34.294C49.222 36.9283 44.3735 39.7226 39.3649 42.6026C37.8049 43.5026 36.2306 44.4083 34.7049 45.3226ZM40.8192 26.6597C40.8192 25.461 41.2954 24.3113 42.1431 23.4636C42.9907 22.616 44.1404 22.1397 45.3392 22.1397C46.538 22.1397 47.6877 22.616 48.5353 23.4636C49.383 24.3113 49.8592 25.461 49.8592 26.6597C49.8295 27.8385 49.3405 28.959 48.4963 29.7822C47.6521 30.6054 46.5197 31.0661 45.3406 31.0661C44.1615 31.0661 43.0291 30.6054 42.1849 29.7822C41.3408 28.959 40.8488 27.8385 40.8192 26.6597ZM29.1363 25.9969C25.0849 24.9197 21.2821 26.914 17.9078 30.0083C17.7522 30.1549 17.633 30.3358 17.5597 30.5367C17.4865 30.7375 17.4612 30.9527 17.4859 31.165C17.5106 31.3774 17.5846 31.581 17.702 31.7597C17.8194 31.9383 17.9769 32.0871 18.1621 32.194L23.6049 35.474L23.6106 35.4626C24.3963 34.1483 25.2735 32.6255 26.1649 31.0826C27.1792 29.3197 28.2106 27.5312 29.1363 25.9969ZM36.5278 48.3969L39.8078 53.8397C39.915 54.0246 40.0639 54.1819 40.2427 54.2991C40.4215 54.4162 40.6252 54.4899 40.8375 54.5143C41.0498 54.5387 41.2649 54.5132 41.4656 54.4397C41.6663 54.3663 41.8471 54.2469 41.9935 54.0912C45.0878 50.7197 47.0849 46.914 46.0049 42.8626C44.5135 43.7597 42.9478 44.6626 41.3963 45.5569L41.1592 45.694C39.5935 46.5969 38.042 47.4883 36.542 48.3883L36.5278 48.3969ZM23.4906 42.694C24.6454 42.6736 25.7793 43.0035 26.7428 43.6403C27.7063 44.2772 28.4542 45.191 28.8879 46.2615C29.3216 47.3319 29.4208 48.5086 29.1724 49.6365C28.924 50.7644 28.3396 51.7906 27.4963 52.5797C26.8621 53.1855 25.8706 53.6626 24.9535 54.0255C23.9245 54.4213 22.8755 54.7627 21.8106 55.0483C20.7621 55.334 19.7621 55.5626 19.0049 55.714C18.6866 55.7793 18.3664 55.8355 18.0449 55.8826C17.9192 55.8997 17.7925 55.9121 17.6649 55.9197C17.474 55.9369 17.2816 55.9156 17.0992 55.8569C16.831 55.7788 16.5916 55.6239 16.4106 55.4112C16.2552 55.2311 16.1471 55.015 16.0963 54.7826C16.0602 54.6176 16.0486 54.4481 16.0621 54.2797C16.0706 54.1655 16.0878 54.034 16.1049 53.914C16.1421 53.6626 16.1992 53.334 16.2763 52.9597C16.4278 52.2055 16.6621 51.2112 16.9478 50.1683C17.2335 49.1283 17.5821 48.014 17.9735 47.0397C18.3392 46.1226 18.8135 45.134 19.4192 44.5026C19.9421 43.9439 20.572 43.4959 21.2714 43.1852C21.9708 42.8745 22.7255 42.7075 23.4906 42.694Z" fill="#7958FF"/>
</g>
<defs>
<filter id="filter0_d_2445_8379" x="16" y="15.999" width="40" height="42.001" filterUnits="userSpaceOnUse" color-interpolation-filters="sRGB">
<feFlood flood-opacity="0" result="BackgroundImageFix"/>
<feColorMatrix in="SourceAlpha" type="matrix" values="0 0 0 0 0 0 0 0 0 0 0 0 0 0 0 0 0 0 127 0" result="hardAlpha"/>
<feOffset dy="2"/>
<feComposite in2="hardAlpha" operator="out"/>
<feColorMatrix type="matrix" values="0 0 0 0 1 0 0 0 0 1 0 0 0 0 1 0 0 0 1 0"/>
<feBlend mode="normal" in2="BackgroundImageFix" result="effect1_dropShadow_2445_8379"/>
<feBlend mode="normal" in="SourceGraphic" in2="effect1_dropShadow_2445_8379" result="shape"/>
</filter>
</defs>
</svg>
