<svg width="72" height="72" viewBox="0 0 72 72" fill="none" xmlns="http://www.w3.org/2000/svg">
<rect width="72" height="72" rx="36" fill="white" fill-opacity="0.08"/>
<rect x="0.5" y="0.5" width="71" height="71" rx="35.5" stroke="white" stroke-opacity="0.08"/>
<path d="M44.334 19.334H27.6673C25.8264 19.334 24.334 20.8264 24.334 22.6673V29.334C24.334 31.1749 25.8264 32.6673 27.6673 32.6673H44.334C46.1749 32.6673 47.6673 31.1749 47.6673 29.334V22.6673C47.6673 20.8264 46.1749 19.334 44.334 19.334Z" stroke="#9277FF" stroke-width="2" stroke-linecap="round" stroke-linejoin="round"/>
<path d="M49.334 39.334H22.6673C20.8264 39.334 19.334 40.8264 19.334 42.6673V49.334C19.334 51.1749 20.8264 52.6673 22.6673 52.6673H49.334C51.1749 52.6673 52.6673 51.1749 52.6673 49.334V42.6673C52.6673 40.8264 51.1749 39.334 49.334 39.334Z" stroke="#9277FF" stroke-width="2" stroke-linecap="round" stroke-linejoin="round"/>
<path d="M26 46H29.3333" stroke="#9277FF" stroke-width="2" stroke-linecap="round" stroke-linejoin="round"/>
<path d="M36 46H46" stroke="#9277FF" stroke-width="2" stroke-linecap="round" stroke-linejoin="round"/>
</svg>
