<svg width="72" height="72" viewBox="0 0 72 72" fill="none" xmlns="http://www.w3.org/2000/svg">
<rect width="72" height="72" rx="36" fill="white" fill-opacity="0.08"/>
<rect x="0.5" y="0.5" width="71" height="71" rx="35.5" stroke="white" stroke-opacity="0.08"/>
<path d="M36 46.0007V24.334" stroke="#9277FF" stroke-width="2" stroke-linecap="round" stroke-linejoin="round"/>
<path d="M41 37.6667C39.558 37.2451 38.2914 36.3677 37.39 35.1658C36.4886 33.964 36.0009 32.5023 36 31C35.9991 32.5023 35.5114 33.964 34.61 35.1658C33.7086 36.3677 32.442 37.2451 31 37.6667" stroke="#9277FF" stroke-width="2" stroke-linecap="round" stroke-linejoin="round"/>
<path d="M45.33 26.8342C45.7135 26.17 45.9391 25.4265 45.9893 24.6612C46.0395 23.8959 45.9129 23.1293 45.6194 22.4207C45.326 21.7121 44.8734 21.0805 44.2968 20.5748C43.7202 20.0691 43.0349 19.7029 42.2941 19.5044C41.5533 19.3059 40.7767 19.2804 40.0245 19.4301C39.2723 19.5797 38.5646 19.9004 37.9561 20.3673C37.3477 20.8342 36.8548 21.4348 36.5156 22.1227C36.1764 22.8106 36 23.5672 36 24.3342C36 23.5672 35.8236 22.8106 35.4844 22.1227C35.1452 21.4348 34.6523 20.8342 34.0439 20.3673C33.4354 19.9004 32.7277 19.5797 31.9755 19.4301C31.2233 19.2804 30.4467 19.3059 29.7059 19.5044C28.9651 19.7029 28.2798 20.0691 27.7032 20.5748C27.1266 21.0805 26.674 21.7121 26.3806 22.4207C26.0871 23.1293 25.9605 23.8959 26.0107 24.6612C26.0609 25.4265 26.2865 26.17 26.67 26.8342" stroke="#9277FF" stroke-width="2" stroke-linecap="round" stroke-linejoin="round"/>
<path d="M45.9941 24.541C46.9738 24.7929 47.8833 25.2644 48.6538 25.9199C49.4242 26.5753 50.0354 27.3975 50.4411 28.3241C50.8467 29.2507 51.0362 30.2575 50.9952 31.2682C50.9541 32.2789 50.6836 33.267 50.2041 34.1577" stroke="#9277FF" stroke-width="2" stroke-linecap="round" stroke-linejoin="round"/>
<path d="M46 46.0005C47.4675 46.0005 48.894 45.5162 50.0582 44.6228C51.2225 43.7294 52.0594 42.4769 52.4392 41.0594C52.819 39.6419 52.7205 38.1386 52.159 36.7828C51.5974 35.427 50.6042 34.2944 49.3333 33.5605" stroke="#9277FF" stroke-width="2" stroke-linecap="round" stroke-linejoin="round"/>
<path d="M49.2777 45.1387C49.3945 46.0424 49.3248 46.9605 49.0729 47.8362C48.821 48.7119 48.3922 49.5267 47.813 50.2303C47.2339 50.9338 46.5167 51.5111 45.7056 51.9266C44.8946 52.3421 44.0071 52.5869 43.0977 52.6459C42.1884 52.7049 41.2766 52.5769 40.4187 52.2697C39.5608 51.9625 38.775 51.4827 38.1097 50.8599C37.4445 50.2372 36.9141 49.4846 36.5511 48.6488C36.1881 47.813 36.0003 46.9116 35.9993 46.0003C35.9984 46.9116 35.8106 47.813 35.4476 48.6488C35.0846 49.4846 34.5542 50.2372 33.8889 50.8599C33.2237 51.4827 32.4379 51.9625 31.58 52.2697C30.7221 52.5769 29.8103 52.7049 28.901 52.6459C27.9916 52.5869 27.1041 52.3421 26.293 51.9266C25.482 51.5111 24.7648 50.9338 24.1857 50.2303C23.6065 49.5267 23.1777 48.7119 22.9258 47.8362C22.6739 46.9605 22.6042 46.0424 22.721 45.1387" stroke="#9277FF" stroke-width="2" stroke-linecap="round" stroke-linejoin="round"/>
<path d="M26.0004 46.0005C24.5329 46.0005 23.1064 45.5162 21.9421 44.6228C20.7779 43.7294 19.941 42.4769 19.5612 41.0594C19.1813 39.6419 19.2798 38.1386 19.8414 36.7828C20.4029 35.427 21.3962 34.2944 22.667 33.5605" stroke="#9277FF" stroke-width="2" stroke-linecap="round" stroke-linejoin="round"/>
<path d="M26.0046 24.541C25.0249 24.7929 24.1154 25.2644 23.3449 25.9199C22.5745 26.5753 21.9633 27.3975 21.5576 28.3241C21.152 29.2507 20.9625 30.2575 21.0035 31.2682C21.0446 32.2789 21.3151 33.267 21.7946 34.1577" stroke="#9277FF" stroke-width="2" stroke-linecap="round" stroke-linejoin="round"/>
</svg>
